<svg width="512" height="512" version="1.1" xmlns="http://www.w3.org/2000/svg" desc="Created with imagetracer.js version 1.2.6" ><path fill="rgb(0,0,0)" stroke="rgb(0,0,0)" stroke-width="1" opacity="0.9921568627450981" d="M 57.5 16 L 198.5 16 Q 220.3 20.3 231 35.5 L 237 46.5 L 240 58.5 L 240 261.5 Q 236.1 284.1 220.5 295 Q 211.6 301.6 198.5 304 L 57.5 304 Q 35.8 299.8 25 284.5 Q 18.4 275.6 16 262.5 L 16 57.5 Q 20.3 35.8 35.5 25 Q 44.4 18.4 57.5 16 Z M 61 48 L 56 50 Q 50 53 48 61 L 48 260 L 50 265 Q 53 270 61 272 L 196 272 L 202 269 Q 206 266 208 260 L 208 61 L 206 56 Q 203 50 196 48 L 61 48 Z " /><path fill="rgb(0,0,0)" stroke="rgb(0,0,0)" stroke-width="1" opacity="0.9921568627450981" d="M 313.5 16 L 454.5 16 Q 476.3 20.3 487 35.5 Q 493.6 44.4 496 57.5 L 496 453.5 Q 492.1 476.1 476.5 487 L 465.5 493 L 453.5 496 L 314.5 496 Q 291.9 492.1 281 476.5 Q 274.4 467.6 272 454.5 L 272 57.5 Q 276.3 35.8 291.5 25 Q 300.4 18.4 313.5 16 Z M 317 48 L 312 50 Q 306 53 304 61 L 304 452 L 306 457 Q 309 462 317 464 L 452 464 L 457 462 Q 462 459 464 452 L 464 61 L 462 56 Q 459 50 452 48 L 317 48 Z " /><path fill="rgb(0,0,0)" stroke="rgb(0,0,0)" stroke-width="1" opacity="0.9921568627450981" d="M 57.5 336 L 198.5 336 Q 220.3 340.3 231 355.5 L 237 366.5 L 240 378.5 L 240 453.5 Q 236.1 476.1 220.5 487 Q 211.6 493.6 198.5 496 L 57.5 496 Q 35.8 491.8 25 476.5 Q 18.4 467.6 16 454.5 L 16 377.5 Q 20.3 355.8 35.5 345 Q 44.4 338.4 57.5 336 Z M 61 368 L 56 370 Q 50 373 48 381 L 48 452 L 50 457 Q 53 462 61 464 L 196 464 L 202 461 Q 206 458 208 452 L 208 381 L 206 376 Q 203 370 196 368 L 61 368 Z " /><path fill="rgb(0,0,0)" stroke="rgb(0,0,0)" stroke-width="1" opacity="0" d="M 0 0 L 512 0 L 512 512 L 0 512 L 0 0 Z M 58 16 Q 44 18 36 25 Q 20 36 16 58 L 16 263 Q 18 276 25 285 Q 36 300 58 304 L 199 304 Q 212 302 221 295 Q 236 284 240 262 L 240 59 L 237 47 L 231 36 Q 220 20 199 16 L 58 16 Z M 314 16 Q 300 18 292 25 Q 276 36 272 58 L 272 455 Q 274 468 281 477 Q 292 492 315 496 L 454 496 L 466 493 L 477 487 Q 492 476 496 454 L 496 58 Q 494 44 487 36 Q 476 20 455 16 L 314 16 Z M 58 336 Q 44 338 36 345 Q 20 356 16 378 L 16 455 Q 18 468 25 477 Q 36 492 58 496 L 199 496 Q 212 494 221 487 Q 236 476 240 454 L 240 379 L 237 367 L 231 356 Q 220 340 199 336 L 58 336 Z " /><path fill="rgb(0,0,0)" stroke="rgb(0,0,0)" stroke-width="1" opacity="0" d="M 60.5 48 L 195.5 48 Q 202.7 49.8 206 55.5 L 208 60.5 L 208 259.5 Q 206.5 266 201.5 269 L 195.5 272 L 60.5 272 Q 53.3 270.2 50 264.5 L 48 259.5 L 48 60.5 Q 49.8 53.3 55.5 50 L 60.5 48 Z " /><path fill="rgb(0,0,0)" stroke="rgb(0,0,0)" stroke-width="1" opacity="0" d="M 316.5 48 L 451.5 48 Q 458.7 49.8 462 55.5 L 464 60.5 L 464 451.5 Q 462.2 458.7 456.5 462 L 451.5 464 L 316.5 464 Q 309.3 462.2 306 456.5 L 304 451.5 L 304 60.5 Q 305.8 53.3 311.5 50 L 316.5 48 Z " /><path fill="rgb(0,0,0)" stroke="rgb(0,0,0)" stroke-width="1" opacity="0" d="M 60.5 368 L 195.5 368 Q 202.7 369.8 206 375.5 L 208 380.5 L 208 451.5 Q 206.5 458 201.5 461 L 195.5 464 L 60.5 464 Q 53.3 462.2 50 456.5 L 48 451.5 L 48 380.5 Q 49.8 373.3 55.5 370 L 60.5 368 Z " /></svg>