<svg width="512" height="512" version="1.1" xmlns="http://www.w3.org/2000/svg" desc="Created with imagetracer.js version 1.2.6" ><path fill="rgb(0,0,0)" stroke="rgb(0,0,0)" stroke-width="1" opacity="0" d="M 0 0 L 511.5 0 L 512 0.5 L 512 123.5 L 511 123.5 L 508.5 119 L 505.5 117 L 135 117 L 114 50.5 L 109.5 45 L 104.5 43 L 10.5 43 L 4.5 45 L 2 47.5 L 0.5 51 L 0 0 Z " /><path fill="rgb(0,0,0)" stroke="rgb(0,0,0)" stroke-width="1" opacity="0" d="M 0.5 57 L 3.5 62 L 6.5 64 L 96 64 L 176 307.5 L 176 310.5 L 180.5 317 L 184.5 319 L 211 319.5 L 182 376 L 179.5 375 L 167.5 374 Q 165.8 376.8 159.5 375 L 150.5 378 Q 140.7 382.7 134 390.5 L 130 395.5 L 123 412.5 L 123 430.5 L 130 447.5 L 138.5 457 L 150.5 465 L 160.5 468 L 170.5 469 L 171.5 468 L 182.5 467 L 192.5 463 L 207 450.5 L 214 438.5 L 215 432 L 399.5 432 L 401 433.5 Q 405.3 451.2 418.5 460 L 432.5 467 L 447.5 469 L 462.5 466 L 480 455 L 485 448.5 L 491 436.5 L 493 428.5 L 493 414.5 Q 489.6 396.9 478.5 387 Q 467 374.5 443.5 374 L 429.5 377 L 421.5 381 L 411 389 L 404 399.5 L 400 411 L 216.5 411 L 215 409.5 Q 211.4 393.6 200 385.5 L 235.5 319 L 425.5 319 L 432 314.5 L 511.5 130 L 512 512 L 0 512 L 0.5 57 Z " /><path fill="rgb(0,0,0)" stroke="rgb(0,0,0)" stroke-width="1" opacity="0" d="M 142.5 138 L 175.5 138 L 176 140.5 L 157.5 182 L 156 180.5 L 142.5 138 Z " /><path fill="rgb(0,0,0)" stroke="rgb(0,0,0)" stroke-width="1" opacity="0" d="M 199 138 L 254.5 138 L 255 140.5 L 226 207 L 170.5 207 L 170 205.5 L 199 138 Z " /><path fill="rgb(0,0,0)" stroke="rgb(0,0,0)" stroke-width="1" opacity="0" d="M 278 138 L 333.5 138 L 334 140.5 L 304.5 207 L 249 206.5 L 278 138 Z " /><path fill="rgb(0,0,0)" stroke="rgb(0,0,0)" stroke-width="1" opacity="0" d="M 358.5 138 L 414 138.5 L 383.5 207 L 328 206.5 L 354 145.5 L 358.5 138 Z " /><path fill="rgb(0,0,0)" stroke="rgb(0,0,0)" stroke-width="1" opacity="0" d="M 437.5 138 L 484.5 138 L 485 139.5 L 456 207 L 407 206.5 L 434 143.5 L 437.5 138 Z " /><path fill="rgb(0,0,0)" stroke="rgb(0,0,0)" stroke-width="1" opacity="0" d="M 172 228 L 215.5 228 L 216 230.5 L 191.5 287 L 172 228 Z " /><path fill="rgb(0,0,0)" stroke="rgb(0,0,0)" stroke-width="1" opacity="0" d="M 240.5 228 L 294.5 228 L 295 230.5 L 266 298 L 210.5 298 L 210 296.5 L 237 233.5 L 240.5 228 Z " /><path fill="rgb(0,0,0)" stroke="rgb(0,0,0)" stroke-width="1" opacity="0" d="M 319.5 228 L 375 228.5 L 345 298 L 289.5 298 L 289 296.5 L 316 233.5 L 319.5 228 Z " /><path fill="rgb(0,0,0)" stroke="rgb(0,0,0)" stroke-width="1" opacity="0" d="M 398.5 228 L 445.5 228 L 446 229.5 L 420 290.5 L 415.5 298 L 368.5 298 L 368 296.5 L 398.5 228 Z " /><path fill="rgb(0,0,0)" stroke="rgb(0,0,0)" stroke-width="1" opacity="0" d="M 169.5 395 Q 185.6 396.4 192 407.5 Q 196 413.5 196 423.5 L 192 435.5 L 184.5 443 Q 177.8 448.8 163.5 447 Q 153.3 444.3 148 436.5 Q 142.2 429.8 144 415.5 Q 146.8 405.3 154.5 400 L 159.5 397 L 169.5 395 Z " /><path fill="rgb(0,0,0)" stroke="rgb(0,0,0)" stroke-width="1" opacity="0" d="M 445.5 395 L 455.5 397 L 466 404.5 L 472 416.5 L 472 426.5 Q 469.6 436.6 462.5 442 Q 455.7 449.2 439.5 447 Q 431 444.5 426 438.5 L 420 426.5 L 420 416.5 Q 422.4 406.4 429.5 401 L 436.5 397 L 445.5 395 Z " /><path fill="rgb(0,0,0)" stroke="rgb(0,0,0)" stroke-width="1" opacity="0.7607843137254902" d="M 10.5 43 L 105 43.5 L 10.5 44 L 10.5 43 Z " /><path fill="rgb(0,0,0)" stroke="rgb(0,0,0)" stroke-width="1" opacity="0.7607843137254902" d="M 4.5 45 L 2.5 48 L 4.5 45 Z " /><path fill="rgb(0,0,0)" stroke="rgb(0,0,0)" stroke-width="1" opacity="0.7607843137254902" d="M 109.5 45 L 112.5 49 L 109.5 45 Z " /><path fill="rgb(0,0,0)" stroke="rgb(0,0,0)" stroke-width="1" opacity="0.7607843137254902" d="M 2.5 60 L 3.5 62 L 2.5 60 Z " /><path fill="rgb(0,0,0)" stroke="rgb(0,0,0)" stroke-width="1" opacity="0.7607843137254902" d="M 508.5 119 L 509.5 121 L 508.5 119 Z " /><path fill="rgb(0,0,0)" stroke="rgb(0,0,0)" stroke-width="1" opacity="0.7607843137254902" d="M 142.5 137 L 176.5 137 L 177 138.5 L 175.5 138 L 142.5 138 L 142.5 137 Z " /><path fill="rgb(0,0,0)" stroke="rgb(0,0,0)" stroke-width="1" opacity="0.7607843137254902" d="M 199.5 137 L 255.5 137 L 256 139.5 L 255 139.5 L 254.5 138 L 199.5 138 L 199.5 137 Z " /><path fill="rgb(0,0,0)" stroke="rgb(0,0,0)" stroke-width="1" opacity="0.7607843137254902" d="M 278.5 137 L 334.5 137 L 335 139.5 L 334 139.5 L 333.5 138 L 278.5 138 L 278.5 137 Z " /><path fill="rgb(0,0,0)" stroke="rgb(0,0,0)" stroke-width="1" opacity="0.7607843137254902" d="M 357 137 L 414 137.5 L 358.5 138 L 357.5 139 L 357 137 Z " /><path fill="rgb(0,0,0)" stroke="rgb(0,0,0)" stroke-width="1" opacity="0.7607843137254902" d="M 437.5 137 L 485.5 137 L 486 138.5 L 484.5 138 L 437.5 138 L 436.5 139 L 437.5 137 Z " /><path fill="rgb(0,0,0)" stroke="rgb(0,0,0)" stroke-width="1" opacity="0.7607843137254902" d="M 156.5 181 L 157.5 183 Q 154.7 183.7 156.5 181 Z " /><path fill="rgb(0,0,0)" stroke="rgb(0,0,0)" stroke-width="1" opacity="0.7607843137254902" d="M 226.5 205 L 227 206.5 L 225.5 208 L 170.5 208 L 170.5 207 L 225.5 207 L 226.5 205 Z " /><path fill="rgb(0,0,0)" stroke="rgb(0,0,0)" stroke-width="1" opacity="0.7607843137254902" d="M 305.5 206 L 304.5 208 L 249 207.5 L 304.5 207 L 305.5 206 Z " /><path fill="rgb(0,0,0)" stroke="rgb(0,0,0)" stroke-width="1" opacity="0.7607843137254902" d="M 384.5 206 L 383.5 208 L 328 207.5 L 383.5 207 L 384.5 206 Z " /><path fill="rgb(0,0,0)" stroke="rgb(0,0,0)" stroke-width="1" opacity="0.7607843137254902" d="M 407.5 207 L 456 207.5 L 407.5 208 L 407.5 207 Z " /><path fill="rgb(0,0,0)" stroke="rgb(0,0,0)" stroke-width="1" opacity="0.7607843137254902" d="M 190.5 285 L 192 287.5 L 190 286.5 L 190.5 285 Z " /><path fill="rgb(0,0,0)" stroke="rgb(0,0,0)" stroke-width="1" opacity="0.7607843137254902" d="M 178.5 314 L 180.5 317 L 178.5 314 Z " /><path fill="rgb(0,0,0)" stroke="rgb(0,0,0)" stroke-width="1" opacity="0.7607843137254902" d="M 431.5 314 L 429.5 317 L 431.5 314 Z " /><path fill="rgb(0,0,0)" stroke="rgb(0,0,0)" stroke-width="1" opacity="0.7607843137254902" d="M 184.5 318 L 211 318.5 L 184.5 319 L 184.5 318 Z " /><path fill="rgb(0,0,0)" stroke="rgb(0,0,0)" stroke-width="1" opacity="0.7607843137254902" d="M 235.5 318 L 426 318.5 L 235.5 319 L 234.5 320 L 235.5 318 Z " /><path fill="rgb(0,0,0)" stroke="rgb(0,0,0)" stroke-width="1" opacity="0.7607843137254902" d="M 230.5 327 L 229.5 329 L 230.5 327 Z " /><path fill="rgb(0,0,0)" stroke="rgb(0,0,0)" stroke-width="1" opacity="0.7607843137254902" d="M 201.5 338 L 200.5 340 L 201.5 338 Z " /><path fill="rgb(0,0,0)" stroke="rgb(0,0,0)" stroke-width="1" opacity="0.7607843137254902" d="M 218.5 350 L 217.5 352 L 218.5 350 Z " /><path fill="rgb(0,0,0)" stroke="rgb(0,0,0)" stroke-width="1" opacity="0.7607843137254902" d="M 189.5 361 L 188.5 363 L 189.5 361 Z " /><path fill="rgb(0,0,0)" stroke="rgb(0,0,0)" stroke-width="1" opacity="0.7607843137254902" d="M 167.5 374 L 173 374.5 L 167.5 375 L 167.5 374 Z " /><path fill="rgb(0,0,0)" stroke="rgb(0,0,0)" stroke-width="1" opacity="0.7607843137254902" d="M 443.5 374 L 448 374.5 L 443.5 375 L 443.5 374 Z " /><path fill="rgb(0,0,0)" stroke="rgb(0,0,0)" stroke-width="1" opacity="0.7607843137254902" d="M 159.5 375 L 162 375.5 L 159.5 376 L 159.5 375 Z " /><path fill="rgb(0,0,0)" stroke="rgb(0,0,0)" stroke-width="1" opacity="0.7607843137254902" d="M 177.5 375 L 180 375.5 L 177.5 376 L 177.5 375 Z " /><path fill="rgb(0,0,0)" stroke="rgb(0,0,0)" stroke-width="1" opacity="0.7607843137254902" d="M 205.5 375 L 204.5 377 L 205.5 375 Z " /><path fill="rgb(0,0,0)" stroke="rgb(0,0,0)" stroke-width="1" opacity="0.7607843137254902" d="M 453.5 375 L 456 375.5 L 453.5 376 L 453.5 375 Z " /><path fill="rgb(0,0,0)" stroke="rgb(0,0,0)" stroke-width="1" opacity="0.7607843137254902" d="M 150.5 378 L 149.5 380 L 150.5 378 Z " /><path fill="rgb(0,0,0)" stroke="rgb(0,0,0)" stroke-width="1" opacity="0.7607843137254902" d="M 421.5 381 L 420.5 383 L 421.5 381 Z " /><path fill="rgb(0,0,0)" stroke="rgb(0,0,0)" stroke-width="1" opacity="0.7607843137254902" d="M 143.5 382 L 142.5 384 L 143.5 382 Z " /><path fill="rgb(0,0,0)" stroke="rgb(0,0,0)" stroke-width="1" opacity="0.7607843137254902" d="M 472.5 382 L 475.5 386 L 472.5 382 Z " /><path fill="rgb(0,0,0)" stroke="rgb(0,0,0)" stroke-width="1" opacity="0.7607843137254902" d="M 418.5 383 L 417.5 385 L 418.5 383 Z " /><path fill="rgb(0,0,0)" stroke="rgb(0,0,0)" stroke-width="1" opacity="0.7607843137254902" d="M 138.5 386 L 134.5 391 L 138.5 386 Z " /><path fill="rgb(0,0,0)" stroke="rgb(0,0,0)" stroke-width="1" opacity="0.7607843137254902" d="M 478.5 387 L 479.5 389 L 478.5 387 Z " /><path fill="rgb(0,0,0)" stroke="rgb(0,0,0)" stroke-width="1" opacity="0.7607843137254902" d="M 205.5 391 L 206.5 393 L 205.5 391 Z " /><path fill="rgb(0,0,0)" stroke="rgb(0,0,0)" stroke-width="1" opacity="0.7607843137254902" d="M 409.5 392 L 408.5 394 L 409.5 392 Z " /><path fill="rgb(0,0,0)" stroke="rgb(0,0,0)" stroke-width="1" opacity="0.7607843137254902" d="M 482.5 392 L 484.5 395 L 482.5 392 Z " /><path fill="rgb(0,0,0)" stroke="rgb(0,0,0)" stroke-width="1" opacity="0.7607843137254902" d="M 131.5 394 L 130.5 396 L 131.5 394 Z " /><path fill="rgb(0,0,0)" stroke="rgb(0,0,0)" stroke-width="1" opacity="0.7607843137254902" d="M 164.5 395 L 169 395.5 L 164.5 396 L 164.5 395 Z " /><path fill="rgb(0,0,0)" stroke="rgb(0,0,0)" stroke-width="1" opacity="0.7607843137254902" d="M 171.5 395 L 175 395.5 L 171.5 396 L 171.5 395 Z " /><path fill="rgb(0,0,0)" stroke="rgb(0,0,0)" stroke-width="1" opacity="0.7607843137254902" d="M 208.5 395 L 209.5 397 L 208.5 395 Z " /><path fill="rgb(0,0,0)" stroke="rgb(0,0,0)" stroke-width="1" opacity="0.7607843137254902" d="M 441.5 395 L 445 395.5 L 441.5 396 L 441.5 395 Z " /><path fill="rgb(0,0,0)" stroke="rgb(0,0,0)" stroke-width="1" opacity="0.7607843137254902" d="M 447.5 395 L 451 395.5 L 447.5 396 L 447.5 395 Z " /><path fill="rgb(0,0,0)" stroke="rgb(0,0,0)" stroke-width="1" opacity="0.7607843137254902" d="M 158.5 397 L 157.5 399 L 158.5 397 Z " /><path fill="rgb(0,0,0)" stroke="rgb(0,0,0)" stroke-width="1" opacity="0.7607843137254902" d="M 405.5 398 L 404.5 400 L 405.5 398 Z " /><path fill="rgb(0,0,0)" stroke="rgb(0,0,0)" stroke-width="1" opacity="0.7607843137254902" d="M 486.5 398 L 487.5 400 L 486.5 398 Z " /><path fill="rgb(0,0,0)" stroke="rgb(0,0,0)" stroke-width="1" opacity="0.7607843137254902" d="M 184.5 399 L 191.5 407 L 184.5 399 Z " /><path fill="rgb(0,0,0)" stroke="rgb(0,0,0)" stroke-width="1" opacity="0.7607843137254902" d="M 431.5 399 L 430.5 401 L 431.5 399 Z " /><path fill="rgb(0,0,0)" stroke="rgb(0,0,0)" stroke-width="1" opacity="0.7607843137254902" d="M 460.5 399 L 461.5 401 L 460.5 399 Z " /><path fill="rgb(0,0,0)" stroke="rgb(0,0,0)" stroke-width="1" opacity="0.7607843137254902" d="M 152.5 401 L 149.5 405 L 152.5 401 Z " /><path fill="rgb(0,0,0)" stroke="rgb(0,0,0)" stroke-width="1" opacity="0.7607843137254902" d="M 425.5 405 L 424.5 407 L 425.5 405 Z " /><path fill="rgb(0,0,0)" stroke="rgb(0,0,0)" stroke-width="1" opacity="0.7607843137254902" d="M 466.5 405 L 467.5 407 L 466.5 405 Z " /><path fill="rgb(0,0,0)" stroke="rgb(0,0,0)" stroke-width="1" opacity="0.7607843137254902" d="M 423.5 408 L 422.5 410 L 423.5 408 Z " /><path fill="rgb(0,0,0)" stroke="rgb(0,0,0)" stroke-width="1" opacity="0.7607843137254902" d="M 123.5 412 L 124 415.5 L 123 415.5 L 123.5 412 Z " /><path fill="rgb(0,0,0)" stroke="rgb(0,0,0)" stroke-width="1" opacity="0.7607843137254902" d="M 492.5 414 L 493 418.5 L 492 418.5 L 492.5 414 Z " /><path fill="rgb(0,0,0)" stroke="rgb(0,0,0)" stroke-width="1" opacity="0.7607843137254902" d="M 195.5 416 L 196 418.5 L 195 418.5 L 195.5 416 Z " /><path fill="rgb(0,0,0)" stroke="rgb(0,0,0)" stroke-width="1" opacity="0.7607843137254902" d="M 143.5 418 L 144 424.5 L 143 424.5 L 143.5 418 Z " /><path fill="rgb(0,0,0)" stroke="rgb(0,0,0)" stroke-width="1" opacity="0.7607843137254902" d="M 195.5 424 L 196 426.5 L 195 426.5 L 195.5 424 Z " /><path fill="rgb(0,0,0)" stroke="rgb(0,0,0)" stroke-width="1" opacity="0.7607843137254902" d="M 492.5 424 L 493 428.5 L 492 428.5 L 492.5 424 Z " /><path fill="rgb(0,0,0)" stroke="rgb(0,0,0)" stroke-width="1" opacity="0.7607843137254902" d="M 123.5 427 L 124 430.5 L 123 430.5 L 123.5 427 Z " /><path fill="rgb(0,0,0)" stroke="rgb(0,0,0)" stroke-width="1" opacity="0.7607843137254902" d="M 469.5 433 L 468.5 435 L 469.5 433 Z " /><path fill="rgb(0,0,0)" stroke="rgb(0,0,0)" stroke-width="1" opacity="0.7607843137254902" d="M 191.5 436 L 185.5 443 L 191.5 436 Z " /><path fill="rgb(0,0,0)" stroke="rgb(0,0,0)" stroke-width="1" opacity="0.7607843137254902" d="M 424.5 436 L 425.5 438 L 424.5 436 Z " /><path fill="rgb(0,0,0)" stroke="rgb(0,0,0)" stroke-width="1" opacity="0.7607843137254902" d="M 467.5 436 L 466.5 438 L 467.5 436 Z " /><path fill="rgb(0,0,0)" stroke="rgb(0,0,0)" stroke-width="1" opacity="0.7607843137254902" d="M 149.5 438 L 152.5 442 L 149.5 438 Z " /><path fill="rgb(0,0,0)" stroke="rgb(0,0,0)" stroke-width="1" opacity="0.7607843137254902" d="M 403.5 441 L 404.5 443 L 403.5 441 Z " /><path fill="rgb(0,0,0)" stroke="rgb(0,0,0)" stroke-width="1" opacity="0.7607843137254902" d="M 429.5 441 L 431.5 444 L 429.5 441 Z " /><path fill="rgb(0,0,0)" stroke="rgb(0,0,0)" stroke-width="1" opacity="0.7607843137254902" d="M 461.5 442 L 460.5 444 L 461.5 442 Z " /><path fill="rgb(0,0,0)" stroke="rgb(0,0,0)" stroke-width="1" opacity="0.7607843137254902" d="M 183.5 443 L 182.5 445 L 183.5 443 Z " /><path fill="rgb(0,0,0)" stroke="rgb(0,0,0)" stroke-width="1" opacity="0.7607843137254902" d="M 209.5 446 L 208.5 448 L 209.5 446 Z " /><path fill="rgb(0,0,0)" stroke="rgb(0,0,0)" stroke-width="1" opacity="0.7607843137254902" d="M 130.5 447 L 132.5 450 L 130.5 447 Z " /><path fill="rgb(0,0,0)" stroke="rgb(0,0,0)" stroke-width="1" opacity="0.7607843137254902" d="M 165.5 447 L 175 447.5 L 165.5 448 L 165.5 447 Z " /><path fill="rgb(0,0,0)" stroke="rgb(0,0,0)" stroke-width="1" opacity="0.7607843137254902" d="M 441.5 447 L 451 447.5 L 441.5 448 L 441.5 447 Z " /><path fill="rgb(0,0,0)" stroke="rgb(0,0,0)" stroke-width="1" opacity="0.7607843137254902" d="M 484.5 448 L 481.5 452 L 484.5 448 Z " /><path fill="rgb(0,0,0)" stroke="rgb(0,0,0)" stroke-width="1" opacity="0.7607843137254902" d="M 408.5 449 L 409.5 451 L 408.5 449 Z " /><path fill="rgb(0,0,0)" stroke="rgb(0,0,0)" stroke-width="1" opacity="0.7607843137254902" d="M 206.5 450 L 205.5 452 L 206.5 450 Z " /><path fill="rgb(0,0,0)" stroke="rgb(0,0,0)" stroke-width="1" opacity="0.7607843137254902" d="M 134.5 452 L 138.5 457 L 134.5 452 Z " /><path fill="rgb(0,0,0)" stroke="rgb(0,0,0)" stroke-width="1" opacity="0.7607843137254902" d="M 203.5 453 L 198.5 459 L 203.5 453 Z " /><path fill="rgb(0,0,0)" stroke="rgb(0,0,0)" stroke-width="1" opacity="0.7607843137254902" d="M 475.5 457 L 473.5 460 L 475.5 457 Z " /><path fill="rgb(0,0,0)" stroke="rgb(0,0,0)" stroke-width="1" opacity="0.7607843137254902" d="M 141.5 458 L 143.5 461 L 141.5 458 Z " /><path fill="rgb(0,0,0)" stroke="rgb(0,0,0)" stroke-width="1" opacity="0.7607843137254902" d="M 417.5 458 L 418.5 460 L 417.5 458 Z " /><path fill="rgb(0,0,0)" stroke="rgb(0,0,0)" stroke-width="1" opacity="0.7607843137254902" d="M 196.5 459 L 195.5 461 L 196.5 459 Z " /><path fill="rgb(0,0,0)" stroke="rgb(0,0,0)" stroke-width="1" opacity="0.7607843137254902" d="M 420.5 460 L 421.5 462 L 420.5 460 Z " /><path fill="rgb(0,0,0)" stroke="rgb(0,0,0)" stroke-width="1" opacity="0.7607843137254902" d="M 149.5 463 L 152 464.5 L 150.5 465 L 149.5 463 Z " /><path fill="rgb(0,0,0)" stroke="rgb(0,0,0)" stroke-width="1" opacity="0.7607843137254902" d="M 160.5 467 L 163 467.5 L 160.5 468 L 160.5 467 Z " /><path fill="rgb(0,0,0)" stroke="rgb(0,0,0)" stroke-width="1" opacity="0.7607843137254902" d="M 436.5 467 L 439 467.5 L 436.5 468 L 436.5 467 Z " /><path fill="rgb(0,0,0)" stroke="rgb(0,0,0)" stroke-width="1" opacity="0.7607843137254902" d="M 453.5 467 L 456 467.5 L 453.5 468 L 453.5 467 Z " /><path fill="rgb(0,0,0)" stroke="rgb(0,0,0)" stroke-width="1" opacity="0.7607843137254902" d="M 168.5 468 L 171 468.5 L 168.5 469 L 168.5 468 Z " /><path fill="rgb(0,0,0)" stroke="rgb(0,0,0)" stroke-width="1" opacity="0.7607843137254902" d="M 444.5 468 L 448 468.5 L 444.5 469 L 444.5 468 Z " /><path fill="rgb(0,0,0)" stroke="rgb(0,0,0)" stroke-width="1" opacity="0.996078431372549" d="M 511.5 126 L 512 128.5 L 511 128.5 L 511.5 126 Z " /><path fill="rgb(0,0,0)" stroke="rgb(0,0,0)" stroke-width="1" opacity="0.996078431372549" d="M 141.5 384 L 140.5 386 L 141.5 384 Z " /><path fill="rgb(0,0,0)" stroke="rgb(0,0,0)" stroke-width="1" opacity="0.996078431372549" d="M 416.5 385 L 412.5 390 L 416.5 385 Z " /><path fill="rgb(0,0,0)" stroke="rgb(0,0,0)" stroke-width="1" opacity="0.996078431372549" d="M 476.5 386 L 477.5 388 L 476.5 386 Z " /><path fill="rgb(0,0,0)" stroke="rgb(0,0,0)" stroke-width="1" opacity="0.996078431372549" d="M 201.5 387 L 204.5 391 L 201.5 387 Z " /><path fill="rgb(0,0,0)" stroke="rgb(0,0,0)" stroke-width="1" opacity="0.996078431372549" d="M 480.5 390 L 481.5 392 L 480.5 390 Z " /><path fill="rgb(0,0,0)" stroke="rgb(0,0,0)" stroke-width="1" opacity="0.996078431372549" d="M 134.5 391 L 132.5 394 L 134.5 391 Z " /><path fill="rgb(0,0,0)" stroke="rgb(0,0,0)" stroke-width="1" opacity="0.996078431372549" d="M 154.5 399 L 153.5 401 L 154.5 399 Z " /><path fill="rgb(0,0,0)" stroke="rgb(0,0,0)" stroke-width="1" opacity="0.996078431372549" d="M 429.5 400 L 425.5 405 L 429.5 400 Z " /><path fill="rgb(0,0,0)" stroke="rgb(0,0,0)" stroke-width="1" opacity="0.996078431372549" d="M 462.5 400 L 463.5 402 L 462.5 400 Z " /><path fill="rgb(0,0,0)" stroke="rgb(0,0,0)" stroke-width="1" opacity="0.996078431372549" d="M 465.5 403 L 466.5 405 L 465.5 403 Z " /><path fill="rgb(0,0,0)" stroke="rgb(0,0,0)" stroke-width="1" opacity="0.996078431372549" d="M 148.5 405 L 147.5 407 L 148.5 405 Z " /><path fill="rgb(0,0,0)" stroke="rgb(0,0,0)" stroke-width="1" opacity="0.996078431372549" d="M 215.5 431 L 401 431.5 L 215.5 432 L 215.5 431 Z " /><path fill="rgb(0,0,0)" stroke="rgb(0,0,0)" stroke-width="1" opacity="0.996078431372549" d="M 147.5 436 L 148.5 438 L 147.5 436 Z " /><path fill="rgb(0,0,0)" stroke="rgb(0,0,0)" stroke-width="1" opacity="0.996078431372549" d="M 425.5 438 L 428.5 442 L 425.5 438 Z " /><path fill="rgb(0,0,0)" stroke="rgb(0,0,0)" stroke-width="1" opacity="0.996078431372549" d="M 466.5 438 L 463.5 442 L 466.5 438 Z " /><path fill="rgb(0,0,0)" stroke="rgb(0,0,0)" stroke-width="1" opacity="0.996078431372549" d="M 153.5 442 L 154.5 444 L 153.5 442 Z " /><path fill="rgb(0,0,0)" stroke="rgb(0,0,0)" stroke-width="1" opacity="0.996078431372549" d="M 407.5 447 L 408.5 449 L 407.5 447 Z " /><path fill="rgb(0,0,0)" stroke="rgb(0,0,0)" stroke-width="1" opacity="0.996078431372549" d="M 207.5 448 L 206.5 450 L 207.5 448 Z " /><path fill="rgb(0,0,0)" stroke="rgb(0,0,0)" stroke-width="1" opacity="0.996078431372549" d="M 133.5 450 L 134.5 452 L 133.5 450 Z " /><path fill="rgb(0,0,0)" stroke="rgb(0,0,0)" stroke-width="1" opacity="0.996078431372549" d="M 410.5 451 L 416.5 458 L 410.5 451 Z " /><path fill="rgb(0,0,0)" stroke="rgb(0,0,0)" stroke-width="1" opacity="0.996078431372549" d="M 480.5 452 L 479.5 454 L 480.5 452 Z " /><path fill="rgb(0,0,0)" stroke="rgb(0,0,0)" stroke-width="1" opacity="0.996078431372549" d="M 477.5 455 L 476.5 457 L 477.5 455 Z " /><path fill="rgb(0,0,0)" stroke="rgb(0,0,0)" stroke-width="1" opacity="0.996078431372549" d="M 139.5 456 L 140.5 458 L 139.5 456 Z " /><path fill="rgb(0,0,0)" stroke="rgb(0,0,0)" stroke-width="1" opacity="1" d="M 8.5 44 L 106.5 44 L 112 48.5 L 134 115.5 L 135.5 117 L 503.5 117 L 510 121.5 L 511 130.5 L 434 309.5 L 428.5 317 L 426.5 318 L 234 318 L 200 386.5 L 209 396.5 L 215.5 411 L 400.5 411 L 401 409.5 Q 404.6 397.8 411 390 L 424.5 380 L 431.5 377 L 439.5 375 L 451.5 375 Q 470 378 480 389.5 Q 486.6 395.9 490 405.5 L 493 421.5 L 490 437.5 L 479 455 L 465.5 464 L 450.5 468 L 440.5 468 Q 419.1 464.4 409 449.5 Q 402.4 442.2 401 431 L 215.5 431 L 215 432.5 Q 210.5 449 198.5 458 L 180.5 467 L 165.5 468 L 155.5 466 L 148.5 463 L 135 452.5 L 126 438.5 L 124 431.5 L 123 418.5 Q 125.5 417 124 411.5 L 128 400.5 L 139.5 386 Q 147.2 379.2 158.5 376 L 176.5 375 L 183 376 L 212 318 L 184.5 318 L 179 314.5 L 97 64 L 9.5 64 L 3 60.5 Q -0.4 57.9 1 50.5 L 4.5 46 L 8.5 44 Z M 142 137 L 142 141 L 156 182 Q 155 185 158 184 L 177 140 L 177 137 L 142 137 Z M 199 137 L 169 207 L 170 208 L 226 208 L 229 203 L 256 140 L 256 137 L 199 137 Z M 278 137 L 248 207 L 249 208 L 305 208 L 308 203 L 335 140 L 335 137 L 278 137 Z M 357 137 L 327 207 L 328 208 L 385 208 L 415 138 L 357 137 Z M 436 137 L 406 207 L 407 208 L 456 208 L 486 139 L 486 137 L 436 137 Z M 172 228 L 190 285 Q 189 289 192 288 L 217 231 L 217 228 L 172 228 Z M 240 228 L 209 297 L 210 298 L 267 298 L 296 231 L 296 228 L 240 228 Z M 319 228 L 288 297 L 289 298 L 346 298 L 375 231 L 375 228 L 319 228 Z M 398 228 L 367 298 L 417 298 L 447 230 L 447 228 L 398 228 Z M 164 395 L 155 399 Q 146 405 143 417 L 143 427 L 147 437 Q 153 445 165 448 L 176 448 L 189 441 L 196 428 L 196 416 L 194 410 L 189 402 L 176 395 L 164 395 Z M 441 395 L 430 400 L 423 408 L 419 421 Q 419 432 425 439 Q 430 446 441 448 L 452 448 L 464 442 L 469 436 L 473 424 Q 473 411 467 405 Q 460 394 441 395 Z " /></svg>