<svg width="512" height="512" version="1.1" xmlns="http://www.w3.org/2000/svg" desc="Created with imagetracer.js version 1.2.6" ><path fill="rgb(193,163,255)" stroke="rgb(193,163,255)" stroke-width="1" opacity="0.5019607843137255" d="M 250.5 32 L 253 32.5 Q 246.2 33.7 243 38.5 L 240.5 45 L 240 42.5 L 246.5 34 L 250.5 32 Z " /><path fill="rgb(193,163,255)" stroke="rgb(193,163,255)" stroke-width="1" opacity="0.5019607843137255" d="M 259.5 32 Q 266.9 33.1 270 38.5 L 272 44.5 L 271 44.5 Q 270.1 37.9 265.5 35 L 259.5 33 L 259.5 32 Z " /><path fill="rgb(193,163,255)" stroke="rgb(193,163,255)" stroke-width="1" opacity="0.5019607843137255" d="M 186.5 64 L 189 64.5 Q 182.2 65.7 179 70.5 L 176.5 77 L 176 74.5 L 182.5 66 L 186.5 64 Z " /><path fill="rgb(193,163,255)" stroke="rgb(193,163,255)" stroke-width="1" opacity="0.5019607843137255" d="M 195.5 64 L 201.5 66 L 240 95.5 L 237.5 94 L 201.5 67 L 195.5 65 L 195.5 64 Z " /><path fill="rgb(193,163,255)" stroke="rgb(193,163,255)" stroke-width="1" opacity="0.5019607843137255" d="M 314.5 64 L 317 64.5 L 310.5 67 L 272.5 96 L 274.5 93 L 314.5 64 Z " /><path fill="rgb(193,163,255)" stroke="rgb(193,163,255)" stroke-width="1" opacity="0.5019607843137255" d="M 323.5 64 Q 330.9 65.1 334 70.5 L 336 76.5 L 335 76.5 Q 334.1 69.9 329.5 67 L 323.5 65 L 323.5 64 Z " /><path fill="rgb(193,163,255)" stroke="rgb(193,163,255)" stroke-width="1" opacity="0.5019607843137255" d="M 176.5 83 Q 177.7 89.8 182.5 93 L 240 135.5 L 238.5 136 L 178 89.5 Q 175 87 176.5 83 Z " /><path fill="rgb(193,163,255)" stroke="rgb(193,163,255)" stroke-width="1" opacity="0.5019607843137255" d="M 335.5 83 L 336 85.5 L 329.5 94 L 272.5 136 L 272.5 135 L 333 89.5 L 335.5 83 Z " /><path fill="rgb(193,163,255)" stroke="rgb(193,163,255)" stroke-width="1" opacity="0.5019607843137255" d="M 132.5 96 L 142.5 97 L 150 103.5 L 151 106.5 L 150 106.5 L 145.5 100 Q 141.7 95.8 132.5 97 L 132.5 96 Z " /><path fill="rgb(193,163,255)" stroke="rgb(193,163,255)" stroke-width="1" opacity="0.5019607843137255" d="M 372.5 96 L 371.5 98 L 372.5 96 Z " /><path fill="rgb(193,163,255)" stroke="rgb(193,163,255)" stroke-width="1" opacity="0.5019607843137255" d="M 127.5 98 L 126.5 100 L 123 102.5 L 121.5 105 L 122 103.5 L 125.5 99 L 127.5 98 Z " /><path fill="rgb(193,163,255)" stroke="rgb(193,163,255)" stroke-width="1" opacity="0.5019607843137255" d="M 368.5 98 L 367.5 100 L 365.5 101 L 366.5 99 L 368.5 98 Z " /><path fill="rgb(193,163,255)" stroke="rgb(193,163,255)" stroke-width="1" opacity="0.5019607843137255" d="M 151.5 108 L 152 111.5 L 151 111.5 L 151.5 108 Z " /><path fill="rgb(193,163,255)" stroke="rgb(193,163,255)" stroke-width="1" opacity="0.5019607843137255" d="M 119.5 109 L 120 116.5 L 119 116.5 L 119.5 109 Z " /><path fill="rgb(193,163,255)" stroke="rgb(193,163,255)" stroke-width="1" opacity="0.5019607843137255" d="M 152.5 115 L 153 120.5 L 152 120.5 L 152.5 115 Z " /><path fill="rgb(193,163,255)" stroke="rgb(193,163,255)" stroke-width="1" opacity="0.5019607843137255" d="M 120.5 120 L 121 125.5 L 120 125.5 L 120.5 120 Z " /><path fill="rgb(193,163,255)" stroke="rgb(193,163,255)" stroke-width="1" opacity="0.5019607843137255" d="M 153.5 123 L 154 128.5 L 153 128.5 L 153.5 123 Z " /><path fill="rgb(193,163,255)" stroke="rgb(193,163,255)" stroke-width="1" opacity="0.5019607843137255" d="M 121.5 128 L 122 133.5 L 121 133.5 L 121.5 128 Z " /><path fill="rgb(193,163,255)" stroke="rgb(193,163,255)" stroke-width="1" opacity="0.5019607843137255" d="M 154.5 131 L 155 136.5 L 154 136.5 L 154.5 131 Z " /><path fill="rgb(193,163,255)" stroke="rgb(193,163,255)" stroke-width="1" opacity="0.5019607843137255" d="M 70.5 136 L 73 136.5 Q 66.2 137.7 63 142.5 L 61.5 145 L 62 143.5 L 66.5 138 L 70.5 136 Z " /><path fill="rgb(193,163,255)" stroke="rgb(193,163,255)" stroke-width="1" opacity="0.5019607843137255" d="M 79.5 136 L 87 139.5 L 85.5 139 L 79.5 137 L 79.5 136 Z " /><path fill="rgb(193,163,255)" stroke="rgb(193,163,255)" stroke-width="1" opacity="0.5019607843137255" d="M 122.5 136 L 123 141.5 L 122 141.5 L 122.5 136 Z " /><path fill="rgb(193,163,255)" stroke="rgb(193,163,255)" stroke-width="1" opacity="0.5019607843137255" d="M 88.5 140 L 94 143.5 L 92.5 143 Q 88.5 142.5 88.5 140 Z " /><path fill="rgb(193,163,255)" stroke="rgb(193,163,255)" stroke-width="1" opacity="0.5019607843137255" d="M 155.5 140 L 156 145.5 L 155 145.5 L 155.5 140 Z " /><path fill="rgb(193,163,255)" stroke="rgb(193,163,255)" stroke-width="1" opacity="0.5019607843137255" d="M 95.5 144 L 101 147.5 L 99.5 147 Q 95.5 146.5 95.5 144 Z " /><path fill="rgb(193,163,255)" stroke="rgb(193,163,255)" stroke-width="1" opacity="0.5019607843137255" d="M 123.5 145 L 124 149.5 L 123 149.5 L 123.5 145 Z " /><path fill="rgb(193,163,255)" stroke="rgb(193,163,255)" stroke-width="1" opacity="0.5019607843137255" d="M 102.5 148 L 120 158.5 L 118.5 158 L 103.5 150 L 102.5 148 Z " /><path fill="rgb(193,163,255)" stroke="rgb(193,163,255)" stroke-width="1" opacity="0.5019607843137255" d="M 156.5 148 L 157 153.5 L 156 153.5 L 156.5 148 Z " /><path fill="rgb(193,163,255)" stroke="rgb(193,163,255)" stroke-width="1" opacity="0.5019607843137255" d="M 59.5 150 L 60 153.5 L 59 153.5 L 59.5 150 Z " /><path fill="rgb(193,163,255)" stroke="rgb(193,163,255)" stroke-width="1" opacity="0.5019607843137255" d="M 124.5 153 L 125 158.5 L 124 158.5 L 124.5 153 Z " /><path fill="rgb(193,163,255)" stroke="rgb(193,163,255)" stroke-width="1" opacity="0.5019607843137255" d="M 157.5 157 L 158 161.5 L 157 161.5 L 157.5 157 Z " /><path fill="rgb(193,163,255)" stroke="rgb(193,163,255)" stroke-width="1" opacity="0.5019607843137255" d="M 121.5 159 L 126 161.5 L 124.5 162 L 121.5 159 Z " /><path fill="rgb(193,163,255)" stroke="rgb(193,163,255)" stroke-width="1" opacity="0.5019607843137255" d="M 62.5 161 L 66.5 165 L 81 173.5 L 79.5 173 L 66.5 166 L 62.5 161 Z " /><path fill="rgb(193,163,255)" stroke="rgb(193,163,255)" stroke-width="1" opacity="0.5019607843137255" d="M 158.5 165 L 159 170.5 L 158 170.5 L 158.5 165 Z " /><path fill="rgb(193,163,255)" stroke="rgb(193,163,255)" stroke-width="1" opacity="0.5019607843137255" d="M 159.5 173 L 160 178.5 L 159 178.5 L 159.5 173 Z " /><path fill="rgb(193,163,255)" stroke="rgb(193,163,255)" stroke-width="1" opacity="0.5019607843137255" d="M 82.5 174 L 88 177.5 L 86.5 177 Q 82.5 176.5 82.5 174 Z " /><path fill="rgb(193,163,255)" stroke="rgb(193,163,255)" stroke-width="1" opacity="0.5019607843137255" d="M 89.5 178 L 107 188.5 L 105.5 188 L 90.5 180 L 89.5 178 Z " /><path fill="rgb(193,163,255)" stroke="rgb(193,163,255)" stroke-width="1" opacity="0.5019607843137255" d="M 160.5 181 L 165 184.5 L 163.5 184 L 160 183 L 160.5 181 Z " /><path fill="rgb(193,163,255)" stroke="rgb(193,163,255)" stroke-width="1" opacity="0.5019607843137255" d="M 239.5 182 L 238.5 184 L 200.5 206 L 190 199.5 L 191.5 200 L 200.5 205 L 239.5 182 Z " /><path fill="rgb(193,163,255)" stroke="rgb(193,163,255)" stroke-width="1" opacity="0.5019607843137255" d="M 272.5 182 L 273.5 184 L 272.5 182 Z " /><path fill="rgb(193,163,255)" stroke="rgb(193,163,255)" stroke-width="1" opacity="0.5019607843137255" d="M 275.5 184 L 276.5 186 L 275.5 184 Z " /><path fill="rgb(193,163,255)" stroke="rgb(193,163,255)" stroke-width="1" opacity="0.5019607843137255" d="M 166.5 185 L 177 191.5 L 175.5 191 L 167.5 187 L 166.5 185 Z " /><path fill="rgb(193,163,255)" stroke="rgb(193,163,255)" stroke-width="1" opacity="0.5019607843137255" d="M 108.5 189 L 107.5 191 L 102.5 193 L 102.5 192 L 108.5 189 Z " /><path fill="rgb(193,163,255)" stroke="rgb(193,163,255)" stroke-width="1" opacity="0.5019607843137255" d="M 178.5 192 L 189 198.5 L 187.5 198 L 179.5 194 L 178.5 192 Z " /><path fill="rgb(193,163,255)" stroke="rgb(193,163,255)" stroke-width="1" opacity="0.5019607843137255" d="M 99.5 193 L 101 193.5 L 95.5 196 L 95.5 195 L 99.5 193 Z " /><path fill="rgb(193,163,255)" stroke="rgb(193,163,255)" stroke-width="1" opacity="0.5019607843137255" d="M 92.5 196 L 94 196.5 L 88.5 199 L 88.5 198 L 92.5 196 Z " /><path fill="rgb(193,163,255)" stroke="rgb(193,163,255)" stroke-width="1" opacity="0.5019607843137255" d="M 85.5 199 L 87 199.5 L 81.5 202 L 81.5 201 L 85.5 199 Z " /><path fill="rgb(193,163,255)" stroke="rgb(193,163,255)" stroke-width="1" opacity="0.5019607843137255" d="M 78.5 202 L 80 202.5 L 74.5 205 L 74.5 204 L 78.5 202 Z " /><path fill="rgb(193,163,255)" stroke="rgb(193,163,255)" stroke-width="1" opacity="0.5019607843137255" d="M 71.5 205 L 73 205.5 L 67.5 208 L 67.5 207 L 71.5 205 Z " /><path fill="rgb(193,163,255)" stroke="rgb(193,163,255)" stroke-width="1" opacity="0.5019607843137255" d="M 64.5 208 L 66 208.5 L 58.5 214 L 62.5 209 L 64.5 208 Z " /><path fill="rgb(193,163,255)" stroke="rgb(193,163,255)" stroke-width="1" opacity="0.5019607843137255" d="M 142.5 210 Q 146.3 209.3 147 211.5 L 145.5 211 L 140.5 212 L 140.5 211 L 142.5 210 Z " /><path fill="rgb(193,163,255)" stroke="rgb(193,163,255)" stroke-width="1" opacity="0.5019607843137255" d="M 137.5 212 L 139 212.5 L 133.5 215 L 133.5 214 L 137.5 212 Z " /><path fill="rgb(193,163,255)" stroke="rgb(193,163,255)" stroke-width="1" opacity="0.5019607843137255" d="M 148.5 212 L 159 218.5 L 157.5 218 L 149.5 214 L 148.5 212 Z " /><path fill="rgb(193,163,255)" stroke="rgb(193,163,255)" stroke-width="1" opacity="0.5019607843137255" d="M 250.5 213 L 249.5 215 L 250.5 213 Z " /><path fill="rgb(193,163,255)" stroke="rgb(193,163,255)" stroke-width="1" opacity="0.5019607843137255" d="M 130.5 215 L 132 215.5 L 126.5 218 L 126.5 217 L 130.5 215 Z " /><path fill="rgb(193,163,255)" stroke="rgb(193,163,255)" stroke-width="1" opacity="0.5019607843137255" d="M 245.5 216 L 244.5 218 L 242.5 219 L 243.5 217 L 245.5 216 Z " /><path fill="rgb(193,163,255)" stroke="rgb(193,163,255)" stroke-width="1" opacity="0.5019607843137255" d="M 123.5 218 L 125 218.5 L 119.5 221 L 119.5 220 L 123.5 218 Z " /><path fill="rgb(193,163,255)" stroke="rgb(193,163,255)" stroke-width="1" opacity="0.5019607843137255" d="M 160.5 219 L 185 233.5 L 185 278.5 L 183.5 280 L 181.5 281 L 182.5 279 L 184 278.5 L 184 233 L 161.5 221 L 160.5 219 Z " /><path fill="rgb(193,163,255)" stroke="rgb(193,163,255)" stroke-width="1" opacity="0.5019607843137255" d="M 55.5 220 L 56 226.5 L 55 226.5 L 55.5 220 Z " /><path fill="rgb(193,163,255)" stroke="rgb(193,163,255)" stroke-width="1" opacity="0.5019607843137255" d="M 238.5 220 L 237.5 222 L 235.5 223 L 236.5 221 L 238.5 220 Z " /><path fill="rgb(193,163,255)" stroke="rgb(193,163,255)" stroke-width="1" opacity="0.5019607843137255" d="M 116.5 221 L 118 221.5 L 112.5 224 L 112.5 223 L 116.5 221 Z " /><path fill="rgb(193,163,255)" stroke="rgb(193,163,255)" stroke-width="1" opacity="0.5019607843137255" d="M 233.5 223 L 232.5 225 L 231 224.5 L 233.5 223 Z " /><path fill="rgb(193,163,255)" stroke="rgb(193,163,255)" stroke-width="1" opacity="0.5019607843137255" d="M 109.5 224 L 111 224.5 L 105.5 227 L 105.5 226 L 109.5 224 Z " /><path fill="rgb(193,163,255)" stroke="rgb(193,163,255)" stroke-width="1" opacity="0.5019607843137255" d="M 228.5 226 L 230 226.5 L 226.5 228 L 226.5 227 L 228.5 226 Z " /><path fill="rgb(193,163,255)" stroke="rgb(193,163,255)" stroke-width="1" opacity="0.5019607843137255" d="M 102.5 227 L 104 227.5 L 98.5 230 L 98.5 229 L 102.5 227 Z " /><path fill="rgb(193,163,255)" stroke="rgb(193,163,255)" stroke-width="1" opacity="0.5019607843137255" d="M 224.5 228 L 223.5 230 L 224.5 228 Z " /><path fill="rgb(193,163,255)" stroke="rgb(193,163,255)" stroke-width="1" opacity="0.5019607843137255" d="M 95.5 230 L 97 230.5 L 93.5 232 L 93.5 231 L 95.5 230 Z " /><path fill="rgb(193,163,255)" stroke="rgb(193,163,255)" stroke-width="1" opacity="0.5019607843137255" d="M 57.5 231 L 61.5 236 L 67 238.5 L 65.5 239 L 58 233.5 L 57.5 231 Z " /><path fill="rgb(193,163,255)" stroke="rgb(193,163,255)" stroke-width="1" opacity="0.5019607843137255" d="M 219.5 231 L 218.5 233 L 217 233.5 L 217 256.5 L 216 256.5 L 216 233.5 L 217.5 232 L 219.5 231 Z " /><path fill="rgb(193,163,255)" stroke="rgb(193,163,255)" stroke-width="1" opacity="0.5019607843137255" d="M 88.5 233 L 90 233.5 L 86.5 235 L 86.5 234 L 88.5 233 Z " /><path fill="rgb(193,163,255)" stroke="rgb(193,163,255)" stroke-width="1" opacity="0.5019607843137255" d="M 81.5 236 L 83 236.5 Q 78.6 241.1 68.5 240 L 68.5 239 Q 77.7 240.2 81.5 236 Z " /><path fill="rgb(193,163,255)" stroke="rgb(193,163,255)" stroke-width="1" opacity="0.5019607843137255" d="M 68.5 272 Q 78.6 270.9 83 275.5 L 81.5 276 Q 77.7 271.8 68.5 273 L 68.5 272 Z " /><path fill="rgb(193,163,255)" stroke="rgb(193,163,255)" stroke-width="1" opacity="0.5019607843137255" d="M 65.5 273 L 67 273.5 L 59 278.5 L 57.5 281 L 58 279.5 L 61.5 275 L 65.5 273 Z " /><path fill="rgb(193,163,255)" stroke="rgb(193,163,255)" stroke-width="1" opacity="0.5019607843137255" d="M 84.5 276 L 90 278.5 L 88.5 279 L 84.5 277 L 84.5 276 Z " /><path fill="rgb(193,163,255)" stroke="rgb(193,163,255)" stroke-width="1" opacity="0.5019607843137255" d="M 93.5 280 L 97 281.5 L 95.5 282 L 93.5 280 Z " /><path fill="rgb(193,163,255)" stroke="rgb(193,163,255)" stroke-width="1" opacity="0.5019607843137255" d="M 179.5 281 L 178.5 283 L 176.5 284 L 177.5 282 L 179.5 281 Z " /><path fill="rgb(193,163,255)" stroke="rgb(193,163,255)" stroke-width="1" opacity="0.5019607843137255" d="M 98.5 282 L 104 284.5 L 102.5 285 L 98.5 283 L 98.5 282 Z " /><path fill="rgb(193,163,255)" stroke="rgb(193,163,255)" stroke-width="1" opacity="0.5019607843137255" d="M 55.5 285 L 56 291.5 L 55 291.5 L 55.5 285 Z " /><path fill="rgb(193,163,255)" stroke="rgb(193,163,255)" stroke-width="1" opacity="0.5019607843137255" d="M 105.5 285 L 111 287.5 L 109.5 288 L 105.5 286 L 105.5 285 Z " /><path fill="rgb(193,163,255)" stroke="rgb(193,163,255)" stroke-width="1" opacity="0.5019607843137255" d="M 170.5 286 L 172 286.5 L 167.5 289 L 168.5 287 L 170.5 286 Z " /><path fill="rgb(193,163,255)" stroke="rgb(193,163,255)" stroke-width="1" opacity="0.5019607843137255" d="M 112.5 288 L 118 290.5 L 116.5 291 L 112.5 289 L 112.5 288 Z " /><path fill="rgb(193,163,255)" stroke="rgb(193,163,255)" stroke-width="1" opacity="0.5019607843137255" d="M 165.5 289 L 164.5 291 L 160.5 293 L 161.5 291 L 165.5 289 Z " /><path fill="rgb(193,163,255)" stroke="rgb(193,163,255)" stroke-width="1" opacity="0.5019607843137255" d="M 119.5 291 L 125 293.5 L 123.5 294 L 119.5 292 L 119.5 291 Z " /><path fill="rgb(193,163,255)" stroke="rgb(193,163,255)" stroke-width="1" opacity="0.5019607843137255" d="M 158.5 293 L 157.5 295 L 152.5 298 L 154.5 295 L 158.5 293 Z " /><path fill="rgb(193,163,255)" stroke="rgb(193,163,255)" stroke-width="1" opacity="0.5019607843137255" d="M 128.5 295 L 132 296.5 L 130.5 297 L 128.5 295 Z " /><path fill="rgb(193,163,255)" stroke="rgb(193,163,255)" stroke-width="1" opacity="0.5019607843137255" d="M 57.5 296 L 61.5 301 L 66 303.5 L 64.5 304 L 58 298.5 L 57.5 296 Z " /><path fill="rgb(193,163,255)" stroke="rgb(193,163,255)" stroke-width="1" opacity="0.5019607843137255" d="M 133.5 297 L 139 299.5 L 137.5 300 L 133.5 298 L 133.5 297 Z " /><path fill="rgb(193,163,255)" stroke="rgb(193,163,255)" stroke-width="1" opacity="0.5019607843137255" d="M 149.5 298 L 151 298.5 L 148.5 300 L 149.5 298 Z " /><path fill="rgb(193,163,255)" stroke="rgb(193,163,255)" stroke-width="1" opacity="0.5019607843137255" d="M 140.5 300 L 145.5 301 L 147 300.5 Q 146.3 302.8 142.5 302 L 140.5 300 Z " /><path fill="rgb(193,163,255)" stroke="rgb(193,163,255)" stroke-width="1" opacity="0.5019607843137255" d="M 67.5 304 L 71 305.5 L 69.5 306 L 67.5 304 Z " /><path fill="rgb(193,163,255)" stroke="rgb(193,163,255)" stroke-width="1" opacity="0.5019607843137255" d="M 74.5 307 L 80 309.5 L 78.5 310 L 74.5 308 L 74.5 307 Z " /><path fill="rgb(193,163,255)" stroke="rgb(193,163,255)" stroke-width="1" opacity="0.5019607843137255" d="M 81.5 310 L 104 319.5 L 102.5 320 L 81.5 311 L 81.5 310 Z " /><path fill="rgb(193,163,255)" stroke="rgb(193,163,255)" stroke-width="1" opacity="0.5019607843137255" d="M 105.5 320 L 109 321 L 107.5 324 L 89.5 334 L 90.5 332 L 108 322.5 L 105.5 320 Z " /><path fill="rgb(193,163,255)" stroke="rgb(193,163,255)" stroke-width="1" opacity="0.5019607843137255" d="M 87.5 334 L 86.5 336 L 69.5 345 L 63 350.5 L 60.5 357 L 60 354.5 L 66.5 346 L 87.5 334 Z " /><path fill="rgb(193,163,255)" stroke="rgb(193,163,255)" stroke-width="1" opacity="0.5019607843137255" d="M 59.5 358 L 60 361.5 L 59 361.5 L 59.5 358 Z " /><path fill="rgb(193,163,255)" stroke="rgb(193,163,255)" stroke-width="1" opacity="0.5019607843137255" d="M 60.5 363 Q 61.7 369.8 66.5 373 L 74 375.5 L 70.5 376 L 62 369.5 Q 59 367 60.5 363 Z " /><path fill="rgb(193,163,255)" stroke="rgb(193,163,255)" stroke-width="1" opacity="0.5019607843137255" d="M 101.5 363 L 100.5 365 L 101.5 363 Z " /><path fill="rgb(193,163,255)" stroke="rgb(193,163,255)" stroke-width="1" opacity="0.5019607843137255" d="M 94.5 367 L 93.5 369 L 94.5 367 Z " /><path fill="rgb(193,163,255)" stroke="rgb(193,163,255)" stroke-width="1" opacity="0.5019607843137255" d="M 91.5 369 L 90.5 371 L 88.5 372 L 89.5 370 L 91.5 369 Z " /><path fill="rgb(193,163,255)" stroke="rgb(193,163,255)" stroke-width="1" opacity="0.5019607843137255" d="M 86.5 372 L 85.5 374 L 82.5 375 L 82.5 374 L 86.5 372 Z " /><path fill="rgb(0,0,0)" stroke="rgb(0,0,0)" stroke-width="1" opacity="0" d="M 0 0 L 512 0 L 512 512 L 0 512 L 0 0 Z M 251 32 L 247 34 L 240 43 L 240 95 L 198 64 Q 187 62 183 66 L 176 75 Q 174 85 178 90 L 239 136 L 240 137 L 240 182 L 201 205 L 163 183 L 160 181 L 153 116 L 150 104 Q 146 98 140 96 Q 130 95 126 99 Q 121 103 119 110 L 120 126 L 123 143 L 123 150 L 124 151 L 124 159 L 125 160 L 125 161 L 82 136 Q 71 134 67 138 Q 60 142 59 151 Q 59 157 62 162 L 70 168 L 108 190 L 63 209 Q 57 213 55 221 Q 54 229 58 234 Q 62 238 69 240 L 79 239 L 143 211 L 146 211 L 183 233 L 184 234 L 184 279 L 146 301 L 140 300 L 76 272 Q 66 271 62 275 Q 57 279 55 286 Q 54 294 58 299 L 65 304 L 108 323 L 67 346 Q 60 350 59 359 Q 59 365 62 370 L 71 376 L 82 376 L 124 352 L 125 352 L 123 370 L 122 371 L 122 378 L 121 379 L 121 386 L 120 387 L 120 395 L 119 396 Q 118 405 122 410 Q 126 414 133 416 Q 141 417 146 413 Q 150 410 152 404 L 160 332 L 166 327 L 201 307 L 239 329 L 240 331 L 240 376 L 183 418 L 176 427 Q 174 437 178 442 L 187 448 Q 197 450 202 446 L 240 417 L 240 470 L 242 474 L 251 480 Q 261 482 266 478 L 272 470 L 273 417 L 315 448 Q 325 450 330 446 L 336 438 Q 338 427 334 423 L 274 376 L 272 376 L 272 331 L 312 307 L 350 329 L 352 332 L 359 397 L 362 409 Q 365 415 374 416 Q 382 417 387 413 Q 391 409 393 403 L 392 387 L 389 370 L 389 363 L 388 362 L 388 354 L 387 353 L 388 351 L 431 376 Q 441 378 446 374 Q 452 370 453 362 Q 453 355 450 351 L 443 344 L 404 323 L 450 303 Q 455 299 457 292 Q 458 283 454 279 Q 450 274 444 272 L 434 273 L 370 301 L 367 301 L 330 279 L 328 279 L 328 233 L 367 211 L 373 212 L 437 240 Q 446 241 451 237 Q 455 233 457 227 Q 458 218 454 214 L 448 208 L 404 190 L 446 166 Q 452 162 453 154 Q 453 147 450 143 L 442 136 L 431 136 L 389 160 L 387 161 L 389 143 L 390 142 L 390 135 L 391 134 L 391 127 L 392 126 L 392 118 L 393 117 Q 394 107 390 103 Q 386 98 380 96 Q 370 95 367 99 Q 362 102 360 109 L 352 181 L 347 185 L 312 205 L 274 183 L 272 182 L 272 136 L 330 94 L 336 86 Q 338 75 334 71 L 326 64 Q 315 62 311 66 L 273 95 L 272 43 L 270 39 Q 266 30 251 32 Z " /><path fill="rgb(0,0,0)" stroke="rgb(0,0,0)" stroke-width="1" opacity="0" d="M 254.5 212 L 261.5 214 L 295 233 L 295 278.5 L 293.5 279 L 261.5 298 L 254.5 300 L 217 279 L 217 233.5 L 218.5 233 L 254.5 212 Z " /><path fill="rgb(215,154,255)" stroke="rgb(215,154,255)" stroke-width="1" opacity="0.9529411764705882" d="M 253.5 32 Q 264.7 31.8 269 38.5 Q 273.1 42.9 272 52.5 L 240 83.5 L 240 45.5 Q 241.6 38.6 246.5 35 L 253.5 32 Z " /><path fill="rgb(215,154,255)" stroke="rgb(215,154,255)" stroke-width="1" opacity="0.9529411764705882" d="M 189.5 64 L 194.5 64 L 201.5 67 L 235 92.5 L 233.5 92 L 210.5 114 L 179 89.5 L 176 82.5 L 176 77.5 Q 177.6 70.5 182.5 67 L 189.5 64 Z " /><path fill="rgb(215,154,255)" stroke="rgb(215,154,255)" stroke-width="1" opacity="0.9529411764705882" d="M 237.5 94 L 238.5 96 L 237.5 94 Z " /><path fill="rgb(215,154,255)" stroke="rgb(215,154,255)" stroke-width="1" opacity="0.9529411764705882" d="M 131.5 97 Q 144.8 95.8 149 103.5 L 152 112.5 L 152 120.5 L 153 121.5 L 158 167.5 L 97 228.5 L 97.5 230 Q 96 227.5 94.5 231 L 75.5 239 L 67.5 239 L 59 233.5 Q 54.7 229.3 56 219.5 Q 57.5 213 62.5 210 L 103.5 193 L 109 189.5 L 69.5 167 L 62 160.5 Q 59 156.5 60 148.5 L 66.5 139 L 73.5 136 L 78.5 136 L 125.5 162 L 125 160.5 L 123 136.5 L 120 119.5 L 120 108.5 L 125.5 100 L 131.5 97 Z " /><path fill="rgb(215,154,255)" stroke="rgb(215,154,255)" stroke-width="1" opacity="0.9529411764705882" d="M 213.5 115 L 214.5 117 L 213.5 115 Z " /><path fill="rgb(215,154,255)" stroke="rgb(215,154,255)" stroke-width="1" opacity="0.9529411764705882" d="M 217.5 118 L 218.5 120 L 217.5 118 Z " /><path fill="rgb(215,154,255)" stroke="rgb(215,154,255)" stroke-width="1" opacity="0.9529411764705882" d="M 221.5 121 L 222.5 123 L 221.5 121 Z " /><path fill="rgb(215,154,255)" stroke="rgb(215,154,255)" stroke-width="1" opacity="0.9529411764705882" d="M 225.5 124 L 226.5 126 L 225.5 124 Z " /><path fill="rgb(215,154,255)" stroke="rgb(215,154,255)" stroke-width="1" opacity="0.9529411764705882" d="M 229.5 127 L 230.5 129 L 229.5 127 Z " /><path fill="rgb(215,154,255)" stroke="rgb(215,154,255)" stroke-width="1" opacity="0.9529411764705882" d="M 233.5 130 L 234.5 132 L 233.5 130 Z " /><path fill="rgb(215,154,255)" stroke="rgb(215,154,255)" stroke-width="1" opacity="0.9529411764705882" d="M 61.5 276 L 59.5 279 L 61.5 276 Z " /><path fill="rgb(215,154,255)" stroke="rgb(215,154,255)" stroke-width="1" opacity="0.9529411764705882" d="M 59.5 298 L 61.5 301 L 59.5 298 Z " /><path fill="rgb(195,162,255)" stroke="rgb(195,162,255)" stroke-width="1" opacity="0.996078431372549" d="M 271.5 53 L 272.5 96 L 310.5 67 L 317.5 64 L 322.5 64 Q 329.4 65.5 333 70.5 L 336 77.5 L 336 82.5 Q 334.4 89.5 329.5 93 L 272 135 L 272 182.5 L 273.5 184 L 277 186.5 L 248.5 215 L 216 233.5 L 216 247.5 L 185.5 278 L 185 233.5 L 183.5 232 L 149.5 212 Q 147.2 209.3 141.5 210 L 96.5 230 L 157.5 168 L 159 173.5 L 159 180.5 L 161.5 184 L 200.5 206 L 240 182.5 L 240 135.5 L 238.5 134 L 211 113.5 L 233.5 92 L 240 96 L 240 84.5 L 271.5 53 Z " /><path fill="rgb(195,162,255)" stroke="rgb(195,162,255)" stroke-width="1" opacity="0.996078431372549" d="M 68.5 273 L 77.5 274 L 137.5 300 L 145.5 302 L 182.5 280 L 97.5 366 L 81.5 375 L 74.5 376 Q 66.7 374.8 63 369.5 L 60 362.5 L 60 357.5 Q 61.5 350.6 66.5 347 L 109 322.5 Q 109.8 319.9 106.5 321 L 63.5 302 L 58 296.5 Q 55.1 292.9 56 285.5 Q 57.8 278.3 63.5 275 L 68.5 273 Z " /><path fill="rgb(176,170,255)" stroke="rgb(176,170,255)" stroke-width="1" opacity="0.48627450980392156" d="M 373.5 96 L 380 96.5 L 373.5 97 L 373.5 96 Z " /><path fill="rgb(176,170,255)" stroke="rgb(176,170,255)" stroke-width="1" opacity="0.48627450980392156" d="M 384.5 98 L 385.5 100 L 384.5 98 Z " /><path fill="rgb(176,170,255)" stroke="rgb(176,170,255)" stroke-width="1" opacity="0.48627450980392156" d="M 387.5 100 L 388.5 102 L 387.5 100 Z " /><path fill="rgb(176,170,255)" stroke="rgb(176,170,255)" stroke-width="1" opacity="0.48627450980392156" d="M 364.5 101 L 363.5 103 L 364.5 101 Z " /><path fill="rgb(176,170,255)" stroke="rgb(176,170,255)" stroke-width="1" opacity="0.48627450980392156" d="M 389.5 103 L 390.5 105 L 389.5 103 Z " /><path fill="rgb(176,170,255)" stroke="rgb(176,170,255)" stroke-width="1" opacity="0.48627450980392156" d="M 360.5 108 L 361 110.5 L 360 110.5 L 360.5 108 Z " /><path fill="rgb(176,170,255)" stroke="rgb(176,170,255)" stroke-width="1" opacity="0.48627450980392156" d="M 392.5 109 L 393 116.5 L 392 116.5 L 392.5 109 Z " /><path fill="rgb(176,170,255)" stroke="rgb(176,170,255)" stroke-width="1" opacity="0.48627450980392156" d="M 359.5 115 L 360 119.5 L 359 119.5 L 359.5 115 Z " /><path fill="rgb(176,170,255)" stroke="rgb(176,170,255)" stroke-width="1" opacity="0.48627450980392156" d="M 391.5 119 L 392 124.5 L 391 124.5 L 391.5 119 Z " /><path fill="rgb(176,170,255)" stroke="rgb(176,170,255)" stroke-width="1" opacity="0.48627450980392156" d="M 358.5 123 L 359 128.5 L 358 128.5 L 358.5 123 Z " /><path fill="rgb(176,170,255)" stroke="rgb(176,170,255)" stroke-width="1" opacity="0.48627450980392156" d="M 390.5 127 L 391 133.5 L 390 133.5 L 390.5 127 Z " /><path fill="rgb(176,170,255)" stroke="rgb(176,170,255)" stroke-width="1" opacity="0.48627450980392156" d="M 357.5 132 L 358 137.5 L 357 137.5 L 357.5 132 Z " /><path fill="rgb(176,170,255)" stroke="rgb(176,170,255)" stroke-width="1" opacity="0.48627450980392156" d="M 389.5 136 L 390 141.5 L 389 141.5 L 389.5 136 Z " /><path fill="rgb(176,170,255)" stroke="rgb(176,170,255)" stroke-width="1" opacity="0.48627450980392156" d="M 426.5 138 L 428 138.5 L 425.5 140 L 426.5 138 Z " /><path fill="rgb(176,170,255)" stroke="rgb(176,170,255)" stroke-width="1" opacity="0.48627450980392156" d="M 356.5 140 L 357 145.5 L 356 145.5 L 356.5 140 Z " /><path fill="rgb(176,170,255)" stroke="rgb(176,170,255)" stroke-width="1" opacity="0.48627450980392156" d="M 421.5 141 L 420.5 143 L 418.5 144 L 419.5 142 L 421.5 141 Z " /><path fill="rgb(176,170,255)" stroke="rgb(176,170,255)" stroke-width="1" opacity="0.48627450980392156" d="M 388.5 144 L 389 149.5 L 388 149.5 L 388.5 144 Z " /><path fill="rgb(176,170,255)" stroke="rgb(176,170,255)" stroke-width="1" opacity="0.48627450980392156" d="M 412.5 146 L 414 146.5 L 406.5 151 L 407.5 149 L 412.5 146 Z " /><path fill="rgb(176,170,255)" stroke="rgb(176,170,255)" stroke-width="1" opacity="0.48627450980392156" d="M 355.5 149 L 356 153.5 L 355 153.5 L 355.5 149 Z " /><path fill="rgb(176,170,255)" stroke="rgb(176,170,255)" stroke-width="1" opacity="0.48627450980392156" d="M 404.5 151 L 403.5 153 L 404.5 151 Z " /><path fill="rgb(176,170,255)" stroke="rgb(176,170,255)" stroke-width="1" opacity="0.48627450980392156" d="M 387.5 152 L 388 157.5 L 387 157.5 L 387.5 152 Z " /><path fill="rgb(176,170,255)" stroke="rgb(176,170,255)" stroke-width="1" opacity="0.48627450980392156" d="M 397.5 155 L 396.5 157 L 394.5 158 L 395.5 156 L 397.5 155 Z " /><path fill="rgb(176,170,255)" stroke="rgb(176,170,255)" stroke-width="1" opacity="0.48627450980392156" d="M 354.5 156 L 355 162.5 L 354 162.5 L 354.5 156 Z " /><path fill="rgb(176,170,255)" stroke="rgb(176,170,255)" stroke-width="1" opacity="0.48627450980392156" d="M 392.5 158 L 391.5 160 L 386.5 162 L 386.5 161 L 392.5 158 Z " /><path fill="rgb(176,170,255)" stroke="rgb(176,170,255)" stroke-width="1" opacity="0.48627450980392156" d="M 353.5 165 L 354 170.5 L 353 170.5 L 353.5 165 Z " /><path fill="rgb(176,170,255)" stroke="rgb(176,170,255)" stroke-width="1" opacity="0.48627450980392156" d="M 352.5 173 L 353 178.5 L 352 178.5 L 352.5 173 Z " /><path fill="rgb(176,170,255)" stroke="rgb(176,170,255)" stroke-width="1" opacity="0.48627450980392156" d="M 350.5 182 L 352 182.5 L 349.5 184 L 350.5 182 Z " /><path fill="rgb(176,170,255)" stroke="rgb(176,170,255)" stroke-width="1" opacity="0.48627450980392156" d="M 347.5 184 L 346.5 186 L 342.5 188 L 343.5 186 L 347.5 184 Z " /><path fill="rgb(176,170,255)" stroke="rgb(176,170,255)" stroke-width="1" opacity="0.48627450980392156" d="M 340.5 188 L 339.5 190 L 337.5 191 L 338.5 189 L 340.5 188 Z " /><path fill="rgb(176,170,255)" stroke="rgb(176,170,255)" stroke-width="1" opacity="0.48627450980392156" d="M 284.5 189 L 300 198.5 L 298.5 198 L 285.5 191 L 284.5 189 Z " /><path fill="rgb(176,170,255)" stroke="rgb(176,170,255)" stroke-width="1" opacity="0.48627450980392156" d="M 333.5 192 L 332.5 194 L 328.5 196 L 329.5 194 L 333.5 192 Z " /><path fill="rgb(176,170,255)" stroke="rgb(176,170,255)" stroke-width="1" opacity="0.48627450980392156" d="M 326.5 196 L 325.5 198 L 323.5 199 L 324.5 197 L 326.5 196 Z " /><path fill="rgb(176,170,255)" stroke="rgb(176,170,255)" stroke-width="1" opacity="0.48627450980392156" d="M 301.5 199 L 305 201.5 L 303.5 201 L 301.5 199 Z " /><path fill="rgb(176,170,255)" stroke="rgb(176,170,255)" stroke-width="1" opacity="0.48627450980392156" d="M 321.5 199 L 320.5 201 L 316.5 203 L 317.5 201 L 321.5 199 Z " /><path fill="rgb(176,170,255)" stroke="rgb(176,170,255)" stroke-width="1" opacity="0.48627450980392156" d="M 308.5 203 L 311.5 205 L 314.5 203 L 313.5 205 L 311.5 206 L 308.5 203 Z " /><path fill="rgb(176,170,255)" stroke="rgb(176,170,255)" stroke-width="1" opacity="0.48627450980392156" d="M 254.5 211 L 253.5 213 L 254.5 211 Z " /><path fill="rgb(176,170,255)" stroke="rgb(176,170,255)" stroke-width="1" opacity="0.48627450980392156" d="M 257.5 211 L 258.5 213 L 257.5 211 Z " /><path fill="rgb(176,170,255)" stroke="rgb(176,170,255)" stroke-width="1" opacity="0.48627450980392156" d="M 365.5 211 L 364.5 213 L 363 212.5 L 365.5 211 Z " /><path fill="rgb(176,170,255)" stroke="rgb(176,170,255)" stroke-width="1" opacity="0.48627450980392156" d="M 358.5 215 L 357.5 217 L 358.5 215 Z " /><path fill="rgb(176,170,255)" stroke="rgb(176,170,255)" stroke-width="1" opacity="0.48627450980392156" d="M 267.5 217 L 270 218.5 L 268.5 218 L 267.5 217 Z " /><path fill="rgb(176,170,255)" stroke="rgb(176,170,255)" stroke-width="1" opacity="0.48627450980392156" d="M 271.5 219 L 282 225.5 L 280.5 225 L 272.5 221 L 271.5 219 Z " /><path fill="rgb(176,170,255)" stroke="rgb(176,170,255)" stroke-width="1" opacity="0.48627450980392156" d="M 351.5 219 L 350.5 221 L 349 220.5 L 351.5 219 Z " /><path fill="rgb(176,170,255)" stroke="rgb(176,170,255)" stroke-width="1" opacity="0.48627450980392156" d="M 283.5 226 L 289 229.5 L 287.5 229 Q 283.5 228.5 283.5 226 Z " /><path fill="rgb(176,170,255)" stroke="rgb(176,170,255)" stroke-width="1" opacity="0.48627450980392156" d="M 290.5 230 L 296 233.5 L 295.5 262 L 295 233 Q 290.7 232.8 290.5 230 Z " /><path fill="rgb(176,170,255)" stroke="rgb(176,170,255)" stroke-width="1" opacity="0.48627450980392156" d="M 332.5 230 L 331.5 232 L 330 231.5 L 332.5 230 Z " /><path fill="rgb(176,170,255)" stroke="rgb(176,170,255)" stroke-width="1" opacity="0.48627450980392156" d="M 327.5 233 L 328 247.5 L 327 247.5 L 327.5 233 Z " /><path fill="rgb(176,170,255)" stroke="rgb(176,170,255)" stroke-width="1" opacity="0.48627450980392156" d="M 216.5 257 L 217 279 L 229 285.5 L 227.5 285 L 216 278.5 L 216.5 257 Z " /><path fill="rgb(176,170,255)" stroke="rgb(176,170,255)" stroke-width="1" opacity="0.48627450980392156" d="M 286.5 283 L 285.5 285 L 283.5 286 L 284.5 284 L 286.5 283 Z " /><path fill="rgb(176,170,255)" stroke="rgb(176,170,255)" stroke-width="1" opacity="0.48627450980392156" d="M 230.5 286 L 255 300.5 L 253.5 300 L 231.5 288 L 230.5 286 Z " /><path fill="rgb(176,170,255)" stroke="rgb(176,170,255)" stroke-width="1" opacity="0.48627450980392156" d="M 277.5 288 L 279 288.5 L 276.5 290 L 277.5 288 Z " /><path fill="rgb(176,170,255)" stroke="rgb(176,170,255)" stroke-width="1" opacity="0.48627450980392156" d="M 272.5 291 L 271.5 293 L 272.5 291 Z " /><path fill="rgb(176,170,255)" stroke="rgb(176,170,255)" stroke-width="1" opacity="0.48627450980392156" d="M 267.5 294 L 266.5 296 L 267.5 294 Z " /><path fill="rgb(176,170,255)" stroke="rgb(176,170,255)" stroke-width="1" opacity="0.48627450980392156" d="M 258.5 299 L 260 299.5 L 257.5 301 L 258.5 299 Z " /><path fill="rgb(176,170,255)" stroke="rgb(176,170,255)" stroke-width="1" opacity="0.48627450980392156" d="M 200.5 306 L 211 312.5 L 209.5 312 L 200.5 307 L 197.5 309 L 198.5 307 L 200.5 306 Z " /><path fill="rgb(176,170,255)" stroke="rgb(176,170,255)" stroke-width="1" opacity="0.48627450980392156" d="M 195.5 309 L 194.5 311 L 185.5 316 L 186.5 314 L 195.5 309 Z " /><path fill="rgb(176,170,255)" stroke="rgb(176,170,255)" stroke-width="1" opacity="0.48627450980392156" d="M 212.5 313 L 218 316.5 L 216.5 316 Q 212.5 315.5 212.5 313 Z " /><path fill="rgb(176,170,255)" stroke="rgb(176,170,255)" stroke-width="1" opacity="0.48627450980392156" d="M 183.5 316 L 182.5 318 L 171.5 324 L 172.5 322 L 183.5 316 Z " /><path fill="rgb(176,170,255)" stroke="rgb(176,170,255)" stroke-width="1" opacity="0.48627450980392156" d="M 219.5 317 L 225 320.5 L 223.5 320 Q 219.5 319.5 219.5 317 Z " /><path fill="rgb(176,170,255)" stroke="rgb(176,170,255)" stroke-width="1" opacity="0.48627450980392156" d="M 226.5 321 L 235 326.5 L 233.5 326 L 227.5 323 L 226.5 321 Z " /><path fill="rgb(176,170,255)" stroke="rgb(176,170,255)" stroke-width="1" opacity="0.48627450980392156" d="M 169.5 324 L 168.5 326 L 160.5 330 L 160.5 329 L 169.5 324 Z " /><path fill="rgb(176,170,255)" stroke="rgb(176,170,255)" stroke-width="1" opacity="0.48627450980392156" d="M 159.5 333 L 160 337.5 L 159 337.5 L 159.5 333 Z " /><path fill="rgb(176,170,255)" stroke="rgb(176,170,255)" stroke-width="1" opacity="0.48627450980392156" d="M 158.5 341 L 159 346.5 L 158 346.5 L 158.5 341 Z " /><path fill="rgb(176,170,255)" stroke="rgb(176,170,255)" stroke-width="1" opacity="0.48627450980392156" d="M 157.5 349 L 158 355.5 L 157 355.5 L 157.5 349 Z " /><path fill="rgb(176,170,255)" stroke="rgb(176,170,255)" stroke-width="1" opacity="0.48627450980392156" d="M 119.5 353 L 118.5 355 L 116.5 356 L 117.5 354 L 119.5 353 Z " /><path fill="rgb(176,170,255)" stroke="rgb(176,170,255)" stroke-width="1" opacity="0.48627450980392156" d="M 124.5 353 L 125 359.5 L 124 359.5 L 124.5 353 Z " /><path fill="rgb(176,170,255)" stroke="rgb(176,170,255)" stroke-width="1" opacity="0.48627450980392156" d="M 110.5 358 L 109.5 360 L 110.5 358 Z " /><path fill="rgb(176,170,255)" stroke="rgb(176,170,255)" stroke-width="1" opacity="0.48627450980392156" d="M 156.5 358 L 157 362.5 L 156 362.5 L 156.5 358 Z " /><path fill="rgb(176,170,255)" stroke="rgb(176,170,255)" stroke-width="1" opacity="0.48627450980392156" d="M 105.5 361 L 104.5 363 L 105.5 361 Z " /><path fill="rgb(176,170,255)" stroke="rgb(176,170,255)" stroke-width="1" opacity="0.48627450980392156" d="M 123.5 362 L 124 367.5 L 123 367.5 L 123.5 362 Z " /><path fill="rgb(176,170,255)" stroke="rgb(176,170,255)" stroke-width="1" opacity="0.48627450980392156" d="M 98.5 365 L 100 365.5 L 97.5 367 L 98.5 365 Z " /><path fill="rgb(176,170,255)" stroke="rgb(176,170,255)" stroke-width="1" opacity="0.48627450980392156" d="M 155.5 366 L 156 371.5 L 155 371.5 L 155.5 366 Z " /><path fill="rgb(176,170,255)" stroke="rgb(176,170,255)" stroke-width="1" opacity="0.48627450980392156" d="M 122.5 371 L 123 375.5 L 122 375.5 L 122.5 371 Z " /><path fill="rgb(176,170,255)" stroke="rgb(176,170,255)" stroke-width="1" opacity="0.48627450980392156" d="M 154.5 374 L 155 379.5 L 154 379.5 L 154.5 374 Z " /><path fill="rgb(176,170,255)" stroke="rgb(176,170,255)" stroke-width="1" opacity="0.48627450980392156" d="M 121.5 378 L 122 384.5 L 121 384.5 L 121.5 378 Z " /><path fill="rgb(176,170,255)" stroke="rgb(176,170,255)" stroke-width="1" opacity="0.48627450980392156" d="M 153.5 382 L 154 388.5 L 153 388.5 L 153.5 382 Z " /><path fill="rgb(176,170,255)" stroke="rgb(176,170,255)" stroke-width="1" opacity="0.48627450980392156" d="M 120.5 387 L 121 392.5 L 120 392.5 L 120.5 387 Z " /><path fill="rgb(176,170,255)" stroke="rgb(176,170,255)" stroke-width="1" opacity="0.48627450980392156" d="M 152.5 391 L 153 396.5 L 152 396.5 L 152.5 391 Z " /><path fill="rgb(176,170,255)" stroke="rgb(176,170,255)" stroke-width="1" opacity="0.48627450980392156" d="M 119.5 395 L 120 402.5 L 119 402.5 L 119.5 395 Z " /><path fill="rgb(176,170,255)" stroke="rgb(176,170,255)" stroke-width="1" opacity="0.48627450980392156" d="M 151.5 399 L 152 403.5 L 151 403.5 L 151.5 399 Z " /><path fill="rgb(176,170,255)" stroke="rgb(176,170,255)" stroke-width="1" opacity="0.48627450980392156" d="M 150.5 405 L 151 406.5 L 145.5 413 L 143.5 414 L 144.5 412 L 148 409.5 L 150.5 405 Z " /><path fill="rgb(176,170,255)" stroke="rgb(176,170,255)" stroke-width="1" opacity="0.48627450980392156" d="M 121.5 407 L 122.5 409 L 121.5 407 Z " /><path fill="rgb(176,170,255)" stroke="rgb(176,170,255)" stroke-width="1" opacity="0.48627450980392156" d="M 123.5 410 L 124.5 412 L 123.5 410 Z " /><path fill="rgb(176,170,255)" stroke="rgb(176,170,255)" stroke-width="1" opacity="0.48627450980392156" d="M 126.5 412 L 127.5 414 L 126.5 412 Z " /><path fill="rgb(176,170,255)" stroke="rgb(176,170,255)" stroke-width="1" opacity="0.48627450980392156" d="M 132.5 415 L 139 415.5 L 132.5 416 L 132.5 415 Z " /><path fill="rgb(177,170,255)" stroke="rgb(177,170,255)" stroke-width="1" opacity="0.996078431372549" d="M 372.5 97 L 380.5 97 L 389 102.5 Q 393.7 107.3 392 118.5 L 391 119.5 L 390 135.5 L 387 152.5 L 387 160.5 L 386 161.5 L 387.5 162 L 430.5 137 L 377 191.5 L 352 217.5 L 352.5 219 L 351 218.5 Q 351.8 220.8 349.5 220 L 327 233.5 L 327 242.5 L 296.5 273 L 296 233.5 L 294.5 232 L 261.5 213 L 254.5 211 L 251.5 213 L 277.5 186 L 311.5 206 L 352 183 L 361 107.5 L 366.5 100 L 372.5 97 Z " /><path fill="rgb(177,170,255)" stroke="rgb(177,170,255)" stroke-width="1" opacity="0.996078431372549" d="M 215.5 248 L 216 278.5 L 217.5 280 L 250.5 299 L 257.5 301 L 282.5 286 L 240.5 329 L 200.5 306 L 160 329 L 151 404.5 L 145.5 412 Q 141.3 416.3 131.5 415 L 123 409.5 Q 118.3 404.7 120 393.5 L 121 392.5 L 122 376.5 L 123 375.5 L 125 351.5 L 126 350.5 L 124.5 350 L 99.5 365 L 215.5 248 Z " /><path fill="rgb(160,177,255)" stroke="rgb(160,177,255)" stroke-width="1" opacity="0.5098039215686274" d="M 430.5 136 L 429.5 138 L 428 137.5 L 430.5 136 Z " /><path fill="rgb(160,177,255)" stroke="rgb(160,177,255)" stroke-width="1" opacity="0.5098039215686274" d="M 438.5 136 Q 446.8 136.8 450 142.5 L 449.5 144 L 445.5 139 L 438.5 137 L 438.5 136 Z " /><path fill="rgb(160,177,255)" stroke="rgb(160,177,255)" stroke-width="1" opacity="0.5098039215686274" d="M 452.5 150 L 453 153.5 L 452 153.5 L 452.5 150 Z " /><path fill="rgb(160,177,255)" stroke="rgb(160,177,255)" stroke-width="1" opacity="0.5098039215686274" d="M 451.5 155 L 452 157.5 L 445.5 166 L 436.5 171 L 437.5 169 Q 444.9 166.9 449 161.5 L 451.5 155 Z " /><path fill="rgb(160,177,255)" stroke="rgb(160,177,255)" stroke-width="1" opacity="0.5098039215686274" d="M 434.5 171 L 433.5 173 L 424.5 178 L 425.5 176 L 434.5 171 Z " /><path fill="rgb(160,177,255)" stroke="rgb(160,177,255)" stroke-width="1" opacity="0.5098039215686274" d="M 420.5 179 L 419.5 181 L 415.5 183 L 415.5 182 L 420.5 179 Z " /><path fill="rgb(160,177,255)" stroke="rgb(160,177,255)" stroke-width="1" opacity="0.5098039215686274" d="M 413.5 183 L 412.5 185 L 410.5 186 L 411.5 184 L 413.5 183 Z " /><path fill="rgb(160,177,255)" stroke="rgb(160,177,255)" stroke-width="1" opacity="0.5098039215686274" d="M 406.5 187 L 405.5 189 L 404 189.5 L 404.5 191 Q 401.5 189.5 404.5 188 L 406.5 187 Z " /><path fill="rgb(160,177,255)" stroke="rgb(160,177,255)" stroke-width="1" opacity="0.5098039215686274" d="M 406.5 191 L 410 192.5 L 408.5 193 L 406.5 191 Z " /><path fill="rgb(160,177,255)" stroke="rgb(160,177,255)" stroke-width="1" opacity="0.5098039215686274" d="M 411.5 193 L 417 195.5 L 415.5 196 L 411.5 194 L 411.5 193 Z " /><path fill="rgb(160,177,255)" stroke="rgb(160,177,255)" stroke-width="1" opacity="0.5098039215686274" d="M 418.5 196 L 424 198.5 L 422.5 199 L 418.5 197 L 418.5 196 Z " /><path fill="rgb(160,177,255)" stroke="rgb(160,177,255)" stroke-width="1" opacity="0.5098039215686274" d="M 425.5 199 L 431 201.5 L 429.5 202 L 425.5 200 L 425.5 199 Z " /><path fill="rgb(160,177,255)" stroke="rgb(160,177,255)" stroke-width="1" opacity="0.5098039215686274" d="M 434.5 203 L 438 204.5 L 436.5 205 L 434.5 203 Z " /><path fill="rgb(160,177,255)" stroke="rgb(160,177,255)" stroke-width="1" opacity="0.5098039215686274" d="M 439.5 205 L 445 207.5 L 443.5 208 L 439.5 206 L 439.5 205 Z " /><path fill="rgb(160,177,255)" stroke="rgb(160,177,255)" stroke-width="1" opacity="0.5098039215686274" d="M 448.5 209 L 454 213.5 L 455 215.5 L 453 214.5 L 450.5 211 L 448.5 209 Z " /><path fill="rgb(160,177,255)" stroke="rgb(160,177,255)" stroke-width="1" opacity="0.5098039215686274" d="M 369.5 210 L 370.5 212 L 369.5 210 Z " /><path fill="rgb(160,177,255)" stroke="rgb(160,177,255)" stroke-width="1" opacity="0.5098039215686274" d="M 373.5 212 L 379 214.5 L 377.5 215 L 373.5 213 L 373.5 212 Z " /><path fill="rgb(160,177,255)" stroke="rgb(160,177,255)" stroke-width="1" opacity="0.5098039215686274" d="M 380.5 215 L 386 217.5 L 384.5 218 L 380.5 216 L 380.5 215 Z " /><path fill="rgb(160,177,255)" stroke="rgb(160,177,255)" stroke-width="1" opacity="0.5098039215686274" d="M 356.5 216 L 355.5 218 L 353.5 219 L 354.5 217 L 356.5 216 Z " /><path fill="rgb(160,177,255)" stroke="rgb(160,177,255)" stroke-width="1" opacity="0.5098039215686274" d="M 387.5 218 L 391 219.5 L 389.5 220 L 387.5 218 Z " /><path fill="rgb(160,177,255)" stroke="rgb(160,177,255)" stroke-width="1" opacity="0.5098039215686274" d="M 456.5 220 L 457 226.5 L 456 226.5 L 456.5 220 Z " /><path fill="rgb(160,177,255)" stroke="rgb(160,177,255)" stroke-width="1" opacity="0.5098039215686274" d="M 394.5 221 L 400 223.5 L 398.5 224 L 394.5 222 L 394.5 221 Z " /><path fill="rgb(160,177,255)" stroke="rgb(160,177,255)" stroke-width="1" opacity="0.5098039215686274" d="M 401.5 224 L 407 226.5 L 405.5 227 L 401.5 225 L 401.5 224 Z " /><path fill="rgb(160,177,255)" stroke="rgb(160,177,255)" stroke-width="1" opacity="0.5098039215686274" d="M 408.5 227 L 414 229.5 L 412.5 230 L 408.5 228 L 408.5 227 Z " /><path fill="rgb(160,177,255)" stroke="rgb(160,177,255)" stroke-width="1" opacity="0.5098039215686274" d="M 415.5 230 L 419 231.5 L 417.5 232 L 415.5 230 Z " /><path fill="rgb(160,177,255)" stroke="rgb(160,177,255)" stroke-width="1" opacity="0.5098039215686274" d="M 454.5 231 L 454 232.5 L 451.5 236 L 453 233.5 L 454.5 231 Z " /><path fill="rgb(160,177,255)" stroke="rgb(160,177,255)" stroke-width="1" opacity="0.5098039215686274" d="M 420.5 232 L 426 234.5 L 424.5 235 L 420.5 233 L 420.5 232 Z " /><path fill="rgb(160,177,255)" stroke="rgb(160,177,255)" stroke-width="1" opacity="0.5098039215686274" d="M 427.5 235 L 436 238.5 L 433.5 239 L 427.5 236 L 427.5 235 Z " /><path fill="rgb(160,177,255)" stroke="rgb(160,177,255)" stroke-width="1" opacity="0.5098039215686274" d="M 449.5 236 L 448.5 238 L 449.5 236 Z " /><path fill="rgb(160,177,255)" stroke="rgb(160,177,255)" stroke-width="1" opacity="0.5098039215686274" d="M 437.5 239 L 444 239.5 L 437.5 240 L 437.5 239 Z " /><path fill="rgb(160,177,255)" stroke="rgb(160,177,255)" stroke-width="1" opacity="0.5098039215686274" d="M 327.5 248 L 328 279 L 331 280.5 L 329.5 280 L 327 278.5 L 327.5 248 Z " /><path fill="rgb(160,177,255)" stroke="rgb(160,177,255)" stroke-width="1" opacity="0.5098039215686274" d="M 295.5 262 L 296 278.5 L 294 279.5 L 295 278.5 L 295.5 262 Z " /><path fill="rgb(160,177,255)" stroke="rgb(160,177,255)" stroke-width="1" opacity="0.5098039215686274" d="M 436.5 272 L 444 272.5 L 436.5 273 L 422.5 279 L 422.5 278 L 436.5 272 Z " /><path fill="rgb(160,177,255)" stroke="rgb(160,177,255)" stroke-width="1" opacity="0.5098039215686274" d="M 448.5 274 L 454 278.5 L 455 280.5 L 453 279.5 L 450.5 276 L 448.5 274 Z " /><path fill="rgb(160,177,255)" stroke="rgb(160,177,255)" stroke-width="1" opacity="0.5098039215686274" d="M 417.5 280 L 419 280.5 L 415.5 282 L 415.5 281 L 417.5 280 Z " /><path fill="rgb(160,177,255)" stroke="rgb(160,177,255)" stroke-width="1" opacity="0.5098039215686274" d="M 332.5 281 L 338 284.5 L 336.5 284 Q 332.5 283.5 332.5 281 Z " /><path fill="rgb(160,177,255)" stroke="rgb(160,177,255)" stroke-width="1" opacity="0.5098039215686274" d="M 412.5 282 L 414 282.5 L 408.5 285 L 408.5 284 L 412.5 282 Z " /><path fill="rgb(160,177,255)" stroke="rgb(160,177,255)" stroke-width="1" opacity="0.5098039215686274" d="M 339.5 285 L 350 291.5 L 348.5 291 L 340.5 287 L 339.5 285 Z " /><path fill="rgb(160,177,255)" stroke="rgb(160,177,255)" stroke-width="1" opacity="0.5098039215686274" d="M 405.5 285 L 407 285.5 L 401.5 288 L 401.5 287 L 405.5 285 Z " /><path fill="rgb(160,177,255)" stroke="rgb(160,177,255)" stroke-width="1" opacity="0.5098039215686274" d="M 456.5 285 L 457 291.5 L 456 291.5 L 456.5 285 Z " /><path fill="rgb(160,177,255)" stroke="rgb(160,177,255)" stroke-width="1" opacity="0.5098039215686274" d="M 398.5 288 L 400 288.5 L 394.5 291 L 394.5 290 L 398.5 288 Z " /><path fill="rgb(160,177,255)" stroke="rgb(160,177,255)" stroke-width="1" opacity="0.5098039215686274" d="M 389.5 292 L 391 292.5 L 387.5 294 L 387.5 293 L 389.5 292 Z " /><path fill="rgb(160,177,255)" stroke="rgb(160,177,255)" stroke-width="1" opacity="0.5098039215686274" d="M 353.5 293 L 364 299.5 L 362.5 299 L 354.5 295 L 353.5 293 Z " /><path fill="rgb(160,177,255)" stroke="rgb(160,177,255)" stroke-width="1" opacity="0.5098039215686274" d="M 384.5 294 L 386 294.5 L 380.5 297 L 380.5 296 L 384.5 294 Z " /><path fill="rgb(160,177,255)" stroke="rgb(160,177,255)" stroke-width="1" opacity="0.5098039215686274" d="M 454.5 296 L 454 297.5 L 450.5 302 L 453 298.5 L 454.5 296 Z " /><path fill="rgb(160,177,255)" stroke="rgb(160,177,255)" stroke-width="1" opacity="0.5098039215686274" d="M 377.5 297 L 379 297.5 L 373.5 300 L 373.5 299 L 377.5 297 Z " /><path fill="rgb(160,177,255)" stroke="rgb(160,177,255)" stroke-width="1" opacity="0.5098039215686274" d="M 365.5 300 L 369.5 301 L 371.5 300 L 371.5 301 L 366.5 302 L 365.5 300 Z " /><path fill="rgb(160,177,255)" stroke="rgb(160,177,255)" stroke-width="1" opacity="0.5098039215686274" d="M 448.5 302 L 447.5 304 L 446 303.5 L 448.5 302 Z " /><path fill="rgb(160,177,255)" stroke="rgb(160,177,255)" stroke-width="1" opacity="0.5098039215686274" d="M 441.5 305 L 443 305.5 L 439.5 307 L 439.5 306 L 441.5 305 Z " /><path fill="rgb(160,177,255)" stroke="rgb(160,177,255)" stroke-width="1" opacity="0.5098039215686274" d="M 311.5 306 L 327 315.5 L 325.5 315 L 311.5 307 L 294.5 317 L 295.5 315 L 311.5 306 Z " /><path fill="rgb(160,177,255)" stroke="rgb(160,177,255)" stroke-width="1" opacity="0.5098039215686274" d="M 436.5 307 L 438 307.5 L 432.5 310 L 432.5 309 L 436.5 307 Z " /><path fill="rgb(160,177,255)" stroke="rgb(160,177,255)" stroke-width="1" opacity="0.5098039215686274" d="M 429.5 310 L 431 310.5 L 425.5 313 L 425.5 312 L 429.5 310 Z " /><path fill="rgb(160,177,255)" stroke="rgb(160,177,255)" stroke-width="1" opacity="0.5098039215686274" d="M 422.5 313 L 424 313.5 L 418.5 316 L 418.5 315 L 422.5 313 Z " /><path fill="rgb(160,177,255)" stroke="rgb(160,177,255)" stroke-width="1" opacity="0.5098039215686274" d="M 415.5 316 L 417 316.5 L 411.5 319 L 411.5 318 L 415.5 316 Z " /><path fill="rgb(160,177,255)" stroke="rgb(160,177,255)" stroke-width="1" opacity="0.5098039215686274" d="M 292.5 317 L 291.5 319 L 272.5 330 L 273.5 328 L 292.5 317 Z " /><path fill="rgb(160,177,255)" stroke="rgb(160,177,255)" stroke-width="1" opacity="0.5098039215686274" d="M 330.5 317 L 334 319.5 L 332.5 319 L 330.5 317 Z " /><path fill="rgb(160,177,255)" stroke="rgb(160,177,255)" stroke-width="1" opacity="0.5098039215686274" d="M 408.5 319 L 410 319.5 L 403.5 323 L 404.5 321 L 408.5 319 Z " /><path fill="rgb(160,177,255)" stroke="rgb(160,177,255)" stroke-width="1" opacity="0.5098039215686274" d="M 335.5 320 L 352 329 L 351.5 331 L 336.5 322 L 335.5 320 Z " /><path fill="rgb(160,177,255)" stroke="rgb(160,177,255)" stroke-width="1" opacity="0.5098039215686274" d="M 405.5 323 L 411 326.5 L 409.5 326 Q 405.5 325.5 405.5 323 Z " /><path fill="rgb(160,177,255)" stroke="rgb(160,177,255)" stroke-width="1" opacity="0.5098039215686274" d="M 412.5 327 L 418 330.5 L 416.5 330 Q 412.5 329.5 412.5 327 Z " /><path fill="rgb(160,177,255)" stroke="rgb(160,177,255)" stroke-width="1" opacity="0.5098039215686274" d="M 419.5 331 L 423 333.5 L 421.5 333 L 419.5 331 Z " /><path fill="rgb(160,177,255)" stroke="rgb(160,177,255)" stroke-width="1" opacity="0.5098039215686274" d="M 352.5 333 L 353 338.5 L 352 338.5 L 352.5 333 Z " /><path fill="rgb(160,177,255)" stroke="rgb(160,177,255)" stroke-width="1" opacity="0.5098039215686274" d="M 424.5 334 L 430 337.5 L 428.5 337 Q 424.5 336.5 424.5 334 Z " /><path fill="rgb(160,177,255)" stroke="rgb(160,177,255)" stroke-width="1" opacity="0.5098039215686274" d="M 431.5 338 L 437 341.5 L 435.5 341 Q 431.5 340.5 431.5 338 Z " /><path fill="rgb(160,177,255)" stroke="rgb(160,177,255)" stroke-width="1" opacity="0.5098039215686274" d="M 353.5 341 L 354 346.5 L 353 346.5 L 353.5 341 Z " /><path fill="rgb(160,177,255)" stroke="rgb(160,177,255)" stroke-width="1" opacity="0.5098039215686274" d="M 438.5 342 L 450 350.5 L 451 352.5 L 449 351.5 L 445.5 347 L 439.5 344 L 438.5 342 Z " /><path fill="rgb(160,177,255)" stroke="rgb(160,177,255)" stroke-width="1" opacity="0.5098039215686274" d="M 354.5 350 L 355 354.5 L 354 354.5 L 354.5 350 Z " /><path fill="rgb(160,177,255)" stroke="rgb(160,177,255)" stroke-width="1" opacity="0.5098039215686274" d="M 386.5 350 L 398 356.5 L 396.5 356 L 386.5 351 L 386.5 350 Z " /><path fill="rgb(160,177,255)" stroke="rgb(160,177,255)" stroke-width="1" opacity="0.5098039215686274" d="M 387.5 353 L 388 358.5 L 387 358.5 L 387.5 353 Z " /><path fill="rgb(160,177,255)" stroke="rgb(160,177,255)" stroke-width="1" opacity="0.5098039215686274" d="M 451.5 354 L 452 356.5 L 451 356.5 L 451.5 354 Z " /><path fill="rgb(160,177,255)" stroke="rgb(160,177,255)" stroke-width="1" opacity="0.5098039215686274" d="M 399.5 357 L 405 360.5 L 403.5 360 Q 399.5 359.5 399.5 357 Z " /><path fill="rgb(160,177,255)" stroke="rgb(160,177,255)" stroke-width="1" opacity="0.5098039215686274" d="M 355.5 358 L 356 363.5 L 355 363.5 L 355.5 358 Z " /><path fill="rgb(160,177,255)" stroke="rgb(160,177,255)" stroke-width="1" opacity="0.5098039215686274" d="M 452.5 358 L 453 361.5 L 452 361.5 L 452.5 358 Z " /><path fill="rgb(160,177,255)" stroke="rgb(160,177,255)" stroke-width="1" opacity="0.5098039215686274" d="M 406.5 361 L 412 364.5 L 410.5 364 Q 406.5 363.5 406.5 361 Z " /><path fill="rgb(160,177,255)" stroke="rgb(160,177,255)" stroke-width="1" opacity="0.5098039215686274" d="M 388.5 362 L 389 366.5 L 388 366.5 L 388.5 362 Z " /><path fill="rgb(160,177,255)" stroke="rgb(160,177,255)" stroke-width="1" opacity="0.5098039215686274" d="M 413.5 365 L 417 367.5 L 415.5 367 L 413.5 365 Z " /><path fill="rgb(160,177,255)" stroke="rgb(160,177,255)" stroke-width="1" opacity="0.5098039215686274" d="M 356.5 366 L 357 371.5 L 356 371.5 L 356.5 366 Z " /><path fill="rgb(160,177,255)" stroke="rgb(160,177,255)" stroke-width="1" opacity="0.5098039215686274" d="M 450.5 367 L 450 368.5 L 445.5 374 L 439.5 376 L 439.5 375 Q 446.1 374.1 449 369.5 L 450.5 367 Z " /><path fill="rgb(160,177,255)" stroke="rgb(160,177,255)" stroke-width="1" opacity="0.5098039215686274" d="M 418.5 368 L 424 371.5 L 422.5 371 Q 418.5 370.5 418.5 368 Z " /><path fill="rgb(160,177,255)" stroke="rgb(160,177,255)" stroke-width="1" opacity="0.5098039215686274" d="M 389.5 370 L 390 375.5 L 389 375.5 L 389.5 370 Z " /><path fill="rgb(160,177,255)" stroke="rgb(160,177,255)" stroke-width="1" opacity="0.5098039215686274" d="M 425.5 372 L 433 375.5 L 430.5 376 Q 425.9 374.8 425.5 372 Z " /><path fill="rgb(160,177,255)" stroke="rgb(160,177,255)" stroke-width="1" opacity="0.5098039215686274" d="M 357.5 375 L 358 380.5 L 357 380.5 L 357.5 375 Z " /><path fill="rgb(160,177,255)" stroke="rgb(160,177,255)" stroke-width="1" opacity="0.5098039215686274" d="M 272.5 376 L 334 422.5 L 336 428.5 L 335 428.5 Q 334.1 421.9 329.5 419 L 272.5 377 L 272.5 376 Z " /><path fill="rgb(160,177,255)" stroke="rgb(160,177,255)" stroke-width="1" opacity="0.5098039215686274" d="M 237.5 377 L 235.5 380 L 237.5 377 Z " /><path fill="rgb(160,177,255)" stroke="rgb(160,177,255)" stroke-width="1" opacity="0.5098039215686274" d="M 390.5 378 L 391 383.5 L 390 383.5 L 390.5 378 Z " /><path fill="rgb(160,177,255)" stroke="rgb(160,177,255)" stroke-width="1" opacity="0.5098039215686274" d="M 233.5 380 L 231.5 383 L 233.5 380 Z " /><path fill="rgb(160,177,255)" stroke="rgb(160,177,255)" stroke-width="1" opacity="0.5098039215686274" d="M 229.5 383 L 227.5 386 L 229.5 383 Z " /><path fill="rgb(160,177,255)" stroke="rgb(160,177,255)" stroke-width="1" opacity="0.5098039215686274" d="M 358.5 383 L 359 388.5 L 358 388.5 L 358.5 383 Z " /><path fill="rgb(160,177,255)" stroke="rgb(160,177,255)" stroke-width="1" opacity="0.5098039215686274" d="M 225.5 386 L 223.5 389 L 225.5 386 Z " /><path fill="rgb(160,177,255)" stroke="rgb(160,177,255)" stroke-width="1" opacity="0.5098039215686274" d="M 391.5 387 L 392 391.5 L 391 391.5 L 391.5 387 Z " /><path fill="rgb(160,177,255)" stroke="rgb(160,177,255)" stroke-width="1" opacity="0.5098039215686274" d="M 221.5 389 L 219.5 392 L 221.5 389 Z " /><path fill="rgb(160,177,255)" stroke="rgb(160,177,255)" stroke-width="1" opacity="0.5098039215686274" d="M 359.5 391 L 360 396.5 L 359 396.5 L 359.5 391 Z " /><path fill="rgb(160,177,255)" stroke="rgb(160,177,255)" stroke-width="1" opacity="0.5098039215686274" d="M 217.5 392 L 215.5 395 L 217.5 392 Z " /><path fill="rgb(160,177,255)" stroke="rgb(160,177,255)" stroke-width="1" opacity="0.5098039215686274" d="M 213.5 395 L 211.5 398 L 183.5 419 L 186.5 415 L 213.5 395 Z " /><path fill="rgb(160,177,255)" stroke="rgb(160,177,255)" stroke-width="1" opacity="0.5098039215686274" d="M 392.5 395 L 393 402.5 L 392 402.5 L 392.5 395 Z " /><path fill="rgb(160,177,255)" stroke="rgb(160,177,255)" stroke-width="1" opacity="0.5098039215686274" d="M 360.5 400 L 361 403.5 L 360 403.5 L 360.5 400 Z " /><path fill="rgb(160,177,255)" stroke="rgb(160,177,255)" stroke-width="1" opacity="0.5098039215686274" d="M 361.5 405 L 363 407.5 L 361 406.5 L 361.5 405 Z " /><path fill="rgb(160,177,255)" stroke="rgb(160,177,255)" stroke-width="1" opacity="0.5098039215686274" d="M 390.5 407 L 390 408.5 L 386.5 413 L 384.5 414 L 385.5 412 L 389 409.5 L 390.5 407 Z " /><path fill="rgb(160,177,255)" stroke="rgb(160,177,255)" stroke-width="1" opacity="0.5098039215686274" d="M 363.5 409 L 369 413.5 L 367.5 413 L 363.5 409 Z " /><path fill="rgb(160,177,255)" stroke="rgb(160,177,255)" stroke-width="1" opacity="0.5098039215686274" d="M 373.5 415 L 380 415.5 L 373.5 416 L 373.5 415 Z " /><path fill="rgb(160,177,255)" stroke="rgb(160,177,255)" stroke-width="1" opacity="0.5098039215686274" d="M 239.5 416 L 237.5 419 L 201.5 446 L 195.5 448 L 195.5 447 L 201.5 445 L 239.5 416 Z " /><path fill="rgb(160,177,255)" stroke="rgb(160,177,255)" stroke-width="1" opacity="0.5098039215686274" d="M 272.5 416 L 310.5 445 L 317 447.5 L 314.5 448 L 274.5 419 L 272.5 416 Z " /><path fill="rgb(160,177,255)" stroke="rgb(160,177,255)" stroke-width="1" opacity="0.5098039215686274" d="M 181.5 419 L 179 422.5 L 177.5 426 L 177 424.5 L 181.5 419 Z " /><path fill="rgb(160,177,255)" stroke="rgb(160,177,255)" stroke-width="1" opacity="0.5098039215686274" d="M 176.5 435 Q 177.6 441.4 182 444.5 L 178 441.5 Q 175 439 176.5 435 Z " /><path fill="rgb(160,177,255)" stroke="rgb(160,177,255)" stroke-width="1" opacity="0.5098039215686274" d="M 335.5 435 L 336 437.5 L 329.5 446 L 323.5 448 L 323.5 447 Q 330.1 446.1 333 441.5 L 335.5 435 Z " /><path fill="rgb(160,177,255)" stroke="rgb(160,177,255)" stroke-width="1" opacity="0.5098039215686274" d="M 183.5 445 L 189 447.5 L 186.5 448 L 183.5 445 Z " /><path fill="rgb(160,177,255)" stroke="rgb(160,177,255)" stroke-width="1" opacity="0.5098039215686274" d="M 240.5 467 Q 241.7 473.8 246.5 477 L 253 479.5 L 250.5 480 L 242 473.5 Q 239 471 240.5 467 Z " /><path fill="rgb(160,177,255)" stroke="rgb(160,177,255)" stroke-width="1" opacity="0.5098039215686274" d="M 271.5 467 L 272 469.5 L 265.5 478 L 259.5 480 L 259.5 479 Q 266.1 478.1 269 473.5 L 271.5 467 Z " /><path fill="rgb(141,185,255)" stroke="rgb(141,185,255)" stroke-width="1" opacity="0.9607843137254902" d="M 450.5 211 L 452.5 214 L 450.5 211 Z " /><path fill="rgb(141,185,255)" stroke="rgb(141,185,255)" stroke-width="1" opacity="0.9607843137254902" d="M 454.5 230 L 453.5 232 L 454.5 230 Z " /><path fill="rgb(141,185,255)" stroke="rgb(141,185,255)" stroke-width="1" opacity="0.9607843137254902" d="M 452.5 233 L 450.5 236 L 452.5 233 Z " /><path fill="rgb(141,185,255)" stroke="rgb(141,185,255)" stroke-width="1" opacity="0.9607843137254902" d="M 448.5 236 L 447.5 238 L 448.5 236 Z " /><path fill="rgb(141,185,255)" stroke="rgb(141,185,255)" stroke-width="1" opacity="0.9607843137254902" d="M 436.5 273 L 444.5 273 L 453 278.5 Q 457.3 282.7 456 292.5 L 449.5 302 L 408.5 319 L 403 322.5 L 442.5 345 L 449 350.5 Q 452.9 354.6 452 363.5 L 445.5 373 L 438.5 376 L 433.5 376 L 386.5 350 L 387 351.5 L 389 375.5 L 392 392.5 L 392 403.5 L 386.5 412 Q 382.3 416.3 372.5 415 L 363 408.5 L 360 399.5 L 360 391.5 L 359 390.5 L 353 336.5 L 399 290.5 L 398.5 289 L 400 289.5 Q 399.2 286.9 402.5 288 L 436.5 273 Z " /><path fill="rgb(141,185,255)" stroke="rgb(141,185,255)" stroke-width="1" opacity="0.9607843137254902" d="M 352.5 330 L 353 332.5 L 352 332.5 L 352.5 330 Z " /><path fill="rgb(141,185,255)" stroke="rgb(141,185,255)" stroke-width="1" opacity="0.9607843137254902" d="M 277.5 380 L 278.5 382 L 277.5 380 Z " /><path fill="rgb(141,185,255)" stroke="rgb(141,185,255)" stroke-width="1" opacity="0.9607843137254902" d="M 281.5 383 L 282.5 385 L 281.5 383 Z " /><path fill="rgb(141,185,255)" stroke="rgb(141,185,255)" stroke-width="1" opacity="0.9607843137254902" d="M 285.5 386 L 286.5 388 L 285.5 386 Z " /><path fill="rgb(141,185,255)" stroke="rgb(141,185,255)" stroke-width="1" opacity="0.9607843137254902" d="M 289.5 389 L 290.5 391 L 289.5 389 Z " /><path fill="rgb(141,185,255)" stroke="rgb(141,185,255)" stroke-width="1" opacity="0.9607843137254902" d="M 293.5 392 L 333 422.5 L 336 429.5 L 336 434.5 Q 334.4 441.4 329.5 445 L 322.5 448 L 317.5 448 L 310.5 445 L 273 416.5 L 295 394.5 L 293.5 392 Z " /><path fill="rgb(141,185,255)" stroke="rgb(141,185,255)" stroke-width="1" opacity="0.9607843137254902" d="M 271.5 418 L 272 466.5 Q 270.4 473.4 265.5 477 L 258.5 480 L 253.5 480 Q 246.6 478.4 243 473.5 L 240 466.5 L 240 449.5 L 271.5 418 Z " /><path fill="rgb(141,185,255)" stroke="rgb(141,185,255)" stroke-width="1" opacity="0.9607843137254902" d="M 234.5 419 L 233.5 421 L 234.5 419 Z " /><path fill="rgb(160,177,255)" stroke="rgb(160,177,255)" stroke-width="1" opacity="0.996078431372549" d="M 433.5 136 L 435.5 136 Q 445.1 136.4 449 142.5 L 452 149.5 L 452 154.5 Q 450.4 161.5 445.5 165 L 403 189.5 L 448.5 210 L 454 215.5 Q 456.9 219.1 456 226.5 L 449.5 236 Q 446 240 437.5 239 L 374.5 212 L 366.5 210 L 351.5 219 L 377 192.5 L 431.5 137 L 433.5 136 Z " /><path fill="rgb(160,177,255)" stroke="rgb(160,177,255)" stroke-width="1" opacity="0.996078431372549" d="M 326.5 243 L 327 278.5 L 328.5 280 Q 349.5 290 367.5 303 L 399.5 289 L 353.5 336 Q 354.3 329.7 350.5 328 L 311.5 306 L 272 329.5 L 272 376.5 L 273.5 377 L 295 394.5 L 273.5 416 L 272 416 L 272 417.5 L 240.5 449 L 239.5 416 L 201.5 445 L 194.5 448 L 189.5 448 Q 182.6 446.5 179 441.5 L 176 434.5 L 176 429.5 Q 177.6 422.5 182.5 419 L 240 377 L 240 329.5 L 239 328.5 L 240.5 329 L 284.5 285 L 296 278.5 L 296 273.5 L 326.5 243 Z " /></svg>