<svg width="512" height="512" version="1.1" xmlns="http://www.w3.org/2000/svg" desc="Created with imagetracer.js version 1.2.6" ><path fill="rgb(0,0,0)" stroke="rgb(0,0,0)" stroke-width="1" opacity="0" d="M 0 0 L 104 0.5 L 85.5 4 L 68.5 11 Q 52.4 19.9 41 33.5 L 26 57.5 L 19 83.5 L 19 428.5 Q 25.8 468.2 51.5 489 Q 63.2 499.8 79.5 506 L 92.5 510 L 104 511.5 L 0 512 L 0 0 Z " /><path fill="rgb(0,0,0)" stroke="rgb(0,0,0)" stroke-width="1" opacity="0" d="M 253.5 0 L 512 0 L 512 512 L 251 511.5 Q 257.4 510.4 260 505.5 Q 262.9 501.9 262 494.5 Q 260.5 488 255.5 485 L 251.5 483 L 111.5 483 L 110.5 482 L 102.5 482 L 82.5 475 L 67 464 L 57 450.5 L 52 440.5 L 48 423.5 L 48 88.5 L 52 71.5 L 57 61.5 L 67 48 L 80.5 38 Q 89.8 32.3 102.5 30 L 110.5 30 L 111.5 29 L 253.5 29 Q 259.6 27.6 262 22.5 Q 265.3 18.8 264 10.5 L 257.5 2 L 253.5 1 L 253.5 0 Z M 383 148 L 378 150 L 371 159 Q 369 169 374 173 L 442 241 L 146 241 L 141 242 L 135 245 L 131 253 Q 130 262 134 266 L 144 271 L 443 272 L 384 330 Q 375 336 371 346 Q 370 354 373 358 L 382 364 Q 390 365 394 362 L 491 265 L 493 261 Q 495 250 490 247 L 395 151 L 389 148 L 383 148 Z " /><path fill="rgb(0,0,0)" stroke="rgb(0,0,0)" stroke-width="1" opacity="0.9882352941176471" d="M 104.5 0 L 252.5 0 Q 259 1.5 262 6.5 Q 265.3 10.2 264 18.5 L 256.5 28 L 253.5 29 L 111.5 29 L 110.5 30 L 97.5 31 L 88.5 34 L 80.5 38 L 67 48 L 57 61.5 L 52 71.5 L 48 88.5 L 48 423.5 L 52 440.5 L 57 450.5 L 67 464 L 82.5 475 L 102.5 482 L 110.5 482 L 111.5 483 L 251.5 483 L 260 489.5 Q 262.9 493.1 262 500.5 Q 260.5 507 255.5 510 L 250.5 512 L 104.5 512 L 85.5 508 L 68.5 501 Q 52.6 491.9 41 478.5 L 26 454.5 L 19 428.5 L 19 83.5 L 23 65.5 L 30 49.5 Q 38.9 33.4 52.5 22 Q 64 12 79.5 6 L 92.5 2 L 103.5 1 L 104.5 0 Z " /><path fill="rgb(0,0,0)" stroke="rgb(0,0,0)" stroke-width="1" opacity="0.9882352941176471" d="M 382.5 148 L 388.5 148 L 394.5 151 L 490 246.5 Q 494.7 250.3 493 260.5 L 491 264.5 L 393.5 362 Q 389.5 365 381.5 364 L 373 357.5 Q 369.7 353.8 371 345.5 Q 375.3 335.8 383.5 330 L 443 271.5 L 143.5 271 L 134 265.5 Q 129.8 261.7 131 252.5 L 135 245 L 140.5 242 L 145.5 241 L 442 240.5 L 374 172.5 Q 369.3 168.7 371 158.5 L 377.5 150 L 382.5 148 Z " /></svg>