<svg width="512" height="512" version="1.1" xmlns="http://www.w3.org/2000/svg" desc="Created with imagetracer.js version 1.2.6" ><path fill="rgb(0,0,0)" stroke="rgb(0,0,0)" stroke-width="1" opacity="0" d="M 0 0 L 512 0 L 512 512 L 0 512 L 0 0 Z M 244 32 L 228 35 L 211 41 Q 195 48 184 58 Q 168 71 158 89 L 147 116 L 144 132 L 144 157 L 147 173 Q 154 199 170 217 Q 183 232 201 242 L 228 253 L 245 256 L 269 256 L 285 253 Q 311 246 329 230 Q 344 217 354 200 L 364 176 L 368 157 L 368 132 L 365 116 Q 358 89 342 72 Q 326 52 302 41 L 276 33 Q 270 35 269 32 L 244 32 Z M 160 288 L 138 292 L 120 298 Q 97 308 80 323 Q 63 338 51 358 Q 42 372 37 390 L 32 416 L 32 438 Q 35 452 43 462 Q 54 476 75 480 L 438 480 Q 452 477 462 469 Q 476 458 480 438 L 480 416 Q 477 414 479 408 L 472 381 Q 462 354 445 336 Q 427 315 402 302 L 379 293 L 361 289 Q 354 291 353 288 L 160 288 Z " /><path fill="rgb(0,0,0)" stroke="rgb(0,0,0)" stroke-width="1" opacity="0" d="M 250.5 64 L 269.5 65 L 286.5 70 Q 306.6 78.4 319 94.5 Q 327 105 332 118.5 L 335 130.5 L 336 149.5 L 333 166.5 L 324 186.5 L 305.5 207 Q 294.2 216.2 278.5 221 L 261.5 224 L 250.5 224 L 230.5 220 L 215.5 213 Q 202.2 205.4 193 193.5 Q 185 183 180 169.5 L 177 157.5 L 176 138.5 L 180 118.5 L 188 101.5 L 206.5 81 Q 216.7 72.7 230.5 68 L 250.5 64 Z " /><path fill="rgb(0,0,0)" stroke="rgb(0,0,0)" stroke-width="1" opacity="0" d="M 166.5 320 L 345.5 320 L 346.5 321 L 354.5 321 Q 399.5 329.5 423 359.5 Q 434.2 372.8 441 390.5 L 446 407.5 L 448 431.5 Q 446.3 440.8 439.5 445 L 431.5 448 L 80.5 448 Q 71.3 446.3 67 439.5 Q 62.8 433.7 64 422.5 L 68 399.5 L 78 375.5 Q 88.2 357.7 103.5 345 Q 116.8 333.8 134.5 327 L 151.5 322 L 165.5 321 L 166.5 320 Z " /><path fill="rgb(0,0,0)" stroke="rgb(0,0,0)" stroke-width="1" opacity="0.7803921568627451" d="M 247.5 32 L 250 32.5 L 247.5 33 L 247.5 32 Z " /><path fill="rgb(0,0,0)" stroke="rgb(0,0,0)" stroke-width="1" opacity="0.7803921568627451" d="M 262.5 32 L 265 32.5 L 262.5 33 L 262.5 32 Z " /><path fill="rgb(0,0,0)" stroke="rgb(0,0,0)" stroke-width="1" opacity="0.7803921568627451" d="M 180.5 61 L 172.5 70 L 180.5 61 Z " /><path fill="rgb(0,0,0)" stroke="rgb(0,0,0)" stroke-width="1" opacity="0.7803921568627451" d="M 331.5 61 L 338.5 69 L 331.5 61 Z " /><path fill="rgb(0,0,0)" stroke="rgb(0,0,0)" stroke-width="1" opacity="0.7803921568627451" d="M 204.5 82 L 203.5 84 L 204.5 82 Z " /><path fill="rgb(0,0,0)" stroke="rgb(0,0,0)" stroke-width="1" opacity="0.7803921568627451" d="M 307.5 82 L 308.5 84 L 307.5 82 Z " /><path fill="rgb(0,0,0)" stroke="rgb(0,0,0)" stroke-width="1" opacity="0.7803921568627451" d="M 195.5 91 L 194.5 93 L 195.5 91 Z " /><path fill="rgb(0,0,0)" stroke="rgb(0,0,0)" stroke-width="1" opacity="0.7803921568627451" d="M 316.5 91 L 317.5 93 L 316.5 91 Z " /><path fill="rgb(0,0,0)" stroke="rgb(0,0,0)" stroke-width="1" opacity="0.7803921568627451" d="M 144.5 135 L 145 137.5 L 144 137.5 L 144.5 135 Z " /><path fill="rgb(0,0,0)" stroke="rgb(0,0,0)" stroke-width="1" opacity="0.7803921568627451" d="M 367.5 135 L 368 137.5 L 367 137.5 L 367.5 135 Z " /><path fill="rgb(0,0,0)" stroke="rgb(0,0,0)" stroke-width="1" opacity="0.7803921568627451" d="M 144.5 150 L 145 152.5 L 144 152.5 L 144.5 150 Z " /><path fill="rgb(0,0,0)" stroke="rgb(0,0,0)" stroke-width="1" opacity="0.7803921568627451" d="M 367.5 150 L 368 152.5 L 367 152.5 L 367.5 150 Z " /><path fill="rgb(0,0,0)" stroke="rgb(0,0,0)" stroke-width="1" opacity="0.7803921568627451" d="M 194.5 195 L 195.5 197 L 194.5 195 Z " /><path fill="rgb(0,0,0)" stroke="rgb(0,0,0)" stroke-width="1" opacity="0.7803921568627451" d="M 317.5 195 L 316.5 197 L 317.5 195 Z " /><path fill="rgb(0,0,0)" stroke="rgb(0,0,0)" stroke-width="1" opacity="0.7803921568627451" d="M 203.5 204 L 204.5 206 L 203.5 204 Z " /><path fill="rgb(0,0,0)" stroke="rgb(0,0,0)" stroke-width="1" opacity="0.7803921568627451" d="M 308.5 204 L 307.5 206 L 308.5 204 Z " /><path fill="rgb(0,0,0)" stroke="rgb(0,0,0)" stroke-width="1" opacity="0.7803921568627451" d="M 173.5 219 L 180.5 227 L 173.5 219 Z " /><path fill="rgb(0,0,0)" stroke="rgb(0,0,0)" stroke-width="1" opacity="0.7803921568627451" d="M 338.5 219 L 331.5 227 L 338.5 219 Z " /><path fill="rgb(0,0,0)" stroke="rgb(0,0,0)" stroke-width="1" opacity="0.7803921568627451" d="M 262.5 255 L 265 255.5 L 262.5 256 L 262.5 255 Z " /><path fill="rgb(0,0,0)" stroke="rgb(0,0,0)" stroke-width="1" opacity="0.7803921568627451" d="M 164.5 288 L 167 288.5 L 164.5 289 L 164.5 288 Z " /><path fill="rgb(0,0,0)" stroke="rgb(0,0,0)" stroke-width="1" opacity="0.7803921568627451" d="M 345.5 288 L 348 288.5 L 345.5 289 L 345.5 288 Z " /><path fill="rgb(0,0,0)" stroke="rgb(0,0,0)" stroke-width="1" opacity="0.7803921568627451" d="M 88.5 316 L 87.5 318 L 88.5 316 Z " /><path fill="rgb(0,0,0)" stroke="rgb(0,0,0)" stroke-width="1" opacity="0.7803921568627451" d="M 83.5 320 L 82.5 322 L 83.5 320 Z " /><path fill="rgb(0,0,0)" stroke="rgb(0,0,0)" stroke-width="1" opacity="0.7803921568627451" d="M 428.5 320 L 429.5 322 L 428.5 320 Z " /><path fill="rgb(0,0,0)" stroke="rgb(0,0,0)" stroke-width="1" opacity="0.7803921568627451" d="M 65.5 338 L 64.5 340 L 65.5 338 Z " /><path fill="rgb(0,0,0)" stroke="rgb(0,0,0)" stroke-width="1" opacity="0.7803921568627451" d="M 446.5 338 L 447.5 340 L 446.5 338 Z " /><path fill="rgb(0,0,0)" stroke="rgb(0,0,0)" stroke-width="1" opacity="0.7803921568627451" d="M 61.5 343 L 60.5 345 L 61.5 343 Z " /><path fill="rgb(0,0,0)" stroke="rgb(0,0,0)" stroke-width="1" opacity="0.7803921568627451" d="M 101.5 346 L 98.5 350 L 101.5 346 Z " /><path fill="rgb(0,0,0)" stroke="rgb(0,0,0)" stroke-width="1" opacity="0.7803921568627451" d="M 410.5 346 L 412.5 349 L 410.5 346 Z " /><path fill="rgb(0,0,0)" stroke="rgb(0,0,0)" stroke-width="1" opacity="0.7803921568627451" d="M 92.5 355 L 90.5 358 L 92.5 355 Z " /><path fill="rgb(0,0,0)" stroke="rgb(0,0,0)" stroke-width="1" opacity="0.7803921568627451" d="M 419.5 355 L 420.5 357 L 419.5 355 Z " /><path fill="rgb(0,0,0)" stroke="rgb(0,0,0)" stroke-width="1" opacity="0.7803921568627451" d="M 32.5 420 L 33 422.5 L 32 422.5 L 32.5 420 Z " /><path fill="rgb(0,0,0)" stroke="rgb(0,0,0)" stroke-width="1" opacity="0.7803921568627451" d="M 479.5 420 L 480 422.5 L 479 422.5 L 479.5 420 Z " /><path fill="rgb(0,0,0)" stroke="rgb(0,0,0)" stroke-width="1" opacity="0.7803921568627451" d="M 479.5 432 L 480 434.5 L 479 434.5 L 479.5 432 Z " /><path fill="rgb(0,0,0)" stroke="rgb(0,0,0)" stroke-width="1" opacity="0.7803921568627451" d="M 466.5 463 L 464.5 466 L 466.5 463 Z " /><path fill="rgb(0,0,0)" stroke="rgb(0,0,0)" stroke-width="1" opacity="0.7803921568627451" d="M 46.5 464 L 47.5 466 L 46.5 464 Z " /><path fill="rgb(0,0,0)" stroke="rgb(0,0,0)" stroke-width="1" opacity="0.7803921568627451" d="M 77.5 479 L 80 479.5 L 77.5 480 L 77.5 479 Z " /><path fill="rgb(0,0,0)" stroke="rgb(0,0,0)" stroke-width="1" opacity="0.7803921568627451" d="M 432.5 479 L 435 479.5 L 432.5 480 L 432.5 479 Z " /><path fill="rgb(0,0,0)" stroke="rgb(0,0,0)" stroke-width="1" opacity="0.4980392156862745" d="M 243.5 32 L 247 32.5 L 243.5 33 L 243.5 32 Z " /><path fill="rgb(0,0,0)" stroke="rgb(0,0,0)" stroke-width="1" opacity="0.4980392156862745" d="M 265.5 32 L 269 32.5 L 265.5 33 L 265.5 32 Z " /><path fill="rgb(0,0,0)" stroke="rgb(0,0,0)" stroke-width="1" opacity="0.4980392156862745" d="M 236.5 33 L 239 33.5 L 236.5 34 L 236.5 33 Z " /><path fill="rgb(0,0,0)" stroke="rgb(0,0,0)" stroke-width="1" opacity="0.4980392156862745" d="M 273.5 33 L 276 33.5 L 273.5 34 L 273.5 33 Z " /><path fill="rgb(0,0,0)" stroke="rgb(0,0,0)" stroke-width="1" opacity="0.4980392156862745" d="M 200.5 46 L 199.5 48 L 200.5 46 Z " /><path fill="rgb(0,0,0)" stroke="rgb(0,0,0)" stroke-width="1" opacity="0.4980392156862745" d="M 316.5 49 L 317.5 51 L 316.5 49 Z " /><path fill="rgb(0,0,0)" stroke="rgb(0,0,0)" stroke-width="1" opacity="0.4980392156862745" d="M 192.5 51 L 191.5 53 L 192.5 51 Z " /><path fill="rgb(0,0,0)" stroke="rgb(0,0,0)" stroke-width="1" opacity="0.4980392156862745" d="M 319.5 51 L 320.5 53 L 319.5 51 Z " /><path fill="rgb(0,0,0)" stroke="rgb(0,0,0)" stroke-width="1" opacity="0.4980392156862745" d="M 188.5 54 L 187.5 56 L 188.5 54 Z " /><path fill="rgb(0,0,0)" stroke="rgb(0,0,0)" stroke-width="1" opacity="0.4980392156862745" d="M 323.5 54 L 324.5 56 L 323.5 54 Z " /><path fill="rgb(0,0,0)" stroke="rgb(0,0,0)" stroke-width="1" opacity="0.4980392156862745" d="M 183.5 58 L 181.5 61 L 183.5 58 Z " /><path fill="rgb(0,0,0)" stroke="rgb(0,0,0)" stroke-width="1" opacity="0.4980392156862745" d="M 328.5 58 L 330.5 61 L 328.5 58 Z " /><path fill="rgb(0,0,0)" stroke="rgb(0,0,0)" stroke-width="1" opacity="0.4980392156862745" d="M 246.5 64 L 250 64.5 L 246.5 65 L 246.5 64 Z " /><path fill="rgb(0,0,0)" stroke="rgb(0,0,0)" stroke-width="1" opacity="0.4980392156862745" d="M 262.5 64 L 266 64.5 L 262.5 65 L 262.5 64 Z " /><path fill="rgb(0,0,0)" stroke="rgb(0,0,0)" stroke-width="1" opacity="0.4980392156862745" d="M 339.5 69 L 341.5 72 L 339.5 69 Z " /><path fill="rgb(0,0,0)" stroke="rgb(0,0,0)" stroke-width="1" opacity="0.4980392156862745" d="M 171.5 70 L 170.5 72 L 171.5 70 Z " /><path fill="rgb(0,0,0)" stroke="rgb(0,0,0)" stroke-width="1" opacity="0.4980392156862745" d="M 167.5 75 L 166.5 77 L 167.5 75 Z " /><path fill="rgb(0,0,0)" stroke="rgb(0,0,0)" stroke-width="1" opacity="0.4980392156862745" d="M 297.5 75 L 298.5 77 L 297.5 75 Z " /><path fill="rgb(0,0,0)" stroke="rgb(0,0,0)" stroke-width="1" opacity="0.4980392156862745" d="M 344.5 75 L 345.5 77 L 344.5 75 Z " /><path fill="rgb(0,0,0)" stroke="rgb(0,0,0)" stroke-width="1" opacity="0.4980392156862745" d="M 211.5 77 L 210.5 79 L 211.5 77 Z " /><path fill="rgb(0,0,0)" stroke="rgb(0,0,0)" stroke-width="1" opacity="0.4980392156862745" d="M 164.5 79 L 163.5 81 L 164.5 79 Z " /><path fill="rgb(0,0,0)" stroke="rgb(0,0,0)" stroke-width="1" opacity="0.4980392156862745" d="M 208.5 79 L 207.5 81 L 208.5 79 Z " /><path fill="rgb(0,0,0)" stroke="rgb(0,0,0)" stroke-width="1" opacity="0.4980392156862745" d="M 347.5 79 L 348.5 81 L 347.5 79 Z " /><path fill="rgb(0,0,0)" stroke="rgb(0,0,0)" stroke-width="1" opacity="0.4980392156862745" d="M 162.5 82 L 161.5 84 L 162.5 82 Z " /><path fill="rgb(0,0,0)" stroke="rgb(0,0,0)" stroke-width="1" opacity="0.4980392156862745" d="M 202.5 84 L 196.5 91 L 202.5 84 Z " /><path fill="rgb(0,0,0)" stroke="rgb(0,0,0)" stroke-width="1" opacity="0.4980392156862745" d="M 309.5 84 L 315.5 91 L 309.5 84 Z " /><path fill="rgb(0,0,0)" stroke="rgb(0,0,0)" stroke-width="1" opacity="0.4980392156862745" d="M 192.5 95 L 191.5 97 L 192.5 95 Z " /><path fill="rgb(0,0,0)" stroke="rgb(0,0,0)" stroke-width="1" opacity="0.4980392156862745" d="M 190.5 98 L 189.5 100 L 190.5 98 Z " /><path fill="rgb(0,0,0)" stroke="rgb(0,0,0)" stroke-width="1" opacity="0.4980392156862745" d="M 145.5 124 L 146 126.5 L 145 126.5 L 145.5 124 Z " /><path fill="rgb(0,0,0)" stroke="rgb(0,0,0)" stroke-width="1" opacity="0.4980392156862745" d="M 366.5 124 L 367 126.5 L 366 126.5 L 366.5 124 Z " /><path fill="rgb(0,0,0)" stroke="rgb(0,0,0)" stroke-width="1" opacity="0.4980392156862745" d="M 144.5 131 L 145 134.5 L 144 134.5 L 144.5 131 Z " /><path fill="rgb(0,0,0)" stroke="rgb(0,0,0)" stroke-width="1" opacity="0.4980392156862745" d="M 367.5 131 L 368 134.5 L 367 134.5 L 367.5 131 Z " /><path fill="rgb(0,0,0)" stroke="rgb(0,0,0)" stroke-width="1" opacity="0.4980392156862745" d="M 176.5 134 L 177 137.5 L 176 137.5 L 176.5 134 Z " /><path fill="rgb(0,0,0)" stroke="rgb(0,0,0)" stroke-width="1" opacity="0.4980392156862745" d="M 335.5 134 L 336 137.5 L 335 137.5 L 335.5 134 Z " /><path fill="rgb(0,0,0)" stroke="rgb(0,0,0)" stroke-width="1" opacity="0.4980392156862745" d="M 176.5 150 L 177 153.5 L 176 153.5 L 176.5 150 Z " /><path fill="rgb(0,0,0)" stroke="rgb(0,0,0)" stroke-width="1" opacity="0.4980392156862745" d="M 335.5 150 L 336 153.5 L 335 153.5 L 335.5 150 Z " /><path fill="rgb(0,0,0)" stroke="rgb(0,0,0)" stroke-width="1" opacity="0.4980392156862745" d="M 144.5 153 L 145 156.5 L 144 156.5 L 144.5 153 Z " /><path fill="rgb(0,0,0)" stroke="rgb(0,0,0)" stroke-width="1" opacity="0.4980392156862745" d="M 367.5 153 L 368 156.5 L 367 156.5 L 367.5 153 Z " /><path fill="rgb(0,0,0)" stroke="rgb(0,0,0)" stroke-width="1" opacity="0.4980392156862745" d="M 366.5 161 L 367 163.5 L 366 163.5 L 366.5 161 Z " /><path fill="rgb(0,0,0)" stroke="rgb(0,0,0)" stroke-width="1" opacity="0.4980392156862745" d="M 187.5 185 L 188.5 187 L 187.5 185 Z " /><path fill="rgb(0,0,0)" stroke="rgb(0,0,0)" stroke-width="1" opacity="0.4980392156862745" d="M 196.5 197 L 202.5 204 L 196.5 197 Z " /><path fill="rgb(0,0,0)" stroke="rgb(0,0,0)" stroke-width="1" opacity="0.4980392156862745" d="M 315.5 197 L 309.5 204 L 315.5 197 Z " /><path fill="rgb(0,0,0)" stroke="rgb(0,0,0)" stroke-width="1" opacity="0.4980392156862745" d="M 163.5 207 L 164.5 209 L 163.5 207 Z " /><path fill="rgb(0,0,0)" stroke="rgb(0,0,0)" stroke-width="1" opacity="0.4980392156862745" d="M 210.5 209 L 211.5 211 L 210.5 209 Z " /><path fill="rgb(0,0,0)" stroke="rgb(0,0,0)" stroke-width="1" opacity="0.4980392156862745" d="M 166.5 211 L 167.5 213 L 166.5 211 Z " /><path fill="rgb(0,0,0)" stroke="rgb(0,0,0)" stroke-width="1" opacity="0.4980392156862745" d="M 345.5 211 L 344.5 213 L 345.5 211 Z " /><path fill="rgb(0,0,0)" stroke="rgb(0,0,0)" stroke-width="1" opacity="0.4980392156862745" d="M 170.5 216 L 172.5 219 L 170.5 216 Z " /><path fill="rgb(0,0,0)" stroke="rgb(0,0,0)" stroke-width="1" opacity="0.4980392156862745" d="M 341.5 216 L 339.5 219 L 341.5 216 Z " /><path fill="rgb(0,0,0)" stroke="rgb(0,0,0)" stroke-width="1" opacity="0.4980392156862745" d="M 246.5 223 L 250 223.5 L 246.5 224 L 246.5 223 Z " /><path fill="rgb(0,0,0)" stroke="rgb(0,0,0)" stroke-width="1" opacity="0.4980392156862745" d="M 262.5 223 L 266 223.5 L 262.5 224 L 262.5 223 Z " /><path fill="rgb(0,0,0)" stroke="rgb(0,0,0)" stroke-width="1" opacity="0.4980392156862745" d="M 181.5 227 L 183.5 230 L 181.5 227 Z " /><path fill="rgb(0,0,0)" stroke="rgb(0,0,0)" stroke-width="1" opacity="0.4980392156862745" d="M 330.5 227 L 328.5 230 L 330.5 227 Z " /><path fill="rgb(0,0,0)" stroke="rgb(0,0,0)" stroke-width="1" opacity="0.4980392156862745" d="M 187.5 232 L 188.5 234 L 187.5 232 Z " /><path fill="rgb(0,0,0)" stroke="rgb(0,0,0)" stroke-width="1" opacity="0.4980392156862745" d="M 324.5 232 L 323.5 234 L 324.5 232 Z " /><path fill="rgb(0,0,0)" stroke="rgb(0,0,0)" stroke-width="1" opacity="0.4980392156862745" d="M 191.5 235 L 192.5 237 L 191.5 235 Z " /><path fill="rgb(0,0,0)" stroke="rgb(0,0,0)" stroke-width="1" opacity="0.4980392156862745" d="M 236.5 254 L 239 254.5 L 236.5 255 L 236.5 254 Z " /><path fill="rgb(0,0,0)" stroke="rgb(0,0,0)" stroke-width="1" opacity="0.4980392156862745" d="M 273.5 254 L 276 254.5 L 273.5 255 L 273.5 254 Z " /><path fill="rgb(0,0,0)" stroke="rgb(0,0,0)" stroke-width="1" opacity="0.4980392156862745" d="M 244.5 255 L 248 255.5 L 244.5 256 L 244.5 255 Z " /><path fill="rgb(0,0,0)" stroke="rgb(0,0,0)" stroke-width="1" opacity="0.4980392156862745" d="M 265.5 255 L 269 255.5 L 265.5 256 L 265.5 255 Z " /><path fill="rgb(0,0,0)" stroke="rgb(0,0,0)" stroke-width="1" opacity="0.4980392156862745" d="M 159.5 288 L 164 288.5 L 159.5 289 L 159.5 288 Z " /><path fill="rgb(0,0,0)" stroke="rgb(0,0,0)" stroke-width="1" opacity="0.4980392156862745" d="M 348.5 288 L 353 288.5 L 348.5 289 L 348.5 288 Z " /><path fill="rgb(0,0,0)" stroke="rgb(0,0,0)" stroke-width="1" opacity="0.4980392156862745" d="M 151.5 289 L 154 289.5 L 151.5 290 L 151.5 289 Z " /><path fill="rgb(0,0,0)" stroke="rgb(0,0,0)" stroke-width="1" opacity="0.4980392156862745" d="M 358.5 289 L 361 289.5 L 358.5 290 L 358.5 289 Z " /><path fill="rgb(0,0,0)" stroke="rgb(0,0,0)" stroke-width="1" opacity="0.4980392156862745" d="M 415.5 310 L 416.5 312 L 415.5 310 Z " /><path fill="rgb(0,0,0)" stroke="rgb(0,0,0)" stroke-width="1" opacity="0.4980392156862745" d="M 93.5 312 L 92.5 314 L 93.5 312 Z " /><path fill="rgb(0,0,0)" stroke="rgb(0,0,0)" stroke-width="1" opacity="0.4980392156862745" d="M 85.5 318 L 84.5 320 L 85.5 318 Z " /><path fill="rgb(0,0,0)" stroke="rgb(0,0,0)" stroke-width="1" opacity="0.4980392156862745" d="M 426.5 318 L 427.5 320 L 426.5 318 Z " /><path fill="rgb(0,0,0)" stroke="rgb(0,0,0)" stroke-width="1" opacity="0.4980392156862745" d="M 161.5 320 L 166 320.5 L 161.5 321 L 161.5 320 Z " /><path fill="rgb(0,0,0)" stroke="rgb(0,0,0)" stroke-width="1" opacity="0.4980392156862745" d="M 346.5 320 L 351 320.5 L 346.5 321 L 346.5 320 Z " /><path fill="rgb(0,0,0)" stroke="rgb(0,0,0)" stroke-width="1" opacity="0.4980392156862745" d="M 154.5 321 L 157 321.5 L 154.5 322 L 154.5 321 Z " /><path fill="rgb(0,0,0)" stroke="rgb(0,0,0)" stroke-width="1" opacity="0.4980392156862745" d="M 79.5 323 L 67.5 336 L 79.5 323 Z " /><path fill="rgb(0,0,0)" stroke="rgb(0,0,0)" stroke-width="1" opacity="0.4980392156862745" d="M 432.5 323 L 444.5 336 L 432.5 323 Z " /><path fill="rgb(0,0,0)" stroke="rgb(0,0,0)" stroke-width="1" opacity="0.4980392156862745" d="M 63.5 340 L 62.5 342 L 63.5 340 Z " /><path fill="rgb(0,0,0)" stroke="rgb(0,0,0)" stroke-width="1" opacity="0.4980392156862745" d="M 109.5 340 L 108.5 342 L 109.5 340 Z " /><path fill="rgb(0,0,0)" stroke="rgb(0,0,0)" stroke-width="1" opacity="0.4980392156862745" d="M 402.5 340 L 403.5 342 L 402.5 340 Z " /><path fill="rgb(0,0,0)" stroke="rgb(0,0,0)" stroke-width="1" opacity="0.4980392156862745" d="M 448.5 340 L 449.5 342 L 448.5 340 Z " /><path fill="rgb(0,0,0)" stroke="rgb(0,0,0)" stroke-width="1" opacity="0.4980392156862745" d="M 105.5 343 L 104.5 345 L 105.5 343 Z " /><path fill="rgb(0,0,0)" stroke="rgb(0,0,0)" stroke-width="1" opacity="0.4980392156862745" d="M 406.5 343 L 407.5 345 L 406.5 343 Z " /><path fill="rgb(0,0,0)" stroke="rgb(0,0,0)" stroke-width="1" opacity="0.4980392156862745" d="M 454.5 348 L 455.5 350 L 454.5 348 Z " /><path fill="rgb(0,0,0)" stroke="rgb(0,0,0)" stroke-width="1" opacity="0.4980392156862745" d="M 413.5 349 L 418.5 355 L 413.5 349 Z " /><path fill="rgb(0,0,0)" stroke="rgb(0,0,0)" stroke-width="1" opacity="0.4980392156862745" d="M 97.5 350 L 93.5 355 L 97.5 350 Z " /><path fill="rgb(0,0,0)" stroke="rgb(0,0,0)" stroke-width="1" opacity="0.4980392156862745" d="M 88.5 360 L 87.5 362 L 88.5 360 Z " /><path fill="rgb(0,0,0)" stroke="rgb(0,0,0)" stroke-width="1" opacity="0.4980392156862745" d="M 423.5 360 L 424.5 362 L 423.5 360 Z " /><path fill="rgb(0,0,0)" stroke="rgb(0,0,0)" stroke-width="1" opacity="0.4980392156862745" d="M 85.5 364 L 84.5 366 L 85.5 364 Z " /><path fill="rgb(0,0,0)" stroke="rgb(0,0,0)" stroke-width="1" opacity="0.4980392156862745" d="M 426.5 364 L 427.5 366 L 426.5 364 Z " /><path fill="rgb(0,0,0)" stroke="rgb(0,0,0)" stroke-width="1" opacity="0.4980392156862745" d="M 33.5 407 L 34 409.5 L 33 409.5 L 33.5 407 Z " /><path fill="rgb(0,0,0)" stroke="rgb(0,0,0)" stroke-width="1" opacity="0.4980392156862745" d="M 478.5 407 L 479 409.5 L 478 409.5 L 478.5 407 Z " /><path fill="rgb(0,0,0)" stroke="rgb(0,0,0)" stroke-width="1" opacity="0.4980392156862745" d="M 65.5 410 L 66 412.5 L 65 412.5 L 65.5 410 Z " /><path fill="rgb(0,0,0)" stroke="rgb(0,0,0)" stroke-width="1" opacity="0.4980392156862745" d="M 32.5 415 L 33 419.5 L 32 419.5 L 32.5 415 Z " /><path fill="rgb(0,0,0)" stroke="rgb(0,0,0)" stroke-width="1" opacity="0.4980392156862745" d="M 479.5 415 L 480 419.5 L 479 419.5 L 479.5 415 Z " /><path fill="rgb(0,0,0)" stroke="rgb(0,0,0)" stroke-width="1" opacity="0.4980392156862745" d="M 64.5 417 L 65 421.5 L 64 421.5 L 64.5 417 Z " /><path fill="rgb(0,0,0)" stroke="rgb(0,0,0)" stroke-width="1" opacity="0.4980392156862745" d="M 447.5 418 L 448 421.5 L 447 421.5 L 447.5 418 Z " /><path fill="rgb(0,0,0)" stroke="rgb(0,0,0)" stroke-width="1" opacity="0.4980392156862745" d="M 32.5 435 L 33 437.5 L 32 437.5 L 32.5 435 Z " /><path fill="rgb(0,0,0)" stroke="rgb(0,0,0)" stroke-width="1" opacity="0.4980392156862745" d="M 479.5 435 L 480 437.5 L 479 437.5 L 479.5 435 Z " /><path fill="rgb(0,0,0)" stroke="rgb(0,0,0)" stroke-width="1" opacity="0.4980392156862745" d="M 68.5 441 L 70.5 444 L 68.5 441 Z " /><path fill="rgb(0,0,0)" stroke="rgb(0,0,0)" stroke-width="1" opacity="0.4980392156862745" d="M 443.5 441 L 441.5 444 L 443.5 441 Z " /><path fill="rgb(0,0,0)" stroke="rgb(0,0,0)" stroke-width="1" opacity="0.4980392156862745" d="M 473.5 454 L 472.5 456 L 473.5 454 Z " /><path fill="rgb(0,0,0)" stroke="rgb(0,0,0)" stroke-width="1" opacity="0.4980392156862745" d="M 43.5 461 L 45.5 464 L 43.5 461 Z " /><path fill="rgb(0,0,0)" stroke="rgb(0,0,0)" stroke-width="1" opacity="0.4980392156862745" d="M 468.5 461 L 467.5 463 L 468.5 461 Z " /><path fill="rgb(0,0,0)" stroke="rgb(0,0,0)" stroke-width="1" opacity="0.4980392156862745" d="M 48.5 466 L 50.5 469 L 48.5 466 Z " /><path fill="rgb(0,0,0)" stroke="rgb(0,0,0)" stroke-width="1" opacity="0.4980392156862745" d="M 463.5 466 L 461.5 469 L 463.5 466 Z " /><path fill="rgb(0,0,0)" stroke="rgb(0,0,0)" stroke-width="1" opacity="0.4980392156862745" d="M 74.5 479 L 77 479.5 L 74.5 480 L 74.5 479 Z " /><path fill="rgb(0,0,0)" stroke="rgb(0,0,0)" stroke-width="1" opacity="0.4980392156862745" d="M 435.5 479 L 438 479.5 L 435.5 480 L 435.5 479 Z " /><path fill="rgb(0,0,0)" stroke="rgb(0,0,0)" stroke-width="1" opacity="0.9764705882352941" d="M 184.5 58 L 183.5 60 L 184.5 58 Z " /><path fill="rgb(0,0,0)" stroke="rgb(0,0,0)" stroke-width="1" opacity="0.9764705882352941" d="M 367.5 141 L 368 143.5 L 367 143.5 L 367.5 141 Z " /><path fill="rgb(0,0,0)" stroke="rgb(0,0,0)" stroke-width="1" opacity="0.9764705882352941" d="M 341.5 215 L 340.5 217 L 341.5 215 Z " /><path fill="rgb(0,0,0)" stroke="rgb(0,0,0)" stroke-width="1" opacity="0.9764705882352941" d="M 80.5 323 L 79.5 325 L 80.5 323 Z " /><path fill="rgb(0,0,0)" stroke="rgb(0,0,0)" stroke-width="1" opacity="0.9764705882352941" d="M 431.5 323 L 432.5 325 L 431.5 323 Z " /><path fill="rgb(0,0,0)" stroke="rgb(0,0,0)" stroke-width="1" opacity="0.9764705882352941" d="M 68.5 335 L 67.5 337 L 68.5 335 Z " /><path fill="rgb(0,0,0)" stroke="rgb(0,0,0)" stroke-width="1" opacity="0.9764705882352941" d="M 443.5 335 L 444.5 337 L 443.5 335 Z " /><path fill="rgb(0,0,0)" stroke="rgb(0,0,0)" stroke-width="1" opacity="0.9764705882352941" d="M 32.5 427 L 33 430.5 L 32 430.5 L 32.5 427 Z " /><path fill="rgb(0,0,0)" stroke="rgb(0,0,0)" stroke-width="1" opacity="0.9764705882352941" d="M 479.5 427 L 480 430.5 L 479 430.5 L 479.5 427 Z " /><path fill="rgb(0,0,0)" stroke="rgb(0,0,0)" stroke-width="1" opacity="1" d="M 254.5 32 L 276.5 34 L 299.5 41 Q 324.6 51.9 341 71.5 Q 353.5 86 361 105.5 L 366 123.5 L 367 143.5 L 368 144.5 L 367 145.5 L 366 164.5 L 359 187.5 Q 348 212.5 328.5 229 Q 311.9 243.4 288.5 251 L 270.5 255 L 241.5 255 Q 195.4 246.6 171 216.5 Q 158.5 202 151 182.5 L 146 164.5 L 144 142.5 L 145 141.5 L 145 129.5 L 147 118.5 L 153 100.5 Q 163.6 76.1 182.5 60 Q 197.2 46.7 217.5 39 L 235.5 34 L 253.5 33 L 254.5 32 Z M 245 64 L 226 69 L 207 80 Q 183 98 176 133 L 176 157 L 178 166 Q 183 182 192 194 Q 209 217 244 224 L 269 224 L 278 222 Q 294 217 306 208 Q 329 191 336 157 L 336 132 L 334 123 Q 329 106 320 95 Q 307 78 287 69 L 269 64 L 245 64 Z " /><path fill="rgb(0,0,0)" stroke="rgb(0,0,0)" stroke-width="1" opacity="1" d="M 172.5 288 L 339.5 288 L 340.5 289 L 361.5 290 Q 414 300.5 443 334.5 Q 460.9 353.6 471 380.5 L 476 396.5 L 479 413.5 L 479 438.5 Q 474.7 457.7 461.5 468 L 448.5 476 L 438.5 479 L 430.5 479 L 429.5 480 L 82.5 480 L 81.5 479 L 73.5 479 L 63.5 476 Q 51.7 470.8 44 461.5 Q 35.9 452.6 33 438.5 L 33 413.5 L 37 392.5 Q 41.6 376.1 49 362.5 Q 60.9 340.9 78.5 325 Q 97.6 307.1 124.5 297 L 150.5 290 L 171.5 289 L 172.5 288 Z M 160 320 L 141 324 L 128 329 L 104 344 Q 88 357 77 376 L 68 397 L 64 416 L 64 435 L 66 440 Q 70 446 78 448 L 435 448 L 440 446 L 448 436 L 448 416 L 444 397 Q 437 375 424 360 Q 402 330 360 321 Q 354 323 353 320 L 160 320 Z " /><path fill="rgb(0,0,0)" stroke="rgb(0,0,0)" stroke-width="1" opacity="0.8980392156862745" d="M 250.5 32 L 254 32.5 L 250.5 33 L 250.5 32 Z " /><path fill="rgb(0,0,0)" stroke="rgb(0,0,0)" stroke-width="1" opacity="0.8980392156862745" d="M 258.5 32 L 262 32.5 L 258.5 33 L 258.5 32 Z " /><path fill="rgb(0,0,0)" stroke="rgb(0,0,0)" stroke-width="1" opacity="0.8980392156862745" d="M 367.5 138 L 368 140.5 L 367 140.5 L 367.5 138 Z " /><path fill="rgb(0,0,0)" stroke="rgb(0,0,0)" stroke-width="1" opacity="0.8980392156862745" d="M 367.5 147 L 368 149.5 L 367 149.5 L 367.5 147 Z " /><path fill="rgb(0,0,0)" stroke="rgb(0,0,0)" stroke-width="1" opacity="0.8980392156862745" d="M 250.5 255 L 258 255.5 L 250.5 256 L 250.5 255 Z " /><path fill="rgb(0,0,0)" stroke="rgb(0,0,0)" stroke-width="1" opacity="0.8980392156862745" d="M 259.5 255 L 262 255.5 L 259.5 256 L 259.5 255 Z " /><path fill="rgb(0,0,0)" stroke="rgb(0,0,0)" stroke-width="1" opacity="0.8980392156862745" d="M 167.5 288 L 172 288.5 L 167.5 289 L 167.5 288 Z " /><path fill="rgb(0,0,0)" stroke="rgb(0,0,0)" stroke-width="1" opacity="0.8980392156862745" d="M 340.5 288 L 345 288.5 L 340.5 289 L 340.5 288 Z " /><path fill="rgb(0,0,0)" stroke="rgb(0,0,0)" stroke-width="1" opacity="0.8980392156862745" d="M 421.5 357 L 422.5 359 L 421.5 357 Z " /><path fill="rgb(0,0,0)" stroke="rgb(0,0,0)" stroke-width="1" opacity="0.8980392156862745" d="M 32.5 423 L 33 426.5 L 32 426.5 L 32.5 423 Z " /><path fill="rgb(0,0,0)" stroke="rgb(0,0,0)" stroke-width="1" opacity="0.8980392156862745" d="M 479.5 423 L 480 426.5 L 479 426.5 L 479.5 423 Z " /></svg>