<svg width="512" height="512" version="1.1" xmlns="http://www.w3.org/2000/svg" desc="Created with imagetracer.js version 1.2.6" ><path fill="rgb(0,0,0)" stroke="rgb(0,0,0)" stroke-width="1" opacity="0" d="M 0 0 L 512 0 L 512 512 L 0 512 L 0 0 Z M 123 21 L 122 22 L 107 23 L 93 27 Q 74 34 61 45 Q 43 59 32 81 L 25 99 L 22 113 L 22 122 L 21 123 L 21 305 L 22 306 L 23 320 L 29 340 Q 36 356 47 369 Q 59 382 76 392 Q 89 400 107 403 L 107 456 Q 110 469 118 478 L 134 488 L 147 491 L 159 490 L 176 482 L 253 405 L 397 405 L 416 401 L 427 397 Q 442 390 454 380 Q 472 364 483 340 L 489 320 L 490 306 L 491 305 L 491 123 L 490 122 L 490 113 L 485 93 Q 478 74 467 61 Q 453 44 434 33 L 414 25 L 400 22 L 391 22 L 390 21 L 123 21 Z " /><path fill="rgb(0,0,0)" stroke="rgb(0,0,0)" stroke-width="1" opacity="0" d="M 120.5 64 L 391.5 64 Q 419.7 68.8 434 87.5 L 444 104.5 L 448 120.5 L 448 305.5 L 446 315.5 L 441 328.5 L 427.5 346 Q 418.8 354.3 406.5 359 L 387.5 363 L 238.5 363 L 235.5 364 L 231.5 366 L 150.5 447 L 149 447 L 149 378.5 Q 146.9 371.1 141.5 367 L 133.5 363 L 116.5 362 L 105.5 359 Q 91 353 81 342.5 L 69 324.5 L 64 306.5 L 64 120.5 Q 68.8 92.3 87.5 78 L 104.5 68 L 120.5 64 Z M 158 181 L 149 183 L 142 187 Q 131 194 128 209 Q 127 225 134 233 Q 141 242 154 245 L 167 245 L 180 239 Q 189 232 192 219 L 192 209 L 187 196 Q 181 187 172 183 L 158 181 Z M 254 181 L 245 183 L 238 187 Q 227 194 224 209 Q 223 225 230 233 Q 237 242 250 245 L 263 245 L 276 239 Q 285 232 288 219 L 288 209 L 283 196 Q 277 187 268 183 L 254 181 Z M 350 181 L 341 183 L 334 187 Q 323 194 320 209 Q 319 225 326 233 Q 333 242 346 245 L 359 245 L 372 239 Q 381 232 384 219 L 384 209 L 379 196 Q 373 187 364 183 L 350 181 Z " /><path fill="rgb(0,0,0)" stroke="rgb(0,0,0)" stroke-width="1" opacity="0.9921568627450981" d="M 122.5 21 L 389.5 21 L 390.5 22 L 399.5 22 L 413.5 25 L 433.5 33 Q 453.3 43.7 467 60.5 Q 478.5 74 485 92.5 L 490 112.5 L 490 121.5 L 491 122.5 L 491 304.5 L 490 305.5 L 489 319.5 L 483 339.5 Q 472.4 363.9 453.5 380 Q 441.8 390.3 426.5 397 L 415.5 401 L 396.5 405 L 252.5 405 L 175.5 482 L 158.5 490 L 146.5 491 L 133.5 488 L 118 477.5 Q 109.8 469.2 107 455.5 L 107 403 Q 89 400.2 75.5 392 Q 59 382.5 47 368.5 Q 36.1 355.9 29 339.5 L 23 319.5 L 22 305.5 L 21 304.5 L 21 122.5 L 22 121.5 L 22 112.5 L 25 98.5 L 32 80.5 Q 42.9 59.4 60.5 45 Q 74.3 33.8 92.5 27 L 106.5 23 L 121.5 22 L 122.5 21 Z M 121 64 L 105 68 L 88 78 Q 69 92 64 121 L 64 307 L 69 325 L 81 343 Q 91 353 106 359 L 117 362 L 134 363 L 142 367 Q 147 371 149 379 L 149 447 L 151 447 L 232 366 L 236 364 L 239 363 L 388 363 L 407 359 Q 419 354 428 346 L 441 329 L 446 316 L 448 306 L 448 121 L 444 105 L 434 88 Q 420 69 392 64 L 121 64 Z " /><path fill="rgb(0,0,0)" stroke="rgb(0,0,0)" stroke-width="1" opacity="0.9921568627450981" d="M 157.5 181 L 171.5 183 Q 181.2 187.3 187 195.5 L 192 208.5 L 192 218.5 Q 189.1 232.1 179.5 239 L 166.5 245 L 153.5 245 Q 140.8 241.7 134 232.5 Q 127 224.5 128 208.5 Q 130.9 193.9 141.5 187 L 148.5 183 L 157.5 181 Z " /><path fill="rgb(0,0,0)" stroke="rgb(0,0,0)" stroke-width="1" opacity="0.9921568627450981" d="M 253.5 181 L 267.5 183 Q 277.2 187.3 283 195.5 L 288 208.5 L 288 218.5 Q 285.1 232.1 275.5 239 L 262.5 245 L 249.5 245 Q 236.8 241.7 230 232.5 Q 223 224.5 224 208.5 Q 226.9 193.9 237.5 187 L 244.5 183 L 253.5 181 Z " /><path fill="rgb(0,0,0)" stroke="rgb(0,0,0)" stroke-width="1" opacity="0.9921568627450981" d="M 349.5 181 L 363.5 183 Q 373.2 187.3 379 195.5 L 384 208.5 L 384 218.5 Q 381.1 232.1 371.5 239 L 358.5 245 L 345.5 245 Q 332.8 241.7 326 232.5 Q 319 224.5 320 208.5 Q 322.9 193.9 333.5 187 L 340.5 183 L 349.5 181 Z " /></svg>