<svg width="450" height="465" version="1.1" xmlns="http://www.w3.org/2000/svg" desc="Created with imagetracer.js version 1.2.6" ><path fill="rgb(0,0,0)" stroke="rgb(0,0,0)" stroke-width="1" opacity="0" d="M 0 0 L 450 0 L 450 465 L 0 465 L 0 0 Z M 226 81 L 73 147 L 71 149 L 71 357 L 74 359 L 87 365 L 226 424 L 232 423 L 254 414 L 381 359 L 383 357 L 383 149 L 362 138 L 243 87 L 226 81 Z " /><path fill="rgb(0,0,0)" stroke="rgb(0,0,0)" stroke-width="1" opacity="0" d="M 225.5 128 L 228.5 128 L 243.5 134 L 380 192.5 L 229.5 258 L 225.5 258 L 105.5 207 L 96.5 202 L 75 194 Q 73.9 191.3 76.5 192 L 225.5 128 Z " /><path fill="rgb(55,97,160)" stroke="rgb(55,97,160)" stroke-width="1" opacity="0.996078431372549" d="M 380.5 148 L 381.5 150 L 380.5 148 Z " /><path fill="rgb(55,97,160)" stroke="rgb(55,97,160)" stroke-width="1" opacity="0.996078431372549" d="M 361.5 182 L 364 183.5 L 362.5 184 L 361.5 182 Z " /><path fill="rgb(55,97,160)" stroke="rgb(55,97,160)" stroke-width="1" opacity="0.996078431372549" d="M 381.5 184 L 382 187.5 L 381 187.5 L 381.5 184 Z " /><path fill="rgb(55,97,160)" stroke="rgb(55,97,160)" stroke-width="1" opacity="0.996078431372549" d="M 375.5 188 L 376.5 190 L 375.5 188 Z " /><path fill="rgb(55,97,160)" stroke="rgb(55,97,160)" stroke-width="1" opacity="0.996078431372549" d="M 72 194 L 80 196 L 80.5 198 L 82.5 198 L 89 200 L 89.5 202 L 90.5 201 L 94.5 203 L 101 205 L 101.5 207 L 103 206.5 L 103 208 L 108 208 L 108 209.5 L 110.5 210 Q 112.8 209.3 112 211.5 L 113.5 211 L 117 212 L 117.5 214 L 119 213.5 L 119.5 215 L 122 214 L 120 217.5 L 123 218 L 123.5 215 L 124.5 219 L 129 217 L 129.5 219 L 131 218.5 L 131.5 220 L 133 219.5 L 133.5 221 L 135.5 220 L 135.5 222 L 137.5 221 Q 135.8 223 139.5 225 Q 142.8 223.9 142 226.5 L 140.5 226 L 135.5 225 L 136.5 227 L 150.5 233 L 154 230.5 Q 148.8 232.7 152.5 235 L 215.5 267 L 218 267 L 218 386.5 L 216.5 387 L 102 330.5 L 101.5 259 L 100.5 277 L 99 276.5 L 98 304 Q 94.3 302.8 96 308 L 92 308 L 92 304 L 96 303.5 L 96 294 L 88 295.5 L 94 296.5 L 90.5 301 L 86 303.5 L 88 304 L 86.5 308 L 84 309.5 L 82.5 312 Q 78.8 310.8 80 314.5 L 78 315.5 L 77.5 306 L 73.5 311 L 73 298.5 L 72 296.5 L 73 294.5 L 72 292.5 L 73 290.5 L 73 288.5 L 73 272.5 L 72 271.5 L 72 194 Z M 113 213 L 113 214 L 115 214 L 113 213 Z M 133 223 L 133 225 L 135 224 L 133 223 Z M 97 280 L 96 288 L 97 288 L 97 280 Z M 92 290 Q 91 294 96 292 Q 97 288 92 290 Z " /><path fill="rgb(55,97,160)" stroke="rgb(55,97,160)" stroke-width="1" opacity="0.996078431372549" d="M 139.5 222 L 140.5 224 L 139.5 222 Z " /><path fill="rgb(55,97,160)" stroke="rgb(55,97,160)" stroke-width="1" opacity="0.996078431372549" d="M 144.5 225 L 148.5 227 L 150 226.5 L 147 228.5 L 147.5 227 Q 144.2 225.9 145 228.5 L 143 227.5 L 145 226.5 L 144.5 225 Z " /><path fill="rgb(55,97,160)" stroke="rgb(55,97,160)" stroke-width="1" opacity="0.996078431372549" d="M 156.5 229 L 157.5 231 L 159 230.5 L 160.5 233 L 163.5 232 L 162.5 234 Q 157.8 233.8 156 230.5 L 156.5 229 Z " /><path fill="rgb(55,97,160)" stroke="rgb(55,97,160)" stroke-width="1" opacity="0.996078431372549" d="M 161.5 235 L 160.5 237 L 161.5 235 Z " /><path fill="rgb(55,97,160)" stroke="rgb(55,97,160)" stroke-width="1" opacity="0.996078431372549" d="M 170.5 235 L 171 236.5 L 169.5 239 L 173 238 L 172.5 240 L 170.5 240 L 168 238.5 L 170.5 235 Z " /><path fill="rgb(55,97,160)" stroke="rgb(55,97,160)" stroke-width="1" opacity="0.996078431372549" d="M 167.5 236 L 166.5 238 L 165 237.5 L 167.5 236 Z " /><path fill="rgb(55,97,160)" stroke="rgb(55,97,160)" stroke-width="1" opacity="0.996078431372549" d="M 162.5 237 L 163.5 239 L 162.5 237 Z " /><path fill="rgb(55,97,160)" stroke="rgb(55,97,160)" stroke-width="1" opacity="0.996078431372549" d="M 100.5 289 L 101 294.5 L 100 294.5 L 100.5 289 Z " /><path fill="rgb(55,97,160)" stroke="rgb(55,97,160)" stroke-width="1" opacity="0.996078431372549" d="M 100.5 296 L 101 302.5 L 100 302.5 L 100.5 296 Z " /><path fill="rgb(55,97,160)" stroke="rgb(55,97,160)" stroke-width="1" opacity="0.996078431372549" d="M 97.5 309 L 98 312 L 96 311.5 L 97.5 309 Z " /><path fill="rgb(55,97,160)" stroke="rgb(55,97,160)" stroke-width="1" opacity="0.996078431372549" d="M 80 316 Q 85.2 313.9 84 318.5 Q 82.8 321.3 81.5 319 Q 78.5 319.7 80 316 Z " /><path fill="rgb(55,97,160)" stroke="rgb(55,97,160)" stroke-width="1" opacity="0.996078431372549" d="M 74 320 L 78 320.5 L 78 335.5 L 77 336.5 L 77 350.5 L 75 352.5 L 76.5 353 L 78.5 352 L 80 354.5 L 79 354.5 Q 79.8 352.3 77.5 353 L 77.5 355 L 74.5 354 L 72 355.5 L 76 350.5 L 76 336.5 L 75 335.5 L 75 325.5 L 74 320 Z M 77 322 L 76 336 L 77 336 L 77 322 Z " /><path fill="rgb(55,97,160)" stroke="rgb(55,97,160)" stroke-width="1" opacity="0.996078431372549" d="M 88 320 L 91 320.5 L 88 322.5 L 88 320 Z " /><path fill="rgb(55,97,160)" stroke="rgb(55,97,160)" stroke-width="1" opacity="0.996078431372549" d="M 96 328 L 98 328.5 L 96 329.5 L 96 328 Z " /><path fill="rgb(55,97,160)" stroke="rgb(55,97,160)" stroke-width="1" opacity="0.996078431372549" d="M 90.5 360 L 92 363 L 90 362.5 L 90.5 360 Z " /><path fill="rgb(55,97,160)" stroke="rgb(55,97,160)" stroke-width="1" opacity="0.996078431372549" d="M 85 361 L 87.5 362 L 89 361.5 L 87.5 364 L 86.5 362 L 85 362.5 L 85 361 Z " /><path fill="rgb(55,97,160)" stroke="rgb(55,97,160)" stroke-width="1" opacity="0.996078431372549" d="M 93.5 364 L 92.5 366 L 93.5 364 Z " /><path fill="rgb(55,97,160)" stroke="rgb(55,97,160)" stroke-width="1" opacity="0.996078431372549" d="M 96.5 366 L 97.5 368 L 96.5 366 Z " /><path fill="rgb(92,138,205)" stroke="rgb(92,138,205)" stroke-width="1" opacity="0.9137254901960784" d="M 225.5 81 L 242.5 87 L 361.5 138 L 383 148.5 L 383 356.5 L 380.5 359 L 253.5 414 L 231.5 423 L 225.5 424 L 86.5 365 L 73.5 359 L 71 356.5 L 71 148.5 L 72.5 147 L 225.5 81 Z M 226 128 L 77 192 Q 74 191 75 194 L 97 202 L 106 207 L 226 258 Q 232 259 235 255 L 236 256 L 230 259 L 225 259 L 75 194 L 72 195 L 72 357 L 226 423 L 234 421 L 382 357 L 382 193 L 351 207 L 349 207 L 380 193 L 244 134 L 229 128 L 226 128 Z M 382 184 L 381 188 L 382 188 L 382 184 Z " /><path fill="rgb(92,138,205)" stroke="rgb(92,138,205)" stroke-width="1" opacity="0.9137254901960784" d="M 346.5 207 L 348 207.5 L 342.5 210 L 342.5 209 L 346.5 207 Z " /><path fill="rgb(92,138,205)" stroke="rgb(92,138,205)" stroke-width="1" opacity="0.9137254901960784" d="M 339.5 210 L 341 210.5 L 307.5 225 L 307.5 224 L 339.5 210 Z " /><path fill="rgb(92,138,205)" stroke="rgb(92,138,205)" stroke-width="1" opacity="0.9137254901960784" d="M 304.5 225 L 306 225.5 L 300.5 228 L 300.5 227 L 304.5 225 Z " /><path fill="rgb(92,138,205)" stroke="rgb(92,138,205)" stroke-width="1" opacity="0.9137254901960784" d="M 297.5 228 L 299 228.5 L 293.5 231 L 293.5 230 L 297.5 228 Z " /><path fill="rgb(92,138,205)" stroke="rgb(92,138,205)" stroke-width="1" opacity="0.9137254901960784" d="M 290.5 231 L 292 231.5 L 286.5 234 L 286.5 233 L 290.5 231 Z " /><path fill="rgb(92,138,205)" stroke="rgb(92,138,205)" stroke-width="1" opacity="0.9137254901960784" d="M 283.5 234 L 285 234.5 L 258.5 246 L 258.5 245 L 283.5 234 Z " /><path fill="rgb(92,138,205)" stroke="rgb(92,138,205)" stroke-width="1" opacity="0.9137254901960784" d="M 255.5 246 L 257 246.5 L 251.5 249 L 251.5 248 L 255.5 246 Z " /><path fill="rgb(92,138,205)" stroke="rgb(92,138,205)" stroke-width="1" opacity="0.9137254901960784" d="M 248.5 249 L 250 249.5 L 244.5 252 L 244.5 251 L 248.5 249 Z " /><path fill="rgb(92,138,205)" stroke="rgb(92,138,205)" stroke-width="1" opacity="0.9137254901960784" d="M 241.5 252 L 243 252.5 L 237.5 255 L 237.5 254 L 241.5 252 Z " /><path fill="rgb(29,66,128)" stroke="rgb(29,66,128)" stroke-width="1" opacity="0.996078431372549" d="M 379.5 194 L 382 194.5 L 382 357 L 311.5 387 L 311.5 386 L 315.5 383 Q 320 384 321 381.5 L 320.5 380 L 322.5 381 L 327.5 378 L 328.5 379 L 331.5 376 L 332.5 377 L 338 373.5 L 336 372.5 L 336.5 368 L 338 371.5 L 339.5 374 L 343 373 L 343 371 L 347 371 L 347 369.5 L 346.5 368 L 349.5 370 L 355.5 366 L 359 366 L 359.5 364 L 362 365 L 360.5 361 L 358.5 361 L 355 360.5 L 360.5 360 L 362.5 361 L 364 360.5 Q 363.1 363.9 368.5 362 Q 370.2 356.8 377 358 L 377.5 356 L 380 357 L 381 354.5 L 379 353.5 L 381 351.5 L 381 199.5 L 379 199.5 Q 381.8 198.4 381 195 L 379.5 194 Z " /><path fill="rgb(29,66,128)" stroke="rgb(29,66,128)" stroke-width="1" opacity="0.996078431372549" d="M 377.5 195 L 377 196.5 L 378 198.5 L 376 199.5 L 376.5 198 Q 373.9 198.7 375 196 L 377.5 195 Z " /><path fill="rgb(29,66,128)" stroke="rgb(29,66,128)" stroke-width="1" opacity="0.996078431372549" d="M 372.5 197 Q 374.8 196.3 374 198.5 Q 372.3 196.9 370.5 200 L 368 199.5 L 372.5 197 Z " /><path fill="rgb(29,66,128)" stroke="rgb(29,66,128)" stroke-width="1" opacity="0.996078431372549" d="M 365.5 200 L 367 200.5 L 349.5 210 L 347.5 210 L 343 211.5 L 343.5 213 Q 342 210.5 340.5 214 L 337.5 213 L 332.5 217 L 326 218 L 326.5 220 L 328 219.5 L 327.5 222 L 325.5 222 L 322.5 221 Q 321 224.5 319.5 222 L 309 226 L 308.5 229 L 304.5 228 L 298.5 231 L 298 229 L 365.5 200 Z " /><path fill="rgb(29,66,128)" stroke="rgb(29,66,128)" stroke-width="1" opacity="0.996078431372549" d="M 367.5 203 Q 371.7 201.9 370 206 L 364 206 L 364 204 L 367.5 203 Z " /><path fill="rgb(29,66,128)" stroke="rgb(29,66,128)" stroke-width="1" opacity="0.996078431372549" d="M 344.5 214 L 343.5 216 L 344.5 214 Z " /><path fill="rgb(29,66,128)" stroke="rgb(29,66,128)" stroke-width="1" opacity="0.996078431372549" d="M 347.5 215 L 352 216 Q 353.3 219 349.5 218 L 347.5 215 Z " /><path fill="rgb(29,66,128)" stroke="rgb(29,66,128)" stroke-width="1" opacity="0.996078431372549" d="M 334 218 Q 337 217 336 220 Q 333 221 334 218 Z " /><path fill="rgb(29,66,128)" stroke="rgb(29,66,128)" stroke-width="1" opacity="0.996078431372549" d="M 295.5 230 Q 298.1 229.3 297 232 L 287 235.5 L 287.5 237 L 284 235.5 L 295.5 230 Z " /><path fill="rgb(29,66,128)" stroke="rgb(29,66,128)" stroke-width="1" opacity="0.996078431372549" d="M 312.5 232 L 314 232.5 Q 313.5 236.5 308.5 236 L 310.5 233 L 312.5 232 Z " /><path fill="rgb(29,66,128)" stroke="rgb(29,66,128)" stroke-width="1" opacity="0.996078431372549" d="M 281.5 236 L 283 236.5 Q 278.6 241.9 270 242 L 269.5 244 L 268 243.5 Q 268.8 245.8 266.5 245 L 263.5 246 L 256.5 248 L 256.5 247 L 281.5 236 Z " /><path fill="rgb(29,66,128)" stroke="rgb(29,66,128)" stroke-width="1" opacity="0.996078431372549" d="M 289.5 237 L 292 237.5 L 289 238 Q 290.1 240.7 287.5 240 L 289.5 237 Z " /><path fill="rgb(29,66,128)" stroke="rgb(29,66,128)" stroke-width="1" opacity="0.996078431372549" d="M 285.5 238 L 284.5 240 L 285.5 238 Z " /><path fill="rgb(29,66,128)" stroke="rgb(29,66,128)" stroke-width="1" opacity="0.996078431372549" d="M 271.5 245 L 272 247.5 L 271 247.5 L 271.5 245 Z " /><path fill="rgb(29,66,128)" stroke="rgb(29,66,128)" stroke-width="1" opacity="0.996078431372549" d="M 200.5 248 L 203 249.5 L 201.5 250 L 200.5 248 Z " /><path fill="rgb(29,66,128)" stroke="rgb(29,66,128)" stroke-width="1" opacity="0.996078431372549" d="M 254.5 248 L 253.5 250 L 244.5 255 L 236.5 257 L 232.5 260 L 230.5 260 L 228 260.5 L 230 261.5 L 228 262.5 L 230 263 Q 231.3 267.1 228 266 L 227 262.5 L 228.5 259 L 254.5 248 Z " /><path fill="rgb(29,66,128)" stroke="rgb(29,66,128)" stroke-width="1" opacity="0.996078431372549" d="M 262 250 L 266 251.5 L 262 252 L 262 250 Z " /><path fill="rgb(29,66,128)" stroke="rgb(29,66,128)" stroke-width="1" opacity="0.996078431372549" d="M 255.5 251 L 255.5 254 L 252 252.5 L 255.5 251 Z " /><path fill="rgb(29,66,128)" stroke="rgb(29,66,128)" stroke-width="1" opacity="0.996078431372549" d="M 220.5 257 L 224 258 L 223.5 260 L 220.5 257 Z " /><path fill="rgb(29,66,128)" stroke="rgb(29,66,128)" stroke-width="1" opacity="0.996078431372549" d="M 238.5 264 L 239.5 266 Q 236.7 266.7 238.5 264 Z " /><path fill="rgb(29,66,128)" stroke="rgb(29,66,128)" stroke-width="1" opacity="0.996078431372549" d="M 367.5 356 L 370 356.5 L 366.5 358 L 367.5 356 Z " /><path fill="rgb(29,66,128)" stroke="rgb(29,66,128)" stroke-width="1" opacity="0.996078431372549" d="M 320 368 Q 323 367 322 370 Q 319 371 320 368 Z " /><path fill="rgb(29,66,128)" stroke="rgb(29,66,128)" stroke-width="1" opacity="0.996078431372549" d="M 328.5 370 L 331 371.5 L 326.5 372 L 326.5 371 L 328.5 370 Z " /><path fill="rgb(29,66,128)" stroke="rgb(29,66,128)" stroke-width="1" opacity="0.996078431372549" d="M 321.5 376 L 323 376.5 L 321 377.5 L 321.5 379 Q 318.5 377.5 321.5 376 Z " /><path fill="rgb(29,66,128)" stroke="rgb(29,66,128)" stroke-width="1" opacity="0.996078431372549" d="M 128.5 380 L 134 382.5 L 132.5 383 L 128.5 381 L 128.5 380 Z " /><path fill="rgb(29,66,128)" stroke="rgb(29,66,128)" stroke-width="1" opacity="0.996078431372549" d="M 137.5 384 L 141 385.5 L 139.5 386 L 137.5 384 Z " /><path fill="rgb(29,66,128)" stroke="rgb(29,66,128)" stroke-width="1" opacity="0.996078431372549" d="M 302 384 L 305 384.5 L 299.5 387 L 299.5 386 Q 303.3 387 302 384 Z " /><path fill="rgb(29,66,128)" stroke="rgb(29,66,128)" stroke-width="1" opacity="0.996078431372549" d="M 307.5 384 L 308 386 L 306 385.5 L 307.5 384 Z " /><path fill="rgb(29,66,128)" stroke="rgb(29,66,128)" stroke-width="1" opacity="0.996078431372549" d="M 303.5 388 L 305.5 389 L 307.5 388 L 307.5 389 L 304.5 390 L 303.5 388 Z " /><path fill="rgb(29,66,128)" stroke="rgb(29,66,128)" stroke-width="1" opacity="0.996078431372549" d="M 288 390 Q 291 389 290 392 Q 287 393 288 390 Z " /><path fill="rgb(29,66,128)" stroke="rgb(29,66,128)" stroke-width="1" opacity="0.996078431372549" d="M 299.5 390 L 302 390.5 L 235.5 420 L 225.5 423 L 221 421 Q 220 418 223 419 Q 221.9 421.7 224.5 421 L 225.5 418 L 225.5 420 L 229.5 421 L 235.5 417 L 237.5 418 L 243.5 414 L 247 414 L 247.5 412 L 250 413 L 248.5 409 L 246.5 409 L 243 408.5 L 248.5 408 Q 250.8 410.7 256.5 410 L 259.5 407 Q 264 408 265 405.5 L 264.5 404 L 266.5 404 L 274.5 402 L 283.5 396 Q 288.1 396.6 289.5 394 L 291 394.5 L 291.5 393 Q 293 395.5 294.5 392 L 299.5 390 Z " /><path fill="rgb(29,66,128)" stroke="rgb(29,66,128)" stroke-width="1" opacity="0.996078431372549" d="M 280.5 392 L 281.5 394 L 280.5 392 Z " /><path fill="rgb(29,66,128)" stroke="rgb(29,66,128)" stroke-width="1" opacity="0.996078431372549" d="M 273.5 394 Q 276.5 393.2 275 397 Q 271.2 398.5 272 395.5 L 273.5 394 Z " /><path fill="rgb(29,66,128)" stroke="rgb(29,66,128)" stroke-width="1" opacity="0.996078431372549" d="M 163.5 395 L 169 397.5 L 167.5 398 L 163.5 396 L 163.5 395 Z " /><path fill="rgb(29,66,128)" stroke="rgb(29,66,128)" stroke-width="1" opacity="0.996078431372549" d="M 170.5 397 L 176 400.5 L 174.5 401 L 170 399 L 170.5 397 Z " /><path fill="rgb(29,66,128)" stroke="rgb(29,66,128)" stroke-width="1" opacity="0.996078431372549" d="M 178.5 401 L 187 405.5 L 185.5 405 Q 179 404.5 178.5 401 Z " /><path fill="rgb(29,66,128)" stroke="rgb(29,66,128)" stroke-width="1" opacity="0.996078431372549" d="M 255.5 404 L 259 404.5 Q 257.3 408.8 255.5 406 L 254 405.5 L 255.5 404 Z " /><path fill="rgb(29,66,128)" stroke="rgb(29,66,128)" stroke-width="1" opacity="0.996078431372549" d="M 194.5 408 L 197 409.5 L 195.5 410 L 194.5 408 Z " /><path fill="rgb(29,66,128)" stroke="rgb(29,66,128)" stroke-width="1" opacity="0.996078431372549" d="M 200.5 411 L 204 412.5 L 202.5 413 L 200.5 411 Z " /><path fill="rgb(29,66,128)" stroke="rgb(29,66,128)" stroke-width="1" opacity="0.996078431372549" d="M 205.5 413 L 209 413.5 Q 207.8 416.3 206.5 414 L 205.5 413 Z " /><path fill="rgb(29,66,128)" stroke="rgb(29,66,128)" stroke-width="1" opacity="0.996078431372549" d="M 210.5 415 L 220 419.5 L 218.5 420 L 211.5 417 L 210.5 415 Z " /><path fill="rgb(28,69,135)" stroke="rgb(28,69,135)" stroke-width="1" opacity="1" d="M 379.5 195 Q 381.8 194.3 381 196.5 L 379 196.5 L 381 199.5 L 381 352 Q 378 351 379 354 L 381 354.5 L 379.5 357 L 377 356 Q 378.4 359.7 372.5 358 L 368.5 362 L 366.5 362 Q 363.2 363.1 364 360.5 L 362.5 361 Q 360.3 360.3 361 362.5 L 363 362.5 L 362 365 Q 359 366 360 363 L 356.5 363 L 356.5 364 Q 360.3 363 359 366 L 355.5 366 L 348.5 370 L 347 369.5 Q 347.8 372.1 344.5 371 L 343 370.5 Q 344.1 373.8 341.5 373 L 339.5 374 Q 338 371.5 336.5 375 L 332.5 377 L 331.5 376 L 328.5 379 L 327.5 378 Q 324.9 377.3 326 380 L 323.5 380 L 321.5 380 L 320 380.5 Q 322.3 381.8 319.5 383 Q 313.5 382 312.5 386 L 311 385.5 Q 311.8 387.8 309.5 387 L 303.5 390 L 299.5 390 L 294.5 392 L 292.5 394 L 291.5 392 L 290.5 395 L 287 394.5 Q 287.8 397.1 284.5 396 L 283 395.5 L 281.5 398 L 280 397.5 Q 280.8 399.8 278.5 399 Q 276.2 403.1 270 402 Q 271.3 405.3 266.5 404 L 263.5 407 Q 257.5 406 256.5 410 L 254.5 410 L 249 409 L 249.5 411 L 251 410.5 L 250 413 Q 247 414 248 411 L 244.5 411 L 244.5 412 Q 248.3 411 247 414 L 243.5 414 L 236.5 418 L 234.5 418 L 231.5 420 L 230.5 418 L 230 421 L 225.5 420 L 223 421 L 222.5 417 L 220.5 420 L 215 416.5 L 214.5 415 L 210.5 415 Q 208.3 415.8 209 413.5 L 206.5 411 Q 205 414.5 203.5 412 L 201 410.5 L 200.5 409 L 199.5 411 L 199 409 L 192 408 L 191.5 406 L 189.5 406 L 187 405.5 L 187.5 404 L 179 402 L 182 396.5 L 180 396 L 180 394 Q 185.2 395.7 184 392 L 180 391.5 Q 183.8 387.8 192 388.5 L 184 387.5 L 192 386.5 L 184 385.5 L 193.5 385 L 199 381.5 L 196.5 381 L 194.5 382 L 195.5 380 L 197 379.5 L 193.5 379 L 192 379.5 Q 191.3 377.3 193.5 378 L 195.5 378 L 217.5 389 L 219 386.5 L 218 384.5 L 219 383.5 L 219.5 336 L 221 337.5 L 221.5 344 L 223 331 Q 226 329.8 225 333.5 L 226 333.5 L 226 325.5 L 227 324.5 L 227.5 264 L 228 266 Q 232 267.4 230 260.5 L 234.5 258 L 244.5 255 L 249.5 252 L 251 252.5 L 252.5 250 L 264.5 245 L 265.5 247 L 266.5 245 Q 267.8 247.3 269 244.5 L 268.5 243 L 270 243.5 Q 269.2 240.9 272.5 242 L 280 240 Q 278.9 237.3 281.5 238 L 285.5 236 L 288 237 Q 286.2 232.1 292.5 234 L 294 234.5 L 295.5 232 Q 297.8 232.8 297 230.5 L 299.5 230 L 307.5 228 L 309 228.5 Q 307.9 225.2 310.5 226 L 321.5 220 Q 322.9 222.6 327.5 222 L 326.5 220 L 325 220.5 L 328.5 217 L 336 216 L 337.5 213 L 340.5 214 L 344 212.5 L 343.5 211 L 348.5 209 L 351 209.5 L 351.5 211 L 353.5 207 L 359 206 Q 357.8 203 361.5 204 L 363 204.5 L 365.5 201 L 370.5 200 L 372.5 198 L 374.5 198 Q 376.8 197.3 376 199.5 L 378 198.5 L 377 196 L 379.5 195 Z M 367 202 L 367 204 Q 363 203 364 206 L 370 206 L 370 203 L 367 202 Z M 346 212 L 346 214 L 348 213 L 346 212 Z M 348 215 L 350 218 Q 353 219 352 216 L 348 215 Z M 334 218 Q 333 221 336 220 Q 337 217 334 218 Z M 313 232 L 311 233 L 309 236 Q 313 236 314 233 L 313 232 Z M 290 237 L 290 238 L 292 238 L 290 237 Z M 287 238 Q 286 241 289 240 Q 290 237 287 238 Z M 271 245 L 271 248 L 272 248 Q 273 244 271 245 Z M 262 250 L 262 252 L 266 252 L 262 250 Z M 253 252 L 255 254 L 256 254 L 253 252 Z M 239 264 Q 237 267 240 266 L 239 264 Z M 224 336 L 223 340 L 224 340 L 224 336 Z M 226 337 L 225 344 L 226 344 L 226 337 Z M 221 344 L 220 352 L 221 352 L 221 344 Z M 222 352 L 221 366 L 222 366 L 222 352 Z M 368 356 L 367 358 L 370 357 L 368 356 Z M 356 360 Q 355 362 359 361 Q 360 363 361 361 L 356 360 Z M 352 362 Q 351 365 354 364 Q 355 361 352 362 Z M 222 368 L 221 384 L 222 384 L 222 368 Z M 320 368 Q 319 371 322 370 Q 323 367 320 368 Z M 337 368 L 337 371 Q 340 370 337 368 Z M 340 369 L 339 372 L 340 372 L 340 369 Z M 329 370 L 327 371 L 327 372 L 331 372 L 329 370 Z M 338 371 L 336 374 L 338 373 L 338 371 Z M 221 384 L 220 387 L 221 387 L 221 384 Z M 302 384 L 302 386 L 305 385 L 302 384 Z M 308 384 L 306 386 Q 305 388 308 387 L 308 384 Z M 300 386 L 300 387 L 302 387 L 300 386 Z M 185 390 L 185 391 L 192 391 L 185 390 Z M 288 390 Q 287 393 290 392 Q 291 389 288 390 Z M 186 392 L 187 396 L 189 393 L 186 392 Z M 281 392 L 280 394 L 282 395 L 281 392 Z M 274 394 L 272 396 Q 271 399 275 397 Q 276 393 274 394 Z M 199 400 L 199 402 L 201 401 L 199 400 Z M 185 401 L 186 403 L 188 402 L 185 401 Z M 192 401 L 188 403 L 193 404 L 195 403 L 192 401 Z M 256 404 L 254 406 L 256 406 Q 257 409 259 405 L 256 404 Z M 202 408 L 202 409 L 204 409 L 202 408 Z M 244 408 Q 243 410 247 409 Q 248 411 249 409 L 244 408 Z M 240 410 Q 239 413 242 412 Q 243 409 240 410 Z M 224 418 L 224 420 L 226 419 L 224 418 Z " /><path fill="rgb(28,69,135)" stroke="rgb(28,69,135)" stroke-width="1" opacity="1" d="M 222.5 308 L 223 319.5 L 222 319.5 L 222.5 308 Z " /><path fill="rgb(28,69,135)" stroke="rgb(28,69,135)" stroke-width="1" opacity="1" d="M 185.5 373 L 187 373.5 L 183.5 375 L 183.5 374 L 185.5 373 Z " /><path fill="rgb(28,69,135)" stroke="rgb(28,69,135)" stroke-width="1" opacity="1" d="M 132.5 380 L 133.5 382 L 132.5 380 Z " /><path fill="rgb(28,69,135)" stroke="rgb(28,69,135)" stroke-width="1" opacity="1" d="M 188.5 383 L 192 383.5 L 188.5 384 L 188.5 383 Z " /><path fill="rgb(28,69,135)" stroke="rgb(28,69,135)" stroke-width="1" opacity="1" d="M 150.5 389 Q 154.9 387.5 154 390.5 L 152.5 390 Q 149.5 390.5 150.5 389 Z " /><path fill="rgb(28,69,135)" stroke="rgb(28,69,135)" stroke-width="1" opacity="1" d="M 167.5 392 L 170.5 393 L 172.5 392 L 172.5 393 L 169.5 394 L 167.5 392 Z " /><path fill="rgb(28,69,135)" stroke="rgb(28,69,135)" stroke-width="1" opacity="1" d="M 174.5 395 L 175.5 397 L 174 397.5 L 175.5 400 Q 172.9 400.7 174 398 L 171.5 398 L 171.5 397 Q 175 398 174.5 395 Z " /><path fill="rgb(34,77,144)" stroke="rgb(34,77,144)" stroke-width="1" opacity="0.996078431372549" d="M 358.5 205 L 359.5 207 L 358.5 205 Z " /><path fill="rgb(34,77,144)" stroke="rgb(34,77,144)" stroke-width="1" opacity="0.996078431372549" d="M 110.5 211 L 113 211.5 L 112.5 213 L 115 213.5 L 112.5 214 L 110.5 211 Z " /><path fill="rgb(34,77,144)" stroke="rgb(34,77,144)" stroke-width="1" opacity="0.996078431372549" d="M 117.5 213 L 116.5 215 L 117.5 213 Z " /><path fill="rgb(34,77,144)" stroke="rgb(34,77,144)" stroke-width="1" opacity="0.996078431372549" d="M 122.5 215 L 123 218 L 120 217.5 L 122.5 215 Z " /><path fill="rgb(34,77,144)" stroke="rgb(34,77,144)" stroke-width="1" opacity="0.996078431372549" d="M 124.5 216 L 128 218.5 L 126.5 218 L 122.5 220 L 122.5 219 Q 125.4 219.7 124.5 216 Z " /><path fill="rgb(34,77,144)" stroke="rgb(34,77,144)" stroke-width="1" opacity="0.996078431372549" d="M 131.5 219 L 130.5 221 L 129 220.5 L 131.5 219 Z " /><path fill="rgb(34,77,144)" stroke="rgb(34,77,144)" stroke-width="1" opacity="0.996078431372549" d="M 135.5 221 L 140.5 224 L 142.5 224 L 147 225.5 L 145 226.5 L 147.5 227 L 149.5 227 L 156 229 L 158.5 233 L 160 232.5 L 159.5 231 L 170 235.5 L 169 237.5 L 171.5 236 L 172.5 237 L 174.5 237 L 179.5 241 L 181.5 240 L 185 242 L 185.5 244 L 186.5 242 L 187 244 L 190.5 244 L 212 254.5 L 212.5 256 L 215 254.5 Q 214.3 256.8 216.5 256 L 223.5 260 L 226 259 Q 224.9 261.7 227.5 261 L 227 264.5 L 227 324.5 L 226 325.5 L 225.5 334 L 225 331 Q 221.3 329.6 223 335.5 L 224 339.5 L 223 339.5 L 222.5 336 L 221 351.5 L 222 352.5 L 222 365.5 L 221 365.5 L 220 344.5 Q 222.5 343 221 337.5 L 219 336.5 L 218.5 384 L 218 267 L 215.5 267 L 171.5 245 L 160.5 238 L 135 225.5 L 139 224.5 L 135.5 221 Z M 140 225 L 141 226 L 142 227 Q 143 224 140 225 Z M 144 227 L 145 229 Q 146 226 144 227 Z M 161 233 L 161 234 L 163 234 L 161 233 Z M 172 238 L 173 240 Q 174 237 172 238 Z M 223 308 L 222 320 L 223 320 L 223 308 Z " /><path fill="rgb(34,77,144)" stroke="rgb(34,77,144)" stroke-width="1" opacity="0.996078431372549" d="M 131.5 222 L 135 223.5 L 133 224.5 Q 133.8 222.3 131.5 223 L 130 223.5 L 131.5 222 Z " /><path fill="rgb(34,77,144)" stroke="rgb(34,77,144)" stroke-width="1" opacity="0.996078431372549" d="M 287.5 235 L 286.5 237 L 287.5 235 Z " /><path fill="rgb(34,77,144)" stroke="rgb(34,77,144)" stroke-width="1" opacity="0.996078431372549" d="M 268.5 244 L 267.5 246 L 268.5 244 Z " /><path fill="rgb(34,77,144)" stroke="rgb(34,77,144)" stroke-width="1" opacity="0.996078431372549" d="M 101.5 259 L 102 330.5 L 103.5 332 L 175 366 L 175.5 368 L 177.5 368 L 199 378.5 L 194 381.5 L 195.5 382 L 200.5 379 L 205 381.5 L 201.5 383 L 201.5 382 L 203 381.5 L 200.5 380 L 198.5 383 L 200 383.5 L 198.5 384 L 195.5 383 L 193.5 385 L 184 385.5 L 192 386.5 L 184 387.5 L 192 388.5 L 184 389.5 L 192 390.5 L 184.5 391 L 182.5 390 L 180 391.5 L 184 392 L 184 394 Q 178.8 392.3 180 396 L 182 396.5 L 178.5 401 L 176.5 402 L 174.5 398 L 172.5 399 L 172.5 398 L 174 397.5 L 167.5 397 L 160.5 393 L 157 393 L 156.5 391 L 153.5 392 L 152 390.5 L 154 390.5 Q 154.6 387.8 148.5 389 L 134 383 L 133.5 381 L 131.5 381 L 126.5 379 Q 125 381.5 123.5 378 L 109 373 L 108.5 371 L 106.5 372 L 96.5 366 L 94.5 366 L 88 363.5 L 89 361.5 L 86 362.5 L 86.5 361 L 82.5 361 L 73 356.5 L 72 354.5 L 72 298.5 L 73 298.5 L 73.5 311 L 77.5 306 L 78.5 316 L 80 312 L 84 310.5 L 85.5 308 L 88 306.5 Q 89.1 303.2 86.5 304 L 87.5 302 L 92 299.5 L 94 296.5 L 88 295.5 L 96 294 L 96 303.5 L 98 304 L 98 283.5 L 99.5 276 L 101 276.5 L 101.5 259 Z M 101 289 L 100 295 L 101 295 L 101 289 Z M 101 296 L 100 303 L 101 303 L 101 296 Z M 92 304 Q 90 310 96 308 Q 98 302 92 304 Z M 98 309 L 96 312 L 98 312 L 98 309 Z M 80 316 Q 78 320 82 319 Q 83 321 84 319 Q 85 314 80 316 Z M 74 320 L 76 336 L 77 322 L 77 336 L 78 336 L 78 321 L 74 320 Z M 88 320 L 88 323 L 91 321 L 88 320 Z M 96 328 L 96 330 L 98 329 L 96 328 Z M 77 336 L 76 351 L 77 351 L 77 336 Z M 75 352 L 73 355 L 75 354 L 77 355 L 78 355 L 75 352 Z M 92 361 L 90 363 L 92 363 L 92 361 Z M 195 377 L 192 378 L 193 380 L 197 379 L 195 377 Z M 189 383 L 189 384 L 192 384 L 189 383 Z M 175 395 Q 173 398 176 397 L 175 395 Z " /><path fill="rgb(34,77,144)" stroke="rgb(34,77,144)" stroke-width="1" opacity="0.996078431372549" d="M 72.5 272 L 73 288.5 L 72 288.5 L 72.5 272 Z " /><path fill="rgb(34,77,144)" stroke="rgb(34,77,144)" stroke-width="1" opacity="0.996078431372549" d="M 96.5 280 L 97 287.5 L 96 287.5 L 96.5 280 Z " /><path fill="rgb(34,77,144)" stroke="rgb(34,77,144)" stroke-width="1" opacity="0.996078431372549" d="M 92 290 Q 97.2 288.3 96 292 Q 90.8 293.7 92 290 Z " /><path fill="rgb(34,77,144)" stroke="rgb(34,77,144)" stroke-width="1" opacity="0.996078431372549" d="M 225.5 337 L 226 343.5 L 225 343.5 L 225.5 337 Z " /><path fill="rgb(34,77,144)" stroke="rgb(34,77,144)" stroke-width="1" opacity="0.996078431372549" d="M 356.5 363 L 360 363.5 L 356.5 364 L 356.5 363 Z " /><path fill="rgb(34,77,144)" stroke="rgb(34,77,144)" stroke-width="1" opacity="0.996078431372549" d="M 221.5 368 L 222 383.5 L 220.5 387 L 220 384.5 L 221 383.5 L 221.5 368 Z " /><path fill="rgb(34,77,144)" stroke="rgb(34,77,144)" stroke-width="1" opacity="0.996078431372549" d="M 342.5 369 L 343.5 371 L 342.5 369 Z " /><path fill="rgb(34,77,144)" stroke="rgb(34,77,144)" stroke-width="1" opacity="0.996078431372549" d="M 325.5 377 L 326.5 379 L 325.5 377 Z " /><path fill="rgb(34,77,144)" stroke="rgb(34,77,144)" stroke-width="1" opacity="0.996078431372549" d="M 206.5 382 L 217.5 387 L 219 386.5 L 217.5 389 L 206.5 383 L 206.5 382 Z " /><path fill="rgb(34,77,144)" stroke="rgb(34,77,144)" stroke-width="1" opacity="0.996078431372549" d="M 186 392 L 189 392.5 L 186.5 396 L 186 392 Z " /><path fill="rgb(34,77,144)" stroke="rgb(34,77,144)" stroke-width="1" opacity="0.996078431372549" d="M 280.5 393 L 281.5 395 L 280.5 393 Z " /><path fill="rgb(34,77,144)" stroke="rgb(34,77,144)" stroke-width="1" opacity="0.996078431372549" d="M 286.5 393 L 287.5 395 L 286.5 393 Z " /><path fill="rgb(34,77,144)" stroke="rgb(34,77,144)" stroke-width="1" opacity="0.996078431372549" d="M 181.5 400 L 184 401.5 L 182.5 401 L 181.5 400 Z " /><path fill="rgb(34,77,144)" stroke="rgb(34,77,144)" stroke-width="1" opacity="0.996078431372549" d="M 190.5 400 L 197 403.5 L 195.5 404 L 193.5 403 L 191.5 403 L 186.5 402 L 183.5 404 L 183.5 403 Q 186.1 403.7 185 401 L 187.5 401 L 190.5 402 L 190.5 400 Z " /><path fill="rgb(34,77,144)" stroke="rgb(34,77,144)" stroke-width="1" opacity="0.996078431372549" d="M 199 400 L 201 400.5 L 199 401.5 L 199 400 Z " /><path fill="rgb(34,77,144)" stroke="rgb(34,77,144)" stroke-width="1" opacity="0.996078431372549" d="M 191.5 406 L 190.5 408 L 191.5 406 Z " /><path fill="rgb(34,77,144)" stroke="rgb(34,77,144)" stroke-width="1" opacity="0.996078431372549" d="M 199.5 408 L 201.5 408 L 204 408.5 L 201 409 L 200.5 411 L 199.5 409 L 197.5 410 L 197.5 409 L 199.5 408 Z " /><path fill="rgb(34,77,144)" stroke="rgb(34,77,144)" stroke-width="1" opacity="0.996078431372549" d="M 206.5 411 L 207.5 413 L 205 412.5 L 206.5 411 Z " /><path fill="rgb(34,77,144)" stroke="rgb(34,77,144)" stroke-width="1" opacity="0.996078431372549" d="M 244.5 411 L 248 411.5 L 244.5 412 L 244.5 411 Z " /><path fill="rgb(34,77,144)" stroke="rgb(34,77,144)" stroke-width="1" opacity="0.996078431372549" d="M 208.5 414 L 209.5 416 L 208.5 414 Z " /></svg>