<svg width="512" height="512" version="1.1" xmlns="http://www.w3.org/2000/svg" desc="Created with imagetracer.js version 1.2.6" ><path fill="rgb(0,0,0)" stroke="rgb(0,0,0)" stroke-width="1" opacity="0" d="M 0 0 L 511.5 0 L 512 0.5 L 512 73.5 L 511 73.5 L 511 68.5 L 505 54.5 L 493.5 42 L 481.5 35 L 469.5 32 L 42.5 32 Q 20.6 35.6 10 50.5 Q 2.1 59.1 0.5 74 L 0 0 Z " /><path fill="rgb(0,0,0)" stroke="rgb(0,0,0)" stroke-width="1" opacity="0" d="M 45.5 64 L 466.5 64 Q 473.4 65.5 477 70.5 L 480 77.5 L 480 128 L 32.5 128 L 32 127.5 L 32 77.5 Q 33.6 70.5 38.5 67 L 45.5 64 Z " /><path fill="rgb(0,0,0)" stroke="rgb(0,0,0)" stroke-width="1" opacity="0" d="M 0.5 148 Q 1.9 155.1 7.5 158 L 12.5 160 L 32 160 L 32 467.5 Q 33.8 474.7 39.5 478 L 44.5 480 L 467.5 480 Q 474.7 478.2 478 472.5 L 480 467.5 L 480 160 L 499.5 160 Q 506.7 158.2 510 152.5 L 511.5 148 L 512 512 L 0 512 L 0.5 148 Z " /><path fill="rgb(0,0,0)" stroke="rgb(0,0,0)" stroke-width="1" opacity="0" d="M 64 160 L 448 160 L 448 448 L 64 448 L 64 160 Z M 203 192 L 191 195 L 179 202 Q 164 213 160 235 L 161 252 L 170 270 Q 181 284 203 288 L 310 288 L 322 285 L 334 278 Q 348 267 352 246 L 351 229 L 342 211 Q 331 196 310 192 L 203 192 Z " /><path fill="rgb(0,0,0)" stroke="rgb(0,0,0)" stroke-width="1" opacity="0" d="M 205.5 224 L 306.5 224 Q 313.4 225.6 317 230.5 L 320 237.5 L 320 242.5 Q 318.4 249.4 313.5 253 L 306.5 256 L 205.5 256 Q 198.5 254.5 195 249.5 L 192 242.5 L 192 237.5 Q 193.5 230.6 198.5 227 L 205.5 224 Z " /><path fill="rgb(0,0,0)" stroke="rgb(0,0,0)" stroke-width="1" opacity="0.796078431372549" d="M 42.5 32 L 47 32.5 L 42.5 33 L 42.5 32 Z " /><path fill="rgb(0,0,0)" stroke="rgb(0,0,0)" stroke-width="1" opacity="0.796078431372549" d="M 465.5 32 L 470 32.5 L 465.5 33 L 465.5 32 Z " /><path fill="rgb(0,0,0)" stroke="rgb(0,0,0)" stroke-width="1" opacity="0.796078431372549" d="M 18.5 42 L 16.5 45 L 18.5 42 Z " /><path fill="rgb(0,0,0)" stroke="rgb(0,0,0)" stroke-width="1" opacity="0.796078431372549" d="M 493.5 42 L 495.5 45 L 493.5 42 Z " /><path fill="rgb(0,0,0)" stroke="rgb(0,0,0)" stroke-width="1" opacity="0.796078431372549" d="M 12.5 48 L 10.5 51 L 12.5 48 Z " /><path fill="rgb(0,0,0)" stroke="rgb(0,0,0)" stroke-width="1" opacity="0.796078431372549" d="M 499.5 48 L 501.5 51 L 499.5 48 Z " /><path fill="rgb(0,0,0)" stroke="rgb(0,0,0)" stroke-width="1" opacity="0.796078431372549" d="M 0.5 74 L 1 78.5 L 0 78.5 L 0.5 74 Z " /><path fill="rgb(0,0,0)" stroke="rgb(0,0,0)" stroke-width="1" opacity="0.796078431372549" d="M 511.5 74 L 512 78.5 L 511 78.5 L 511.5 74 Z " /><path fill="rgb(0,0,0)" stroke="rgb(0,0,0)" stroke-width="1" opacity="0.796078431372549" d="M 0.5 145 L 1 147.5 L 0 147.5 L 0.5 145 Z " /><path fill="rgb(0,0,0)" stroke="rgb(0,0,0)" stroke-width="1" opacity="0.796078431372549" d="M 511.5 145 L 512 147.5 L 511 147.5 L 511.5 145 Z " /><path fill="rgb(0,0,0)" stroke="rgb(0,0,0)" stroke-width="1" opacity="0.796078431372549" d="M 2.5 152 L 7.5 158 L 2.5 152 Z " /><path fill="rgb(0,0,0)" stroke="rgb(0,0,0)" stroke-width="1" opacity="0.796078431372549" d="M 509.5 152 L 504.5 158 L 509.5 152 Z " /><path fill="rgb(0,0,0)" stroke="rgb(0,0,0)" stroke-width="1" opacity="0.796078431372549" d="M 12.5 159 L 15 159.5 L 12.5 160 L 12.5 159 Z " /><path fill="rgb(0,0,0)" stroke="rgb(0,0,0)" stroke-width="1" opacity="0.796078431372549" d="M 497.5 159 L 500 159.5 L 497.5 160 L 497.5 159 Z " /><path fill="rgb(0,0,0)" stroke="rgb(0,0,0)" stroke-width="1" opacity="0.796078431372549" d="M 202.5 192 L 207 192.5 L 202.5 193 L 202.5 192 Z " /><path fill="rgb(0,0,0)" stroke="rgb(0,0,0)" stroke-width="1" opacity="0.796078431372549" d="M 305.5 192 L 310 192.5 L 305.5 193 L 305.5 192 Z " /><path fill="rgb(0,0,0)" stroke="rgb(0,0,0)" stroke-width="1" opacity="0.796078431372549" d="M 178.5 202 L 176.5 205 L 178.5 202 Z " /><path fill="rgb(0,0,0)" stroke="rgb(0,0,0)" stroke-width="1" opacity="0.796078431372549" d="M 333.5 202 L 335.5 205 L 333.5 202 Z " /><path fill="rgb(0,0,0)" stroke="rgb(0,0,0)" stroke-width="1" opacity="0.796078431372549" d="M 172.5 208 L 170.5 211 L 172.5 208 Z " /><path fill="rgb(0,0,0)" stroke="rgb(0,0,0)" stroke-width="1" opacity="0.796078431372549" d="M 339.5 208 L 341.5 211 L 339.5 208 Z " /><path fill="rgb(0,0,0)" stroke="rgb(0,0,0)" stroke-width="1" opacity="0.796078431372549" d="M 160.5 234 L 161 238.5 L 160 238.5 L 160.5 234 Z " /><path fill="rgb(0,0,0)" stroke="rgb(0,0,0)" stroke-width="1" opacity="0.796078431372549" d="M 351.5 234 L 352 238.5 L 351 238.5 L 351.5 234 Z " /><path fill="rgb(0,0,0)" stroke="rgb(0,0,0)" stroke-width="1" opacity="0.796078431372549" d="M 160.5 241 L 161 245.5 L 160 245.5 L 160.5 241 Z " /><path fill="rgb(0,0,0)" stroke="rgb(0,0,0)" stroke-width="1" opacity="0.796078431372549" d="M 351.5 241 L 352 245.5 L 351 245.5 L 351.5 241 Z " /><path fill="rgb(0,0,0)" stroke="rgb(0,0,0)" stroke-width="1" opacity="0.796078431372549" d="M 170.5 269 L 172.5 272 L 170.5 269 Z " /><path fill="rgb(0,0,0)" stroke="rgb(0,0,0)" stroke-width="1" opacity="0.796078431372549" d="M 341.5 269 L 339.5 272 L 341.5 269 Z " /><path fill="rgb(0,0,0)" stroke="rgb(0,0,0)" stroke-width="1" opacity="0.796078431372549" d="M 176.5 275 L 178.5 278 L 176.5 275 Z " /><path fill="rgb(0,0,0)" stroke="rgb(0,0,0)" stroke-width="1" opacity="0.796078431372549" d="M 335.5 275 L 333.5 278 L 335.5 275 Z " /><path fill="rgb(0,0,0)" stroke="rgb(0,0,0)" stroke-width="1" opacity="0.796078431372549" d="M 202.5 287 L 207 287.5 L 202.5 288 L 202.5 287 Z " /><path fill="rgb(0,0,0)" stroke="rgb(0,0,0)" stroke-width="1" opacity="0.796078431372549" d="M 305.5 287 L 310 287.5 L 305.5 288 L 305.5 287 Z " /><path fill="rgb(0,0,0)" stroke="rgb(0,0,0)" stroke-width="1" opacity="0.796078431372549" d="M 32.5 465 L 33 467.5 L 32 467.5 L 32.5 465 Z " /><path fill="rgb(0,0,0)" stroke="rgb(0,0,0)" stroke-width="1" opacity="0.796078431372549" d="M 479.5 465 L 480 467.5 L 479 467.5 L 479.5 465 Z " /><path fill="rgb(0,0,0)" stroke="rgb(0,0,0)" stroke-width="1" opacity="0.796078431372549" d="M 34.5 472 L 39.5 478 L 34.5 472 Z " /><path fill="rgb(0,0,0)" stroke="rgb(0,0,0)" stroke-width="1" opacity="0.796078431372549" d="M 477.5 472 L 472.5 478 L 477.5 472 Z " /><path fill="rgb(0,0,0)" stroke="rgb(0,0,0)" stroke-width="1" opacity="0.796078431372549" d="M 44.5 479 L 47 479.5 L 44.5 480 L 44.5 479 Z " /><path fill="rgb(0,0,0)" stroke="rgb(0,0,0)" stroke-width="1" opacity="0.796078431372549" d="M 465.5 479 L 468 479.5 L 465.5 480 L 465.5 479 Z " /><path fill="rgb(0,0,0)" stroke="rgb(0,0,0)" stroke-width="1" opacity="1" d="M 47.5 32 L 464.5 32 L 465.5 33 L 473.5 33 L 482.5 36 Q 492.6 39.9 499 47.5 L 504 53.5 L 511 70.5 L 511 78.5 L 512 79.5 L 512 144.5 L 510 151.5 L 503.5 158 L 496.5 160 L 480 160 L 480 464.5 L 478 471.5 L 471.5 478 L 464.5 480 L 47.5 480 L 40.5 478 L 34 471.5 L 32 464.5 L 32 160 L 10.5 159 L 2 151.5 L 0 144.5 L 0 79.5 L 1 78.5 L 1 70.5 L 4 61.5 Q 7.9 51.4 15.5 45 L 29.5 36 L 38.5 33 L 46.5 33 L 47.5 32 Z M 44 64 L 36 68 L 32 76 L 32 128 L 33 128 L 480 128 L 480 76 L 476 68 L 469 64 L 44 64 Z M 64 160 L 64 448 L 448 448 L 448 160 L 64 160 Z " /><path fill="rgb(0,0,0)" stroke="rgb(0,0,0)" stroke-width="1" opacity="1" d="M 207.5 192 L 304.5 192 L 305.5 193 L 313.5 193 L 330.5 200 L 339 207.5 L 348 221.5 L 351 230.5 Q 349.7 237.3 352 240.5 L 351 241.5 L 351 249.5 L 348 258.5 Q 344.1 268.6 336.5 275 L 322.5 284 L 313.5 287 L 305.5 287 L 304.5 288 L 207.5 288 L 206.5 287 L 198.5 287 L 189.5 284 Q 179.4 280.1 173 272.5 L 164 258.5 L 161 249.5 Q 162.3 242.7 160 239.5 L 161 238.5 L 161 230.5 L 164 221.5 Q 167.9 211.4 175.5 205 L 189.5 196 L 198.5 193 L 206.5 193 L 207.5 192 Z M 204 224 L 196 228 L 192 236 L 192 245 L 196 252 L 204 256 L 309 256 L 316 252 L 320 245 L 320 236 L 316 228 L 309 224 L 204 224 Z " /></svg>