<svg width="450" height="465" version="1.1" xmlns="http://www.w3.org/2000/svg" desc="Created with imagetracer.js version 1.2.6" ><path fill="rgb(255,255,255)" stroke="rgb(255,255,255)" stroke-width="1" opacity="1" d="M 0 0 L 450 0 L 450 465 L 0 465 L 0 0 Z M 222 63 Q 220 66 215 64 L 212 66 L 206 66 L 194 72 L 189 73 L 187 75 L 181 76 L 164 85 L 151 89 L 141 95 L 127 99 L 124 102 L 104 109 L 94 115 L 81 119 L 64 128 L 49 143 L 43 160 L 43 169 L 41 171 L 41 355 Q 45 358 43 368 L 47 376 L 47 378 Q 50 377 49 380 L 52 381 L 53 385 L 56 386 L 59 390 Q 61 389 60 392 L 69 398 L 83 403 L 95 410 L 102 413 L 106 413 L 125 423 L 130 423 L 139 429 Q 145 430 149 433 L 153 433 L 156 436 L 159 436 L 172 443 L 176 443 L 195 453 L 200 453 L 203 456 Q 209 455 212 458 L 243 458 Q 245 455 252 456 L 255 453 L 260 453 L 279 443 L 283 443 L 296 436 L 299 436 L 302 433 L 306 433 Q 309 430 316 429 L 325 423 L 330 423 L 349 413 L 353 413 L 360 410 L 372 403 L 386 398 L 393 393 L 394 390 L 398 388 Q 397 385 400 386 L 402 381 L 405 380 Q 404 377 407 378 Q 407 372 411 368 Q 409 358 413 355 L 413 171 L 411 169 L 411 160 L 405 143 L 391 128 L 374 119 L 361 115 L 351 109 L 331 102 L 328 99 L 314 95 L 304 89 L 291 85 L 281 79 L 268 75 L 252 67 L 243 66 L 240 64 Q 234 66 233 63 L 222 63 Z " /><path fill="rgb(255,255,255)" stroke="rgb(255,255,255)" stroke-width="1" opacity="1" d="M 220.5 172 L 233.5 172 L 242.5 176 L 248.5 177 L 261.5 184 L 265.5 184 L 269.5 187 L 272.5 187 L 275.5 190 Q 283.7 191.3 288.5 196 L 291.5 196 L 297 201.5 L 290.5 208 L 282.5 210 L 248.5 226 L 245.5 226 L 242.5 229 Q 235.1 228.1 232.5 232 L 221.5 232 Q 218.9 228.1 211.5 229 L 208.5 226 L 205.5 226 L 194.5 220 L 188.5 219 L 171.5 210 L 165.5 209 L 157 201.5 L 162.5 196 L 165.5 196 Q 170.3 191.3 178.5 190 L 181.5 187 L 184.5 187 L 188.5 184 L 192.5 184 L 205.5 177 L 211.5 176 L 220.5 172 Z " /><path fill="rgb(249,249,249)" stroke="rgb(249,249,249)" stroke-width="1" opacity="1" d="M 224.5 76 L 237.5 77 L 256.5 83 L 298.5 102 L 331.5 115 L 377.5 136 L 392 148.5 L 397 157.5 L 400 169.5 L 400 193.5 L 399 194.5 L 399 208.5 L 400 209.5 L 400 224.5 L 401 225.5 L 401 342.5 L 400 343.5 L 400 354.5 L 397 365.5 Q 392.5 376.5 383.5 383 L 361.5 395 L 253.5 441 L 237.5 446 L 223.5 447 L 200.5 441 L 92.5 395 L 70.5 383 L 62 374.5 L 55 359.5 L 54 343.5 L 53 342.5 L 53 225.5 L 54 224.5 L 55 194.5 L 54 193.5 L 54 169.5 L 56 160.5 L 60 151.5 L 70.5 140 L 92.5 128 L 106.5 123 L 150.5 103 L 155.5 102 L 192.5 85 L 208.5 79 L 224.5 76 Z M 226 81 L 223 83 L 219 83 L 205 87 L 190 93 L 97 133 L 75 145 L 64 158 L 60 174 L 60 186 L 61 187 L 61 197 L 62 198 L 61 217 L 60 218 L 60 237 L 59 238 L 59 335 L 60 336 L 60 352 L 62 361 L 68 372 Q 79 383 95 389 L 195 432 L 219 440 L 236 440 L 255 434 L 360 389 L 380 378 Q 388 371 392 361 L 394 352 L 394 336 L 395 335 L 395 238 L 394 237 L 393 207 L 392 206 L 393 187 L 394 186 L 393 167 L 390 158 L 386 152 L 376 142 L 358 133 L 250 87 L 226 81 Z " /><path fill="rgb(249,249,249)" stroke="rgb(249,249,249)" stroke-width="1" opacity="1" d="M 221.5 152 L 232.5 152 L 251.5 158 L 316.5 186 L 336 197.5 L 338 201.5 L 332.5 209 L 303.5 223 L 244.5 248 L 234.5 251 L 219.5 251 L 209.5 248 L 132.5 215 Q 122.8 211.7 117 204.5 L 116 201.5 L 120.5 195 L 137.5 186 L 202.5 158 L 221.5 152 Z M 224 158 L 212 161 L 136 194 L 129 202 L 130 205 Q 137 211 148 215 L 221 245 L 234 245 L 246 241 L 307 215 L 323 206 L 325 202 L 324 200 L 319 194 L 313 191 L 260 168 L 236 159 L 224 158 Z " /><path fill="rgb(242,242,242)" stroke="rgb(242,242,242)" stroke-width="1" opacity="1" d="M 218.5 83 L 221 83.5 L 73.5 147 L 74.5 145 L 96.5 133 L 119.5 123 L 189.5 93 L 218.5 83 Z " /><path fill="rgb(242,242,242)" stroke="rgb(242,242,242)" stroke-width="1" opacity="1" d="M 233.5 83 L 249.5 87 L 334.5 123 L 375.5 142 L 381 146.5 L 379.5 146 L 251.5 92 L 233.5 84 L 233.5 83 Z " /><path fill="rgb(242,242,242)" stroke="rgb(242,242,242)" stroke-width="1" opacity="1" d="M 222.5 145 L 236.5 146 L 251.5 151 L 328.5 184 L 348 195.5 L 351 202.5 L 348.5 207 L 234.5 256 L 229.5 258 L 224.5 258 L 104 205.5 L 103 200.5 L 107.5 194 L 125.5 184 L 183.5 159 L 210.5 148 L 222.5 145 Z M 222 152 L 203 158 L 138 186 L 121 195 L 116 202 L 117 205 Q 123 212 133 215 L 210 248 L 220 251 L 235 251 L 245 248 L 304 223 L 333 209 L 338 202 L 336 198 L 317 186 L 252 158 L 233 152 L 222 152 Z " /><path fill="rgb(242,242,242)" stroke="rgb(242,242,242)" stroke-width="1" opacity="1" d="M 70.5 149 L 71 160.5 L 67 172.5 L 67 182.5 L 70 196.5 L 70 207.5 L 66 227.5 L 66 345.5 L 68 356.5 L 71 363.5 L 80.5 374 L 101.5 385 L 207.5 430 L 218.5 433 L 235.5 433 L 261.5 424 L 363.5 380 Q 374.2 375.2 381 366.5 L 385 359.5 L 388 345.5 L 388 227.5 L 384 207.5 L 384 196.5 L 387 182.5 L 387 172.5 L 383 160.5 L 383 149.5 L 386 151.5 L 390 157.5 L 393 166.5 L 394 185.5 L 393 186.5 L 392 205.5 L 393 206.5 L 394 236.5 L 395 237.5 L 395 334.5 L 394 335.5 L 394 351.5 L 392 360.5 Q 388 371.5 379.5 378 L 359.5 389 L 254.5 434 L 235.5 440 L 218.5 440 L 194.5 432 L 94.5 389 Q 78.5 383 68 371.5 L 62 360.5 L 60 351.5 L 60 335.5 L 59 334.5 L 59 237.5 L 60 236.5 L 60 217.5 L 61 216.5 L 62 197.5 L 61 196.5 L 61 186.5 L 60 185.5 L 60 173.5 L 64 157.5 L 70.5 149 Z " /><path fill="rgb(165,185,215)" stroke="rgb(165,185,215)" stroke-width="1" opacity="1" d="M 168.5 106 L 167.5 108 L 166 107.5 L 168.5 106 Z " /><path fill="rgb(165,185,215)" stroke="rgb(165,185,215)" stroke-width="1" opacity="1" d="M 119.5 127 L 121 127.5 L 117.5 129 L 117.5 128 L 119.5 127 Z " /><path fill="rgb(165,185,215)" stroke="rgb(165,185,215)" stroke-width="1" opacity="1" d="M 218.5 129 L 220 129.5 L 216.5 131 L 216.5 130 L 218.5 129 Z " /><path fill="rgb(165,185,215)" stroke="rgb(165,185,215)" stroke-width="1" opacity="1" d="M 234.5 129 L 238 130.5 L 236.5 131 L 234.5 129 Z " /><path fill="rgb(165,185,215)" stroke="rgb(165,185,215)" stroke-width="1" opacity="1" d="M 105.5 133 L 107 133.5 L 103.5 135 L 103.5 134 L 105.5 133 Z " /><path fill="rgb(165,185,215)" stroke="rgb(165,185,215)" stroke-width="1" opacity="1" d="M 91.5 139 L 93 139.5 L 89.5 141 L 89.5 140 L 91.5 139 Z " /><path fill="rgb(165,185,215)" stroke="rgb(165,185,215)" stroke-width="1" opacity="1" d="M 192.5 140 L 194 140.5 L 190.5 142 L 190.5 141 L 192.5 140 Z " /><path fill="rgb(165,185,215)" stroke="rgb(165,185,215)" stroke-width="1" opacity="1" d="M 178.5 146 L 180 146.5 L 176.5 148 L 176.5 147 L 178.5 146 Z " /><path fill="rgb(165,185,215)" stroke="rgb(165,185,215)" stroke-width="1" opacity="1" d="M 71.5 149 L 72 189.5 L 71 189.5 L 71.5 149 Z " /><path fill="rgb(165,185,215)" stroke="rgb(165,185,215)" stroke-width="1" opacity="1" d="M 382.5 149 L 383 190.5 L 382 190.5 L 382.5 149 Z " /><path fill="rgb(165,185,215)" stroke="rgb(165,185,215)" stroke-width="1" opacity="1" d="M 169.5 150 L 171 150.5 L 167.5 152 L 167.5 151 L 169.5 150 Z " /><path fill="rgb(165,185,215)" stroke="rgb(165,185,215)" stroke-width="1" opacity="1" d="M 283.5 150 L 287 151.5 L 285.5 152 L 283.5 150 Z " /><path fill="rgb(165,185,215)" stroke="rgb(165,185,215)" stroke-width="1" opacity="1" d="M 164.5 152 L 166 152.5 L 162.5 154 L 162.5 153 L 164.5 152 Z " /><path fill="rgb(165,185,215)" stroke="rgb(165,185,215)" stroke-width="1" opacity="1" d="M 155.5 156 L 157 156.5 L 153.5 158 L 153.5 157 L 155.5 156 Z " /><path fill="rgb(165,185,215)" stroke="rgb(165,185,215)" stroke-width="1" opacity="1" d="M 297.5 156 L 301 157.5 L 299.5 158 L 297.5 156 Z " /><path fill="rgb(165,185,215)" stroke="rgb(165,185,215)" stroke-width="1" opacity="1" d="M 141.5 162 L 143 162.5 L 139.5 164 L 139.5 163 L 141.5 162 Z " /><path fill="rgb(165,185,215)" stroke="rgb(165,185,215)" stroke-width="1" opacity="1" d="M 120.5 171 L 122 171.5 L 118.5 173 L 118.5 172 L 120.5 171 Z " /><path fill="rgb(165,185,215)" stroke="rgb(165,185,215)" stroke-width="1" opacity="1" d="M 332.5 171 L 336 172.5 L 334.5 173 L 332.5 171 Z " /><path fill="rgb(165,185,215)" stroke="rgb(165,185,215)" stroke-width="1" opacity="1" d="M 106.5 177 L 108 177.5 L 104.5 179 L 104.5 178 L 106.5 177 Z " /><path fill="rgb(165,185,215)" stroke="rgb(165,185,215)" stroke-width="1" opacity="1" d="M 346.5 177 L 350 178.5 L 348.5 179 L 346.5 177 Z " /><path fill="rgb(165,185,215)" stroke="rgb(165,185,215)" stroke-width="1" opacity="1" d="M 71.5 192 L 72 356.5 L 73 357.5 L 71 356.5 L 71.5 192 Z " /><path fill="rgb(165,185,215)" stroke="rgb(165,185,215)" stroke-width="1" opacity="1" d="M 381.5 192 L 383 192.5 L 383 356.5 L 381 357.5 L 382 356.5 L 382 193.5 L 380 193.5 L 381.5 192 Z " /><path fill="rgb(252,252,252)" stroke="rgb(252,252,252)" stroke-width="1" opacity="1" d="M 218.5 69 L 235.5 69 L 263.5 78 L 269.5 82 L 279.5 85 L 295.5 93 L 328.5 106 L 332.5 109 L 335.5 109 Q 338.3 112.7 344.5 113 L 355.5 119 L 358.5 119 L 369.5 125 L 376.5 127 Q 388.7 132.8 397 142.5 L 404 154.5 L 407 169.5 L 407 218.5 L 408 219.5 L 408 348.5 L 407 349.5 L 407 357.5 L 404 367.5 Q 399.5 379.5 390.5 387 L 367.5 400 L 364.5 400 L 358.5 404 L 341.5 410 L 297.5 430 L 294.5 430 L 286.5 435 L 271.5 440 L 260.5 446 L 239.5 453 L 225.5 454 L 224.5 453 L 214.5 453 Q 210.5 450 203.5 450 L 182.5 440 L 167.5 435 L 159.5 430 L 156.5 430 L 112.5 410 L 95.5 404 L 89.5 400 L 86.5 400 Q 71.1 393.9 60 383.5 Q 53.4 377.1 50 367.5 L 47 357.5 L 47 349.5 L 46 348.5 L 46 219.5 L 47 218.5 L 47 169.5 Q 49.7 167.8 48 161.5 Q 52.1 145.1 63.5 136 L 77.5 127 L 84.5 125 L 95.5 119 L 98.5 119 L 109.5 113 L 114.5 112 L 118.5 109 L 121.5 109 L 125.5 106 Q 138.7 102.7 148.5 96 L 184.5 82 L 190.5 78 L 218.5 69 Z M 225 76 L 209 79 L 193 85 L 156 102 L 151 103 L 107 123 L 93 128 L 71 140 L 60 152 L 56 161 L 54 170 L 54 194 L 55 195 L 54 225 L 53 226 L 53 343 L 54 344 L 55 360 L 62 375 L 71 383 L 93 395 L 201 441 L 224 447 L 238 446 L 254 441 L 362 395 L 384 383 Q 392 376 397 366 L 400 355 L 400 344 L 401 343 L 401 226 L 400 225 L 400 210 L 399 209 L 399 195 L 400 194 L 400 170 L 397 158 L 392 149 L 378 136 L 332 115 L 299 102 L 257 83 L 238 77 L 225 76 Z " /><path fill="rgb(252,252,252)" stroke="rgb(252,252,252)" stroke-width="1" opacity="1" d="M 223.5 158 L 235.5 159 L 259.5 168 L 312.5 191 L 318.5 194 L 324 199.5 L 325 201.5 L 322.5 206 L 306.5 215 L 245.5 241 L 233.5 245 L 220.5 245 L 147.5 215 Q 137.1 211.4 130 204.5 L 129 201.5 L 135.5 194 L 211.5 161 L 223.5 158 Z M 221 166 L 209 170 L 202 174 L 199 174 L 183 182 L 180 182 L 148 197 L 145 201 L 146 205 L 159 212 L 162 212 L 173 218 L 176 218 L 196 228 L 199 228 L 216 236 L 224 238 L 231 238 L 239 236 L 277 220 L 279 218 L 282 218 L 293 212 L 296 212 L 307 206 L 309 203 L 308 199 L 302 194 L 238 167 Q 231 165 221 166 Z " /><path fill="rgb(254,254,254)" stroke="rgb(254,254,254)" stroke-width="1" opacity="1" d="M 221.5 63 L 232.5 63 Q 234 65.5 239.5 64 L 242.5 66 L 251.5 67 L 267.5 75 L 280.5 79 L 290.5 85 L 303.5 89 L 313.5 95 L 327.5 99 L 330.5 102 L 350.5 109 L 360.5 115 L 373.5 119 L 390.5 128 L 405 142.5 L 411 159.5 L 411 168.5 L 413 170.5 L 413 354.5 Q 409 358 411 367.5 Q 407.3 371.5 407 378 Q 404.3 376.9 405 379.5 L 402 381 L 399.5 386 Q 397.3 385.3 398 387.5 L 394 390 L 392.5 393 L 385.5 398 L 371.5 403 L 359.5 410 L 352.5 413 L 348.5 413 L 329.5 423 L 324.5 423 L 315.5 429 Q 309 429.5 305.5 433 L 301.5 433 L 298.5 436 L 295.5 436 L 282.5 443 L 278.5 443 L 259.5 453 L 254.5 453 L 251.5 456 Q 245.2 455.2 242.5 458 L 211.5 458 Q 208.8 455.2 202.5 456 L 199.5 453 L 194.5 453 L 175.5 443 L 171.5 443 L 158.5 436 L 155.5 436 L 152.5 433 L 148.5 433 Q 145 429.5 138.5 429 L 129.5 423 L 124.5 423 L 105.5 413 L 101.5 413 L 94.5 410 L 82.5 403 L 68.5 398 L 60 391.5 Q 60.8 389.3 58.5 390 L 56 386 L 53 384.5 L 52 381 L 49 379.5 Q 49.7 376.9 47 378 L 47 375.5 L 43 367.5 Q 45 358 41 354.5 L 41 170.5 L 43 168.5 L 43 159.5 L 49 142.5 L 63.5 128 L 80.5 119 L 93.5 115 L 103.5 109 L 123.5 102 L 126.5 99 L 140.5 95 L 150.5 89 L 163.5 85 L 180.5 76 L 186.5 75 L 188.5 73 L 193.5 72 L 205.5 66 L 211.5 66 L 214.5 64 Q 220 65.5 221.5 63 Z M 219 69 L 191 78 L 185 82 L 149 96 Q 139 103 126 106 L 122 109 L 119 109 L 115 112 L 110 113 L 99 119 L 96 119 L 85 125 L 78 127 L 64 136 Q 52 145 48 162 Q 50 168 47 170 L 47 219 L 46 220 L 46 349 L 47 350 L 47 358 L 50 368 Q 53 377 60 384 Q 71 394 87 400 L 90 400 L 96 404 L 113 410 L 157 430 L 160 430 L 168 435 L 183 440 L 204 450 Q 210 450 215 453 L 225 453 L 226 454 L 240 453 L 261 446 L 272 440 L 287 435 L 295 430 L 298 430 L 342 410 L 359 404 L 365 400 L 368 400 L 391 387 Q 400 380 404 368 L 407 358 L 407 350 L 408 349 L 408 220 L 407 219 L 407 170 L 404 155 L 397 143 Q 389 133 377 127 L 370 125 L 359 119 L 356 119 L 345 113 Q 338 113 336 109 L 333 109 L 329 106 L 296 93 L 280 85 L 270 82 L 264 78 L 236 69 L 219 69 Z " /><path fill="rgb(254,254,254)" stroke="rgb(254,254,254)" stroke-width="1" opacity="1" d="M 220.5 166 Q 230.8 164.7 237.5 167 L 301.5 194 L 308 198.5 L 309 202.5 L 306.5 206 L 295.5 212 L 292.5 212 L 281.5 218 L 278.5 218 L 276.5 220 L 238.5 236 L 230.5 238 L 223.5 238 L 215.5 236 L 198.5 228 L 195.5 228 L 175.5 218 L 172.5 218 L 161.5 212 L 158.5 212 L 146 204.5 L 145 200.5 L 147.5 197 L 179.5 182 L 182.5 182 L 198.5 174 L 201.5 174 L 208.5 170 L 220.5 166 Z M 221 172 L 212 176 L 206 177 L 193 184 L 189 184 L 185 187 L 182 187 L 179 190 Q 170 191 166 196 L 163 196 L 157 202 L 166 209 L 172 210 L 189 219 L 195 220 L 206 226 L 209 226 L 212 229 Q 219 228 222 232 L 233 232 Q 235 228 243 229 L 246 226 L 249 226 L 283 210 L 291 208 L 297 202 L 292 196 L 289 196 Q 284 191 276 190 L 273 187 L 270 187 L 266 184 L 262 184 L 249 177 L 243 176 L 234 172 L 221 172 Z " /><path fill="rgb(220,220,221)" stroke="rgb(220,220,221)" stroke-width="1" opacity="1" d="M 224.5 127 L 229.5 127 L 299.5 158 L 307 160 L 307.5 162 Q 309 159.5 310.5 163 L 320.5 166 L 370 187.5 Q 368.8 190.3 363.5 189 L 249.5 140 L 236.5 136 L 224.5 135 L 204.5 140 L 99.5 186 L 90.5 189 L 85.5 189 L 84.5 187 L 94.5 184 L 98.5 181 L 108.5 178 L 112.5 175 L 143.5 163 L 145.5 161 L 147 161.5 Q 146.2 158.9 149.5 160 L 189.5 142 Q 191 144.5 192.5 141 L 224.5 127 Z " /><path fill="rgb(220,220,221)" stroke="rgb(220,220,221)" stroke-width="1" opacity="1" d="M 71.5 190 L 73 192.5 L 71 191.5 L 71.5 190 Z " /><path fill="rgb(220,220,221)" stroke="rgb(220,220,221)" stroke-width="1" opacity="1" d="M 83.5 362 L 226 423.5 L 222.5 424 L 202.5 418 L 104.5 376 L 87.5 367 L 83.5 362 Z " /><path fill="rgb(220,220,221)" stroke="rgb(220,220,221)" stroke-width="1" opacity="1" d="M 370.5 362 L 366.5 367 L 349.5 376 L 251.5 418 L 240.5 422 L 228.5 424 L 228.5 423 L 370.5 362 Z " /><path fill="rgb(51,93,158)" stroke="rgb(51,93,158)" stroke-width="1" opacity="1" d="M 72 194 L 149.5 226 L 155.5 230 L 157.5 230 L 159 230.5 L 155 231.5 L 159 232.5 L 153 233.5 L 155 234.5 L 154.5 236 L 218 268.5 L 217.5 388 L 102 331 L 102 315.5 L 99.5 315 L 99.5 316 L 101 316.5 L 99 317.5 L 101 318.5 L 95 319.5 L 99 320.5 L 95 321.5 L 99 322.5 L 93 323.5 L 95 324.5 L 93 325.5 L 95 326.5 L 91 327.5 L 93 328.5 L 91 329.5 L 93 330.5 L 87 331.5 L 91 332.5 L 87 333.5 L 91 334.5 L 85 335.5 L 87 336.5 L 85 337.5 L 87 338.5 L 83 339.5 L 85 340.5 L 83 341.5 L 85 342.5 L 79 343.5 L 83 344.5 L 79 345.5 L 83 346.5 L 77 347.5 L 79 348.5 L 77 349.5 L 79 350.5 L 75 351.5 L 77 352.5 L 73 353.5 L 77 354.5 L 72 355 L 72 194 Z M 104 211 L 103 237 L 104 241 L 107 241 L 105 240 L 107 239 L 105 238 L 111 237 L 107 236 L 111 235 L 107 234 L 113 233 L 111 232 L 113 231 L 111 230 L 115 229 L 113 228 L 115 227 L 111 226 L 119 225 L 115 224 L 119 223 L 115 222 L 121 221 L 120 220 L 118 220 L 118 219 L 104 211 Z " /><path fill="rgb(51,93,158)" stroke="rgb(51,93,158)" stroke-width="1" opacity="1" d="M 72.5 356 L 75 356.5 L 72.5 357 L 72.5 356 Z " /><path fill="rgb(76,124,193)" stroke="rgb(76,124,193)" stroke-width="1" opacity="1" d="M 226.5 82 L 382 148 L 382 191.5 L 380.5 192 L 226.5 126 L 72 192 L 72 148.5 L 73.5 148 L 226.5 82 Z " /><path fill="rgb(76,124,193)" stroke="rgb(76,124,193)" stroke-width="1" opacity="1" d="M 103.5 211 L 121 220.5 L 115 221.5 L 119 222.5 L 115 223.5 L 119 224.5 L 111 225.5 L 115 226.5 L 113 227.5 L 115 228.5 L 111 229.5 L 113 230.5 L 111 231.5 L 113 232.5 L 107 233.5 L 111 234.5 L 107 235.5 L 111 236.5 L 105 237.5 L 107 238.5 L 105 239.5 L 107 240.5 L 103.5 241 L 103 236.5 L 103.5 211 Z " /><path fill="rgb(28,69,135)" stroke="rgb(28,69,135)" stroke-width="1" opacity="1" d="M 379.5 194 L 382 194.5 L 382 357 L 226.5 423 L 181 404 Q 182.3 400.7 177.5 402 L 177.5 401 L 179 400.5 L 175 399.5 L 183 398.5 L 179 397.5 L 183 396.5 L 179 395.5 L 187 394.5 L 183 393.5 L 185 392.5 L 179 391.5 L 191 390.5 L 183 389.5 L 189 388.5 L 183 387.5 L 191 386.5 L 187 385.5 L 191 384.5 L 187 383.5 L 195 382.5 L 191 381.5 L 195 380.5 L 189 379.5 L 197.5 378 L 216.5 388 L 219 388 L 219 343.5 L 222.5 343 L 222.5 342 L 219 341.5 L 221 340.5 L 219 339.5 L 223 338.5 L 219 337.5 L 223 336.5 L 219 335.5 L 227 334.5 L 223 333.5 L 227 332.5 L 223 331.5 L 227 330.5 L 223 329.5 L 227 328.5 L 223 327.5 L 227 327 L 227 260.5 L 228.5 259 L 379.5 194 Z " /><path fill="rgb(28,69,135)" stroke="rgb(28,69,135)" stroke-width="1" opacity="1" d="M 191.5 377 L 196 377.5 L 191.5 378 L 191.5 377 Z " /><path fill="rgb(233,233,233)" stroke="rgb(233,233,233)" stroke-width="1" opacity="1" d="M 218.5 140 L 235.5 140 L 253.5 146 L 339.5 183 L 359.5 194 L 365 199.5 L 350.5 206 L 350 203.5 L 351 200.5 L 346.5 194 L 328.5 184 L 251.5 151 L 236.5 146 L 222.5 145 L 202.5 151 L 141.5 177 L 115.5 189 L 106 195.5 L 103 202.5 L 104 205.5 L 102.5 205 L 89 199.5 L 94.5 194 L 114.5 183 L 200.5 146 L 218.5 140 Z " /><path fill="rgb(233,233,233)" stroke="rgb(233,233,233)" stroke-width="1" opacity="1" d="M 70.5 161 L 71 356.5 L 72.5 358 L 76 359 Q 78.1 365.9 84.5 370 L 110.5 383 L 209.5 425 L 221.5 428 L 232.5 428 L 241.5 426 L 259.5 419 L 352.5 379 L 366.5 372 L 376 363.5 L 378 359 L 383 356.5 L 383.5 161 L 387 172.5 L 387 182.5 L 384 196.5 L 384 207.5 L 388 227.5 L 388 345.5 L 386 356.5 L 383 363.5 L 373.5 374 L 352.5 385 L 246.5 430 L 235.5 433 L 218.5 433 L 192.5 424 L 90.5 380 Q 79.8 375.2 73 366.5 L 69 359.5 L 66 345.5 L 66 227.5 L 70 207.5 L 70 196.5 L 67 182.5 L 67 172.5 L 70.5 161 Z " /><path fill="rgb(233,233,233)" stroke="rgb(233,233,233)" stroke-width="1" opacity="1" d="M 76.5 191 L 79 194.5 L 77.5 195 L 74 192.5 L 76.5 191 Z " /><path fill="rgb(233,233,233)" stroke="rgb(233,233,233)" stroke-width="1" opacity="1" d="M 377.5 191 L 380 192.5 L 375.5 195 L 377 192.5 L 377.5 191 Z " /><path fill="rgb(34,77,146)" stroke="rgb(34,77,146)" stroke-width="1" opacity="1" d="M 155.5 231 L 160.5 231 L 165.5 233 L 221.5 257 L 227 260.5 L 227 326.5 L 223.5 327 L 223.5 328 L 227 328.5 L 223 329.5 L 227 330.5 L 223 331.5 L 227 332.5 L 223 333.5 L 227 334.5 L 219 335.5 L 223 336.5 L 219 337.5 L 223 338.5 L 219 339.5 L 221 340.5 L 219 341.5 L 223 342.5 L 219 343 L 218.5 388 L 218 268.5 L 216.5 267 L 154 235.5 L 154.5 234 L 153 233.5 L 159 232.5 Q 154.6 232.9 155.5 231 Z " /><path fill="rgb(34,77,146)" stroke="rgb(34,77,146)" stroke-width="1" opacity="1" d="M 99.5 315 L 102 315.5 L 102 330.5 L 103.5 331 L 191 374 L 191.5 376 L 193.5 376 L 195 376.5 L 191 377.5 L 195.5 378 L 197 377.5 L 196.5 379 L 189.5 379 L 189.5 380 L 195 380.5 L 191 381.5 L 195 382.5 L 187 383.5 L 191 384.5 L 187 385.5 L 191 386.5 L 183 387.5 L 189 388.5 L 183 389.5 L 191 390.5 L 179 391.5 L 185 392.5 L 183 393.5 L 187 394.5 L 179 395.5 L 183 396.5 L 179 397.5 L 183 398.5 L 175 399.5 L 179 400.5 L 176.5 402 L 174 401 L 173.5 399 L 171.5 399 L 74 357.5 L 74.5 356 L 72 355.5 L 77 354.5 L 73 353.5 L 77 352.5 L 75 351.5 L 79 350.5 L 77 349.5 L 79 348.5 L 77 347.5 L 83 346.5 L 79 345.5 L 83 344.5 L 79 343.5 L 85 342.5 L 83 341.5 L 85 340.5 L 83 339.5 L 87 338.5 L 85 337.5 L 87 336.5 L 85 335.5 L 91 334.5 L 87 333.5 L 91 332.5 L 87 331.5 L 93 330.5 L 91 329.5 L 93 328.5 L 91 327.5 L 95 326.5 L 93 325.5 L 95 324.5 L 93 323.5 L 99 322.5 L 95 321.5 L 99 320.5 L 95 319.5 L 101 318.5 L 99 317.5 L 101 316.5 L 99.5 315 Z " /><path fill="rgb(225,226,226)" stroke="rgb(225,226,226)" stroke-width="1" opacity="1" d="M 224.5 135 L 236.5 136 L 249.5 140 L 354.5 186 L 363.5 189 L 368.5 189 L 370.5 188 L 377 191 L 375 196 L 364.5 199 L 359.5 194 L 339.5 183 L 253.5 146 L 235.5 140 L 218.5 140 L 200.5 146 L 114.5 183 L 94.5 194 L 89.5 199 L 86.5 199 L 79 196 L 77 191 L 84.5 188 Q 85.8 190.2 90.5 189 L 199.5 142 L 213.5 137 L 224.5 135 Z " /><path fill="rgb(225,226,226)" stroke="rgb(225,226,226)" stroke-width="1" opacity="1" d="M 73.5 192 L 74.5 194 L 73.5 192 Z " /><path fill="rgb(225,226,226)" stroke="rgb(225,226,226)" stroke-width="1" opacity="1" d="M 76.5 360 L 82.5 362 L 90.5 369 L 104.5 376 L 202.5 418 L 217.5 423 L 231.5 424 L 251.5 418 L 349.5 376 L 363.5 369 L 371.5 362 L 377.5 360 L 376 362.5 L 369.5 370 L 343.5 383 L 244.5 425 L 232.5 428 L 221.5 428 L 212.5 426 L 194.5 419 L 101.5 379 L 87.5 372 L 78 363.5 L 76.5 360 Z " /></svg>