<svg width="403" height="385" version="1.1" xmlns="http://www.w3.org/2000/svg" desc="Created with imagetracer.js version 1.2.6" ><path fill="rgb(161,197,240)" stroke="rgb(161,197,240)" stroke-width="1" opacity="0.2901960784313726" d="M 196.5 27 L 202.5 28 L 286 64.5 L 284.5 65 L 202.5 29 L 196.5 28 L 124.5 59 L 124.5 58 L 196.5 27 Z " /><path fill="rgb(161,197,240)" stroke="rgb(161,197,240)" stroke-width="1" opacity="0.2901960784313726" d="M 121.5 59 L 123 59.5 L 117.5 62 L 117.5 61 L 121.5 59 Z " /><path fill="rgb(161,197,240)" stroke="rgb(161,197,240)" stroke-width="1" opacity="0.2901960784313726" d="M 114.5 62 L 116 62.5 L 110.5 65 L 110.5 64 L 114.5 62 Z " /><path fill="rgb(161,197,240)" stroke="rgb(161,197,240)" stroke-width="1" opacity="0.2901960784313726" d="M 107.5 65 L 109 65.5 L 82.5 77 L 83.5 75 L 107.5 65 Z " /><path fill="rgb(161,197,240)" stroke="rgb(161,197,240)" stroke-width="1" opacity="0.2901960784313726" d="M 287.5 65 L 293 67.5 L 291.5 68 L 287.5 66 L 287.5 65 Z " /><path fill="rgb(161,197,240)" stroke="rgb(161,197,240)" stroke-width="1" opacity="0.2901960784313726" d="M 294.5 68 L 328 82.5 L 326.5 83 L 298.5 71 L 294.5 69 L 294.5 68 Z " /><path fill="rgb(161,197,240)" stroke="rgb(161,197,240)" stroke-width="1" opacity="0.2901960784313726" d="M 195.5 73 L 203.5 74 L 222 82.5 L 220.5 83 L 203.5 75 L 195.5 74 L 153.5 92 L 153.5 91 L 195.5 73 Z " /><path fill="rgb(161,197,240)" stroke="rgb(161,197,240)" stroke-width="1" opacity="0.2901960784313726" d="M 79.5 77 L 81 77.5 L 61.5 86 L 61.5 85 L 79.5 77 Z " /><path fill="rgb(161,197,240)" stroke="rgb(161,197,240)" stroke-width="1" opacity="0.2901960784313726" d="M 223.5 83 L 229 85.5 L 227.5 86 L 223.5 84 L 223.5 83 Z " /><path fill="rgb(161,197,240)" stroke="rgb(161,197,240)" stroke-width="1" opacity="0.2901960784313726" d="M 329.5 83 L 349 91.5 L 347.5 92 L 329.5 84 L 329.5 83 Z " /><path fill="rgb(161,197,240)" stroke="rgb(161,197,240)" stroke-width="1" opacity="0.2901960784313726" d="M 58.5 86 L 60 86.5 L 43 94 L 43 137.5 L 44.5 138 L 144.5 95 L 144.5 96 L 46 138.5 L 47.5 141 L 43 139 L 42.5 142 L 42 94.5 L 58.5 86 Z " /><path fill="rgb(161,197,240)" stroke="rgb(161,197,240)" stroke-width="1" opacity="0.2901960784313726" d="M 230.5 86 L 236 88.5 L 234.5 89 L 230.5 87 L 230.5 86 Z " /><path fill="rgb(161,197,240)" stroke="rgb(161,197,240)" stroke-width="1" opacity="0.2901960784313726" d="M 237.5 89 L 245 92.5 L 243.5 93 L 237.5 90 L 237.5 89 Z " /><path fill="rgb(161,197,240)" stroke="rgb(161,197,240)" stroke-width="1" opacity="0.2901960784313726" d="M 150.5 92 L 152 92.5 L 146.5 95 L 146.5 94 L 150.5 92 Z " /><path fill="rgb(161,197,240)" stroke="rgb(161,197,240)" stroke-width="1" opacity="0.2901960784313726" d="M 350.5 92 L 354 94.5 L 354 137.5 L 355 139.5 L 353 138.5 L 353 94.5 L 351.5 93 L 350.5 92 Z " /><path fill="rgb(161,197,240)" stroke="rgb(161,197,240)" stroke-width="1" opacity="0.2901960784313726" d="M 246.5 93 L 250 94.5 L 248.5 95 L 246.5 93 Z " /><path fill="rgb(161,197,240)" stroke="rgb(161,197,240)" stroke-width="1" opacity="0.2901960784313726" d="M 251.5 95 L 257 97.5 L 255.5 98 L 251.5 96 L 251.5 95 Z " /><path fill="rgb(161,197,240)" stroke="rgb(161,197,240)" stroke-width="1" opacity="0.2901960784313726" d="M 258.5 98 L 301 116.5 L 299.5 117 L 264.5 102 L 258.5 99 L 258.5 98 Z " /><path fill="rgb(161,197,240)" stroke="rgb(161,197,240)" stroke-width="1" opacity="0.2901960784313726" d="M 302.5 117 L 315 122.5 L 313.5 123 L 302.5 118 L 302.5 117 Z " /><path fill="rgb(161,197,240)" stroke="rgb(161,197,240)" stroke-width="1" opacity="0.2901960784313726" d="M 316.5 123 L 329 128.5 L 327.5 129 L 316.5 124 L 316.5 123 Z " /><path fill="rgb(161,197,240)" stroke="rgb(161,197,240)" stroke-width="1" opacity="0.2901960784313726" d="M 330.5 129 L 352 138.5 L 350 139.5 Q 350.8 137.3 348.5 138 L 330.5 130 L 330.5 129 Z " /><path fill="rgb(158,194,236)" stroke="rgb(158,194,236)" stroke-width="1" opacity="0.9921568627450981" d="M 196.5 28 L 202.5 29 L 282 63 Q 280.3 67.1 284.5 66 L 286.5 65 L 291 67.5 L 289.5 68 L 288.5 67 L 266.5 67 L 266.5 68 L 278 68.5 L 270 69.5 L 278 70.5 L 258 71.5 L 266 72.5 L 258 73.5 L 266 74.5 L 242 75.5 L 254 76.5 L 246 77.5 L 254 78.5 L 234 79.5 L 246 80.5 L 238 81.5 L 242 82.5 L 226.5 83 L 225.5 84 L 203.5 74 L 195.5 73 L 47.5 137 L 43 137 L 43 95.5 L 45.5 93 L 196.5 28 Z M 275 63 L 275 64 L 277 64 L 275 63 Z M 263 67 L 263 68 L 265 68 L 263 67 Z M 267 69 L 267 70 L 269 70 L 267 69 Z M 255 71 L 255 72 L 257 72 L 255 71 Z M 243 77 L 243 78 L 245 78 L 243 77 Z M 235 81 L 235 82 L 237 82 L 235 81 Z " /><path fill="rgb(158,194,236)" stroke="rgb(158,194,236)" stroke-width="1" opacity="0.9921568627450981" d="M 292.5 68 L 296 69.5 L 294.5 70 L 292.5 68 Z " /><path fill="rgb(158,194,236)" stroke="rgb(158,194,236)" stroke-width="1" opacity="0.9921568627450981" d="M 299.5 71 L 303 72.5 L 301.5 73 L 299.5 71 Z " /><path fill="rgb(158,194,236)" stroke="rgb(158,194,236)" stroke-width="1" opacity="0.9921568627450981" d="M 313.5 77 L 317 78.5 L 315.5 79 L 313.5 77 Z " /><path fill="rgb(158,194,236)" stroke="rgb(158,194,236)" stroke-width="1" opacity="0.9921568627450981" d="M 318.5 79 L 322 80.5 L 320.5 81 L 318.5 79 Z " /><path fill="rgb(158,194,236)" stroke="rgb(158,194,236)" stroke-width="1" opacity="0.9921568627450981" d="M 243.5 82 L 246 82.5 L 243.5 83 L 243.5 82 Z " /><path fill="rgb(158,194,236)" stroke="rgb(158,194,236)" stroke-width="1" opacity="0.9921568627450981" d="M 328.5 83 L 331 84.5 L 329.5 85 L 328.5 83 Z " /><path fill="rgb(158,194,236)" stroke="rgb(158,194,236)" stroke-width="1" opacity="0.9921568627450981" d="M 227.5 84 L 234 84.5 L 229.5 86 L 227.5 84 Z " /><path fill="rgb(158,194,236)" stroke="rgb(158,194,236)" stroke-width="1" opacity="0.9921568627450981" d="M 232.5 86 L 234.5 87 L 236 86.5 Q 234.8 89.3 233.5 87 L 232.5 86 Z " /><path fill="rgb(158,194,236)" stroke="rgb(158,194,236)" stroke-width="1" opacity="0.9921568627450981" d="M 241.5 90 L 244 91.5 L 242.5 91 L 241.5 90 Z " /><path fill="rgb(151,189,234)" stroke="rgb(151,189,234)" stroke-width="1" opacity="0.996078431372549" d="M 274.5 63 L 277 63.5 L 274.5 64 L 274.5 63 Z " /><path fill="rgb(151,189,234)" stroke="rgb(151,189,234)" stroke-width="1" opacity="0.996078431372549" d="M 282.5 64 L 285 65.5 L 282 66 L 282.5 64 Z " /><path fill="rgb(151,189,234)" stroke="rgb(151,189,234)" stroke-width="1" opacity="0.996078431372549" d="M 262.5 67 L 265 67.5 L 262.5 68 L 262.5 67 Z " /><path fill="rgb(151,189,234)" stroke="rgb(151,189,234)" stroke-width="1" opacity="0.996078431372549" d="M 266.5 67 L 288.5 67 L 352 94.5 Q 350.3 100.7 353 102.5 L 352 107 L 342 107.5 L 350 108.5 L 342 109.5 L 346 110.5 L 330 111.5 L 338 112.5 L 330 113.5 L 338 114.5 L 318 115.5 L 326 116.5 L 318 117.5 L 326 118.5 L 310.5 119 L 309.5 120 L 231 85.5 L 234 84.5 L 226 83.5 L 242 82.5 L 238 81.5 L 246 80.5 L 234 79.5 L 254 78.5 L 246 77.5 L 254 76.5 L 242 75.5 L 266 74.5 L 258 73.5 L 266 72.5 L 258 71.5 L 278 70.5 L 270 69.5 L 278 68.5 L 266.5 68 L 266.5 67 Z M 244 82 L 244 83 L 246 83 L 244 82 Z M 339 109 L 339 110 L 341 110 L 339 109 Z " /><path fill="rgb(151,189,234)" stroke="rgb(151,189,234)" stroke-width="1" opacity="0.996078431372549" d="M 266.5 69 L 269 69.5 L 266.5 70 L 266.5 69 Z " /><path fill="rgb(151,189,234)" stroke="rgb(151,189,234)" stroke-width="1" opacity="0.996078431372549" d="M 254.5 71 L 257 71.5 L 254.5 72 L 254.5 71 Z " /><path fill="rgb(151,189,234)" stroke="rgb(151,189,234)" stroke-width="1" opacity="0.996078431372549" d="M 242.5 77 L 245 77.5 L 242.5 78 L 242.5 77 Z " /><path fill="rgb(151,189,234)" stroke="rgb(151,189,234)" stroke-width="1" opacity="0.996078431372549" d="M 234.5 81 L 237 81.5 L 234.5 82 L 234.5 81 Z " /><path fill="rgb(151,189,234)" stroke="rgb(151,189,234)" stroke-width="1" opacity="0.996078431372549" d="M 313.5 120 L 315.5 120 L 318 120.5 L 314.5 122 L 313.5 120 Z " /><path fill="rgb(151,189,234)" stroke="rgb(151,189,234)" stroke-width="1" opacity="0.996078431372549" d="M 74.5 157 L 93 166.5 L 90 167.5 L 92 168.5 L 90 169.5 L 92 170.5 L 86 171.5 L 90 172.5 L 86 173.5 L 90 174.5 L 84 175.5 L 86 176.5 L 84 177.5 L 86 178.5 L 80 179.5 L 84 180.5 L 82 181.5 L 84 182.5 L 78 183.5 L 82 184.5 L 78 185.5 L 82 186.5 L 74 187 L 74.5 157 Z " /><path fill="rgb(151,189,234)" stroke="rgb(151,189,234)" stroke-width="1" opacity="0.996078431372549" d="M 74.5 188 L 78 188.5 L 74.5 189 L 74.5 188 Z " /><path fill="rgb(151,189,234)" stroke="rgb(151,189,234)" stroke-width="1" opacity="0.996078431372549" d="M 74.5 190 L 78 190.5 L 74.5 191 L 74.5 190 Z " /><path fill="rgb(0,0,0)" stroke="rgb(0,0,0)" stroke-width="1" opacity="0" d="M 0 0 L 403 0 L 403 385 L 0 385 L 0 0 Z M 197 27 L 44 93 L 42 95 L 42 303 L 45 305 L 197 370 L 203 369 L 354 304 L 354 282 L 355 281 L 355 245 L 354 244 L 354 213 L 355 212 L 355 146 L 354 145 L 355 143 L 354 138 L 354 95 L 352 92 L 329 83 L 311 74 L 294 68 L 203 28 L 197 27 Z " /><path fill="rgb(0,0,0)" stroke="rgb(0,0,0)" stroke-width="1" opacity="0" d="M 195.5 74 L 203.5 75 L 350 138.5 L 335.5 146 L 202.5 203 L 196.5 204 L 51.5 142 L 46 138.5 L 195.5 74 Z " /><path fill="rgb(103,155,220)" stroke="rgb(103,155,220)" stroke-width="1" opacity="0.2784313725490196" d="M 349.5 139 L 348.5 141 L 336.5 146 L 336.5 145 L 349.5 139 Z " /><path fill="rgb(103,155,220)" stroke="rgb(103,155,220)" stroke-width="1" opacity="0.2784313725490196" d="M 354.5 140 L 355 142.5 L 354 144.5 L 355 145.5 L 355 211.5 L 354 212.5 L 354 243.5 L 355 244.5 L 355 280.5 L 354 281.5 L 354 304 L 350.5 305 L 350.5 304 L 353 302.5 L 353 143.5 L 354.5 140 Z " /><path fill="rgb(103,155,220)" stroke="rgb(103,155,220)" stroke-width="1" opacity="0.2784313725490196" d="M 50.5 141 L 53 142.5 L 51.5 143 L 50.5 141 Z " /><path fill="rgb(103,155,220)" stroke="rgb(103,155,220)" stroke-width="1" opacity="0.2784313725490196" d="M 42.5 142 L 43 158.5 L 42 158.5 L 42.5 142 Z " /><path fill="rgb(103,155,220)" stroke="rgb(103,155,220)" stroke-width="1" opacity="0.2784313725490196" d="M 54.5 143 L 58 144.5 L 56.5 145 L 54.5 143 Z " /><path fill="rgb(103,155,220)" stroke="rgb(103,155,220)" stroke-width="1" opacity="0.2784313725490196" d="M 59.5 145 L 144 181.5 L 142.5 182 L 65.5 149 L 59.5 146 L 59.5 145 Z " /><path fill="rgb(103,155,220)" stroke="rgb(103,155,220)" stroke-width="1" opacity="0.2784313725490196" d="M 333.5 146 L 335 146.5 L 329.5 149 L 329.5 148 L 333.5 146 Z " /><path fill="rgb(103,155,220)" stroke="rgb(103,155,220)" stroke-width="1" opacity="0.2784313725490196" d="M 326.5 149 L 328 149.5 L 322.5 152 L 322.5 151 L 326.5 149 Z " /><path fill="rgb(103,155,220)" stroke="rgb(103,155,220)" stroke-width="1" opacity="0.2784313725490196" d="M 319.5 152 L 321 152.5 L 315.5 155 L 315.5 154 L 319.5 152 Z " /><path fill="rgb(103,155,220)" stroke="rgb(103,155,220)" stroke-width="1" opacity="0.2784313725490196" d="M 312.5 155 L 314 155.5 L 308.5 158 L 308.5 157 L 312.5 155 Z " /><path fill="rgb(103,155,220)" stroke="rgb(103,155,220)" stroke-width="1" opacity="0.2784313725490196" d="M 303.5 159 L 305 159.5 L 301.5 161 L 301.5 160 L 303.5 159 Z " /><path fill="rgb(103,155,220)" stroke="rgb(103,155,220)" stroke-width="1" opacity="0.2784313725490196" d="M 42.5 160 L 43 302.5 L 44.5 304 L 46 304.5 L 44.5 305 L 42 302.5 L 42.5 160 Z " /><path fill="rgb(103,155,220)" stroke="rgb(103,155,220)" stroke-width="1" opacity="0.2784313725490196" d="M 298.5 161 L 300 161.5 L 294.5 164 L 294.5 163 L 298.5 161 Z " /><path fill="rgb(103,155,220)" stroke="rgb(103,155,220)" stroke-width="1" opacity="0.2784313725490196" d="M 291.5 164 L 293 164.5 L 287.5 167 L 287.5 166 L 291.5 164 Z " /><path fill="rgb(103,155,220)" stroke="rgb(103,155,220)" stroke-width="1" opacity="0.2784313725490196" d="M 284.5 167 L 286 167.5 L 280.5 170 L 280.5 169 L 284.5 167 Z " /><path fill="rgb(103,155,220)" stroke="rgb(103,155,220)" stroke-width="1" opacity="0.2784313725490196" d="M 277.5 170 L 279 170.5 L 273.5 173 L 273.5 172 L 277.5 170 Z " /><path fill="rgb(103,155,220)" stroke="rgb(103,155,220)" stroke-width="1" opacity="0.2784313725490196" d="M 270.5 173 L 272 173.5 L 266.5 176 L 266.5 175 L 270.5 173 Z " /><path fill="rgb(103,155,220)" stroke="rgb(103,155,220)" stroke-width="1" opacity="0.2784313725490196" d="M 263.5 176 L 265 176.5 L 259.5 179 L 259.5 178 L 263.5 176 Z " /><path fill="rgb(103,155,220)" stroke="rgb(103,155,220)" stroke-width="1" opacity="0.2784313725490196" d="M 256.5 179 L 258 179.5 L 252.5 182 L 252.5 181 L 256.5 179 Z " /><path fill="rgb(103,155,220)" stroke="rgb(103,155,220)" stroke-width="1" opacity="0.2784313725490196" d="M 145.5 182 L 193.5 203 L 200 204.5 L 196.5 205 L 151.5 186 L 145.5 183 L 145.5 182 Z " /><path fill="rgb(103,155,220)" stroke="rgb(103,155,220)" stroke-width="1" opacity="0.2784313725490196" d="M 249.5 182 L 251 182.5 L 238.5 188 L 238.5 187 L 249.5 182 Z " /><path fill="rgb(103,155,220)" stroke="rgb(103,155,220)" stroke-width="1" opacity="0.2784313725490196" d="M 235.5 188 L 237 188.5 L 231.5 191 L 231.5 190 L 235.5 188 Z " /><path fill="rgb(103,155,220)" stroke="rgb(103,155,220)" stroke-width="1" opacity="0.2784313725490196" d="M 228.5 191 L 230 191.5 L 224.5 194 L 224.5 193 L 228.5 191 Z " /><path fill="rgb(103,155,220)" stroke="rgb(103,155,220)" stroke-width="1" opacity="0.2784313725490196" d="M 221.5 194 L 223 194.5 L 217.5 197 L 217.5 196 L 221.5 194 Z " /><path fill="rgb(103,155,220)" stroke="rgb(103,155,220)" stroke-width="1" opacity="0.2784313725490196" d="M 214.5 197 L 216 197.5 L 210.5 200 L 210.5 199 L 214.5 197 Z " /><path fill="rgb(103,155,220)" stroke="rgb(103,155,220)" stroke-width="1" opacity="0.2784313725490196" d="M 205.5 201 L 207 201.5 L 203.5 203 L 203.5 202 L 205.5 201 Z " /><path fill="rgb(103,155,220)" stroke="rgb(103,155,220)" stroke-width="1" opacity="0.2784313725490196" d="M 47.5 305 L 53 307.5 L 51.5 308 L 47.5 306 L 47.5 305 Z " /><path fill="rgb(103,155,220)" stroke="rgb(103,155,220)" stroke-width="1" opacity="0.2784313725490196" d="M 345.5 306 L 347 306.5 L 343.5 308 L 343.5 307 L 345.5 306 Z " /><path fill="rgb(103,155,220)" stroke="rgb(103,155,220)" stroke-width="1" opacity="0.2784313725490196" d="M 54.5 308 L 60 310.5 L 58.5 311 L 54.5 309 L 54.5 308 Z " /><path fill="rgb(103,155,220)" stroke="rgb(103,155,220)" stroke-width="1" opacity="0.2784313725490196" d="M 340.5 308 L 342 308.5 L 336.5 311 L 336.5 310 L 340.5 308 Z " /><path fill="rgb(103,155,220)" stroke="rgb(103,155,220)" stroke-width="1" opacity="0.2784313725490196" d="M 61.5 311 L 69 314.5 L 67.5 315 L 61.5 312 L 61.5 311 Z " /><path fill="rgb(103,155,220)" stroke="rgb(103,155,220)" stroke-width="1" opacity="0.2784313725490196" d="M 333.5 311 L 335 311.5 L 329.5 314 L 329.5 313 L 333.5 311 Z " /><path fill="rgb(103,155,220)" stroke="rgb(103,155,220)" stroke-width="1" opacity="0.2784313725490196" d="M 326.5 314 L 328 314.5 L 322.5 317 L 322.5 316 L 326.5 314 Z " /><path fill="rgb(103,155,220)" stroke="rgb(103,155,220)" stroke-width="1" opacity="0.2784313725490196" d="M 70.5 315 L 74 316.5 L 72.5 317 L 70.5 315 Z " /><path fill="rgb(103,155,220)" stroke="rgb(103,155,220)" stroke-width="1" opacity="0.2784313725490196" d="M 319.5 317 L 321 317.5 L 315.5 320 L 315.5 319 L 319.5 317 Z " /><path fill="rgb(103,155,220)" stroke="rgb(103,155,220)" stroke-width="1" opacity="0.2784313725490196" d="M 77.5 318 L 81 319.5 L 79.5 320 L 77.5 318 Z " /><path fill="rgb(103,155,220)" stroke="rgb(103,155,220)" stroke-width="1" opacity="0.2784313725490196" d="M 82.5 320 L 88 322.5 L 86.5 323 L 82.5 321 L 82.5 320 Z " /><path fill="rgb(103,155,220)" stroke="rgb(103,155,220)" stroke-width="1" opacity="0.2784313725490196" d="M 312.5 320 L 314 320.5 L 308.5 323 L 308.5 322 L 312.5 320 Z " /><path fill="rgb(103,155,220)" stroke="rgb(103,155,220)" stroke-width="1" opacity="0.2784313725490196" d="M 305.5 323 L 307 323.5 L 301.5 326 L 301.5 325 L 305.5 323 Z " /><path fill="rgb(103,155,220)" stroke="rgb(103,155,220)" stroke-width="1" opacity="0.2784313725490196" d="M 91.5 324 L 95 325.5 L 93.5 326 L 91.5 324 Z " /><path fill="rgb(103,155,220)" stroke="rgb(103,155,220)" stroke-width="1" opacity="0.2784313725490196" d="M 298.5 326 L 300 326.5 L 294.5 329 L 294.5 328 L 298.5 326 Z " /><path fill="rgb(103,155,220)" stroke="rgb(103,155,220)" stroke-width="1" opacity="0.2784313725490196" d="M 98.5 327 L 102 328.5 L 100.5 329 L 98.5 327 Z " /><path fill="rgb(103,155,220)" stroke="rgb(103,155,220)" stroke-width="1" opacity="0.2784313725490196" d="M 105.5 330 L 109 331.5 L 107.5 332 L 105.5 330 Z " /><path fill="rgb(103,155,220)" stroke="rgb(103,155,220)" stroke-width="1" opacity="0.2784313725490196" d="M 289.5 330 L 291 330.5 L 287.5 332 L 287.5 331 L 289.5 330 Z " /><path fill="rgb(103,155,220)" stroke="rgb(103,155,220)" stroke-width="1" opacity="0.2784313725490196" d="M 284.5 332 L 286 332.5 L 280.5 335 L 280.5 334 L 284.5 332 Z " /><path fill="rgb(103,155,220)" stroke="rgb(103,155,220)" stroke-width="1" opacity="0.2784313725490196" d="M 112.5 333 L 118 335.5 L 116.5 336 L 112.5 334 L 112.5 333 Z " /><path fill="rgb(103,155,220)" stroke="rgb(103,155,220)" stroke-width="1" opacity="0.2784313725490196" d="M 277.5 335 L 279 335.5 L 266.5 341 L 266.5 340 L 277.5 335 Z " /><path fill="rgb(103,155,220)" stroke="rgb(103,155,220)" stroke-width="1" opacity="0.2784313725490196" d="M 119.5 336 L 139 344.5 L 137.5 345 L 119.5 337 L 119.5 336 Z " /><path fill="rgb(103,155,220)" stroke="rgb(103,155,220)" stroke-width="1" opacity="0.2784313725490196" d="M 263.5 341 L 265 341.5 L 243.5 351 L 243.5 350 L 263.5 341 Z " /><path fill="rgb(103,155,220)" stroke="rgb(103,155,220)" stroke-width="1" opacity="0.2784313725490196" d="M 140.5 345 L 146 347.5 L 144.5 348 L 140.5 346 L 140.5 345 Z " /><path fill="rgb(103,155,220)" stroke="rgb(103,155,220)" stroke-width="1" opacity="0.2784313725490196" d="M 147.5 348 L 153 350.5 L 151.5 351 L 147.5 349 L 147.5 348 Z " /><path fill="rgb(103,155,220)" stroke="rgb(103,155,220)" stroke-width="1" opacity="0.2784313725490196" d="M 154.5 351 L 160 353.5 L 158.5 354 L 154.5 352 L 154.5 351 Z " /><path fill="rgb(103,155,220)" stroke="rgb(103,155,220)" stroke-width="1" opacity="0.2784313725490196" d="M 240.5 351 L 242 351.5 L 236.5 354 L 236.5 353 L 240.5 351 Z " /><path fill="rgb(103,155,220)" stroke="rgb(103,155,220)" stroke-width="1" opacity="0.2784313725490196" d="M 161.5 354 L 167 356.5 L 165.5 357 L 161.5 355 L 161.5 354 Z " /><path fill="rgb(103,155,220)" stroke="rgb(103,155,220)" stroke-width="1" opacity="0.2784313725490196" d="M 233.5 354 L 235 354.5 L 215.5 363 L 215.5 362 L 233.5 354 Z " /><path fill="rgb(103,155,220)" stroke="rgb(103,155,220)" stroke-width="1" opacity="0.2784313725490196" d="M 168.5 357 L 174 359.5 L 172.5 360 L 168.5 358 L 168.5 357 Z " /><path fill="rgb(103,155,220)" stroke="rgb(103,155,220)" stroke-width="1" opacity="0.2784313725490196" d="M 175.5 360 L 181 362.5 L 179.5 363 L 175.5 361 L 175.5 360 Z " /><path fill="rgb(103,155,220)" stroke="rgb(103,155,220)" stroke-width="1" opacity="0.2784313725490196" d="M 182.5 363 L 188 365.5 L 186.5 366 L 182.5 364 L 182.5 363 Z " /><path fill="rgb(103,155,220)" stroke="rgb(103,155,220)" stroke-width="1" opacity="0.2784313725490196" d="M 212.5 363 L 214 363.5 L 208.5 366 L 208.5 365 L 212.5 363 Z " /><path fill="rgb(103,155,220)" stroke="rgb(103,155,220)" stroke-width="1" opacity="0.2784313725490196" d="M 189.5 366 L 199.5 369 L 206.5 366 L 206.5 367 L 196.5 370 L 189.5 367 L 189.5 366 Z " /><path fill="rgb(87,142,215)" stroke="rgb(87,142,215)" stroke-width="1" opacity="0.8666666666666667" d="M 314.5 155 L 316 155.5 L 312.5 157 L 312.5 156 L 314.5 155 Z " /><path fill="rgb(87,142,215)" stroke="rgb(87,142,215)" stroke-width="1" opacity="0.8666666666666667" d="M 307.5 158 L 309 158.5 L 305.5 160 L 305.5 159 L 307.5 158 Z " /><path fill="rgb(87,142,215)" stroke="rgb(87,142,215)" stroke-width="1" opacity="0.8666666666666667" d="M 300.5 161 L 302 161.5 L 298.5 163 L 298.5 162 L 300.5 161 Z " /><path fill="rgb(87,142,215)" stroke="rgb(87,142,215)" stroke-width="1" opacity="0.8666666666666667" d="M 279.5 170 L 281 170.5 L 277.5 172 L 277.5 171 L 279.5 170 Z " /><path fill="rgb(87,142,215)" stroke="rgb(87,142,215)" stroke-width="1" opacity="0.8666666666666667" d="M 272.5 173 L 274 173.5 L 270.5 175 L 270.5 174 L 272.5 173 Z " /><path fill="rgb(87,142,215)" stroke="rgb(87,142,215)" stroke-width="1" opacity="0.8666666666666667" d="M 265.5 176 L 267 176.5 L 263.5 178 L 263.5 177 L 265.5 176 Z " /><path fill="rgb(87,142,215)" stroke="rgb(87,142,215)" stroke-width="1" opacity="0.8666666666666667" d="M 258.5 179 L 260 179.5 L 256.5 181 L 256.5 180 L 258.5 179 Z " /><path fill="rgb(87,142,215)" stroke="rgb(87,142,215)" stroke-width="1" opacity="0.8666666666666667" d="M 251.5 182 L 253 182.5 L 249.5 184 L 249.5 183 L 251.5 182 Z " /><path fill="rgb(87,142,215)" stroke="rgb(87,142,215)" stroke-width="1" opacity="0.8666666666666667" d="M 237.5 188 L 239 188.5 L 235.5 190 L 235.5 189 L 237.5 188 Z " /><path fill="rgb(87,142,215)" stroke="rgb(87,142,215)" stroke-width="1" opacity="0.8666666666666667" d="M 230.5 191 L 232 191.5 L 228.5 193 L 228.5 192 L 230.5 191 Z " /><path fill="rgb(87,142,215)" stroke="rgb(87,142,215)" stroke-width="1" opacity="0.8666666666666667" d="M 223.5 194 L 225 194.5 L 221.5 196 L 221.5 195 L 223.5 194 Z " /><path fill="rgb(87,142,215)" stroke="rgb(87,142,215)" stroke-width="1" opacity="0.8666666666666667" d="M 216.5 197 L 218 197.5 L 214.5 199 L 214.5 198 L 216.5 197 Z " /><path fill="rgb(87,142,215)" stroke="rgb(87,142,215)" stroke-width="1" opacity="0.8666666666666667" d="M 209.5 200 L 211 200.5 L 207.5 202 L 207.5 201 L 209.5 200 Z " /><path fill="rgb(147,183,230)" stroke="rgb(147,183,230)" stroke-width="1" opacity="0.996078431372549" d="M 352.5 95 L 353 101.5 L 352 101.5 L 352.5 95 Z " /><path fill="rgb(147,183,230)" stroke="rgb(147,183,230)" stroke-width="1" opacity="0.996078431372549" d="M 352.5 103 L 353 138 L 321.5 125 L 313.5 120 L 311.5 120 L 310 119.5 L 326 118.5 L 318 117.5 L 326 116.5 L 318 115.5 L 338 114.5 L 330 113.5 L 338 112.5 L 330 111.5 L 346 110.5 L 342 109.5 L 350 108.5 L 342 107.5 L 352 107 L 352.5 103 Z M 316 120 L 316 121 L 318 121 L 316 120 Z " /><path fill="rgb(147,183,230)" stroke="rgb(147,183,230)" stroke-width="1" opacity="0.996078431372549" d="M 338.5 109 L 341 109.5 L 338.5 110 L 338.5 109 Z " /><path fill="rgb(147,183,230)" stroke="rgb(147,183,230)" stroke-width="1" opacity="0.996078431372549" d="M 90.5 167 L 94.5 167 L 157 198.5 L 154 199.5 L 158 200.5 L 154 201.5 L 158 202.5 L 152 203.5 L 154 204.5 L 152 205.5 L 154 206.5 L 150 207.5 L 152 208.5 L 150 209.5 L 152 210.5 L 146 211.5 L 150 212.5 L 146 213.5 L 150 214.5 L 144 215.5 L 146 216.5 L 144 217.5 L 146 218.5 L 140 219.5 L 144 220.5 L 142 221.5 L 144 222.5 L 138 223.5 L 142 224.5 L 138 225.5 L 142 226.5 L 134 227.5 L 138 228.5 L 136 229.5 L 138 230.5 L 134 231.5 L 136 232.5 L 134 233.5 L 136 234.5 L 130 235.5 L 134 236.5 L 130 237.5 L 134 238.5 L 128 239.5 L 130 240.5 L 128 241.5 L 130 242.5 L 124 243.5 L 128 244.5 L 124 245.5 L 128 246.5 L 122 247.5 L 126 248.5 L 122 249.5 L 126 250.5 L 118 251.5 L 122 252.5 L 118 253.5 L 122 254.5 L 116 255.5 L 120 256.5 L 118 257.5 L 120 258.5 L 114 259.5 L 118 260.5 L 114 261.5 L 116 262.5 L 112 263.5 L 114 264.5 L 112 265.5 L 114 266.5 L 108 267.5 L 112 268.5 L 108 269.5 L 112 270.5 L 106 271.5 L 110 272.5 L 106 273.5 L 110 274.5 L 102 275.5 L 106 276.5 L 102 277.5 L 106 278.5 L 100 279.5 L 104 280.5 L 102 281.5 L 104 282.5 L 98 283.5 L 100 284.5 L 98 285.5 L 100 286.5 L 95.5 287 L 74 275.5 L 74 195.5 L 75.5 195 L 75.5 194 L 74 193.5 L 76 192.5 L 74 191.5 L 78 190.5 L 74 189.5 L 78 188.5 L 74 187.5 L 82 186.5 L 78 185.5 L 82 184.5 L 78 183.5 L 84 182.5 L 82 181.5 L 84 180.5 L 80 179.5 L 86 178.5 L 84 177.5 L 86 176.5 L 84 175.5 L 90 174.5 L 86 173.5 L 90 172.5 L 86 171.5 L 92 170.5 L 90 169.5 L 92 168.5 L 90.5 167 Z " /><path fill="rgb(142,178,227)" stroke="rgb(142,178,227)" stroke-width="1" opacity="0.996078431372549" d="M 154.5 199 L 158.5 199 L 189 214 L 189 266.5 L 188 267.5 L 188.5 271 L 186 271.5 L 189 272.5 L 186 273.5 L 189 274.5 L 184 275.5 L 186 276.5 L 184 277.5 L 186 278.5 L 182 279.5 L 184 280.5 L 182 281.5 L 186 282.5 L 178 283.5 L 180 284.5 L 178 285.5 L 182 286.5 L 176 287.5 L 178 288.5 L 176 289.5 L 180 290.5 L 172 291.5 L 176 292.5 L 172 293.5 L 178 294.5 L 170 295.5 L 174 296.5 L 170 297.5 L 174 298.5 L 168 299.5 L 170 300.5 L 166 301.5 L 170 302.5 L 166 303.5 L 168 304.5 L 164 305.5 L 170 306.5 L 162 307.5 L 164 308.5 L 162 309.5 L 166 310.5 L 160 311.5 L 162 312.5 L 160 313.5 L 162 314.5 L 156 315.5 L 158 316.5 L 155.5 317 L 97 287.5 L 100 286.5 L 98 285.5 L 100 284.5 L 98 283.5 L 104 282.5 L 102 281.5 L 104 280.5 L 100 279.5 L 106 278.5 L 102 277.5 L 106 276.5 L 102 275.5 L 110 274.5 L 106 273.5 L 110 272.5 L 106 271.5 L 112 270.5 L 108 269.5 L 112 268.5 L 108 267.5 L 114 266.5 L 112 265.5 L 114 264.5 L 112 263.5 L 116 262.5 L 114 261.5 L 118 260.5 L 114 259.5 L 120 258.5 L 118 257.5 L 120 256.5 L 116 255.5 L 122 254.5 L 118 253.5 L 122 252.5 L 118 251.5 L 126 250.5 L 122 249.5 L 126 248.5 L 122 247.5 L 128 246.5 L 124 245.5 L 128 244.5 L 124 243.5 L 130 242.5 L 128 241.5 L 130 240.5 L 128 239.5 L 134 238.5 L 130 237.5 L 134 236.5 L 130 235.5 L 136 234.5 L 134 233.5 L 136 232.5 L 134 231.5 L 138 230.5 L 136 229.5 L 138 228.5 L 134 227.5 L 142 226.5 L 138 225.5 L 142 224.5 L 138 223.5 L 144 222.5 L 142 221.5 L 144 220.5 L 140 219.5 L 146 218.5 L 144 217.5 L 146 216.5 L 144 215.5 L 150 214.5 L 146 213.5 L 150 212.5 L 146 211.5 L 152 210.5 L 150 209.5 L 152 208.5 L 150 207.5 L 154 206.5 L 152 205.5 L 154 204.5 L 152 203.5 L 158 202.5 L 154 201.5 L 158 200.5 Q 153.6 200.9 154.5 199 Z " /><path fill="rgb(142,178,227)" stroke="rgb(142,178,227)" stroke-width="1" opacity="0.996078431372549" d="M 159.5 318 L 162 318.5 L 159.5 319 L 159.5 318 Z " /><path fill="rgb(90,143,214)" stroke="rgb(90,143,214)" stroke-width="1" opacity="1" d="M 350.5 140 L 353 140.5 L 353 303 L 197.5 369 L 120 335.5 L 122 334.5 L 118.5 334 L 117 334.5 L 122 332.5 L 120 331.5 L 124 330.5 L 122 329.5 L 124 328.5 L 122 327.5 L 126 326.5 L 124 325.5 L 126 324.5 L 124 323.5 L 130 322.5 L 128 321.5 L 130 320.5 L 128 319.5 L 132 318.5 L 130 317.5 L 132 316.5 L 130 315.5 L 136 314.5 L 132 313.5 L 136 312.5 L 134 311.5 L 138 310.5 L 134 309.5 L 139 309 L 139.5 311 L 141.5 311 L 189 334 L 189 301.5 L 190 300.5 L 190 294.5 L 190 231.5 L 191.5 231 L 191.5 230 L 190 229.5 L 192 228.5 L 190 227.5 L 194 226.5 L 192 225.5 L 194 224.5 L 192 223.5 L 198 222.5 L 194 221.5 L 198 220.5 L 194 219.5 L 198 219 L 198 205.5 L 200.5 205 L 350.5 140 Z " /><path fill="rgb(112,158,220)" stroke="rgb(112,158,220)" stroke-width="1" opacity="0.9921568627450981" d="M 68.5 150 L 118.5 171 L 122.5 174 L 125.5 174 L 143.5 183 L 145.5 183 L 196.5 206 L 198 205.5 L 198 218.5 L 194.5 219 L 194.5 220 L 198 220.5 L 194 221.5 L 198 222.5 L 192 223.5 L 194 224.5 L 192 225.5 L 194 226.5 L 190 227.5 L 192 228.5 L 190 229.5 L 192 230.5 L 190 231 L 189.5 295 L 189 214.5 L 187.5 213 L 73 156 L 73 275.5 L 74.5 277 L 134 306 L 134.5 308 L 136.5 308 L 138 308.5 L 134 309.5 L 138 310.5 L 134 311.5 L 136 312.5 L 132 313.5 L 136 314.5 L 130 315.5 L 132 316.5 L 130 317.5 L 132 318.5 L 128 319.5 L 130 320.5 L 128 321.5 L 130 322.5 L 124 323.5 L 126 324.5 L 124 325.5 L 126 326.5 L 122 327.5 L 124 328.5 L 122 329.5 L 124 330.5 L 120 331.5 L 122 332.5 L 118 333.5 L 122 334.5 L 118 336 L 117.5 334 L 115.5 334 L 43 302.5 L 43 187.5 L 44 186.5 L 43.5 183 L 46 182.5 L 43 181.5 L 46 180.5 L 43 179.5 L 50 178.5 L 46 177.5 L 50 176.5 L 46 175.5 L 52 174.5 L 50 173.5 L 52 172.5 L 50 171.5 L 54 170.5 L 52 169.5 L 54 168.5 L 52 167.5 L 58 166.5 L 54 165.5 L 58 164.5 L 54 163.5 L 60 162.5 L 58 161.5 L 60 160.5 L 58 159.5 L 62 158.5 L 60 157.5 L 62 156.5 L 58 155.5 L 66 154.5 L 62 153.5 L 66 152.5 L 62 151.5 L 68.5 150 Z " /><path fill="rgb(134,173,225)" stroke="rgb(134,173,225)" stroke-width="1" opacity="0.996078431372549" d="M 43.5 139 L 52.5 144 L 54.5 144 L 59 145 L 59.5 147 L 61 146.5 L 61.5 148 L 63.5 148 L 66.5 150 L 68 149.5 Q 68.6 152.3 62.5 151 L 62.5 152 L 66 152.5 L 62 153.5 L 66 154.5 L 58 155.5 L 62 156.5 L 60 157.5 L 62 158.5 L 58 159.5 L 60 160.5 L 58 161.5 L 60 162.5 L 54 163.5 L 58 164.5 L 54 165.5 L 58 166.5 L 52 167.5 L 54 168.5 L 52 169.5 L 54 170.5 L 50 171.5 L 52 172.5 L 50 173.5 L 52 174.5 L 46 175.5 L 50 176.5 L 46 177.5 L 50 178.5 L 43 179 L 43.5 139 Z " /><path fill="rgb(134,173,225)" stroke="rgb(134,173,225)" stroke-width="1" opacity="0.996078431372549" d="M 73 156 L 75 156.5 L 74 157.5 L 73.5 276 L 73 156 Z " /><path fill="rgb(134,173,225)" stroke="rgb(134,173,225)" stroke-width="1" opacity="0.996078431372549" d="M 43.5 180 L 46 180.5 L 43.5 181 L 43.5 180 Z " /><path fill="rgb(134,173,225)" stroke="rgb(134,173,225)" stroke-width="1" opacity="0.996078431372549" d="M 43.5 182 L 46 182.5 L 43.5 183 L 43.5 182 Z " /><path fill="rgb(134,173,225)" stroke="rgb(134,173,225)" stroke-width="1" opacity="0.996078431372549" d="M 186.5 271 L 189 271.5 L 186.5 272 L 186.5 271 Z " /><path fill="rgb(134,173,225)" stroke="rgb(134,173,225)" stroke-width="1" opacity="0.996078431372549" d="M 186.5 273 L 189 273.5 L 186.5 274 L 186.5 273 Z " /><path fill="rgb(134,173,225)" stroke="rgb(134,173,225)" stroke-width="1" opacity="0.996078431372549" d="M 184.5 275 Q 189 274.5 189 275.5 L 189 333.5 L 187.5 333 L 160 319.5 L 162 318.5 L 159.5 318 L 157.5 318 L 156 317.5 L 158 316.5 L 156 315.5 L 162 314.5 L 160 313.5 L 162 312.5 L 160 311.5 L 166 310.5 L 162 309.5 L 164 308.5 L 162 307.5 L 170 306.5 L 164 305.5 L 168 304.5 L 166 303.5 L 170 302.5 L 166 301.5 L 170 300.5 L 168 299.5 L 174 298.5 L 170 297.5 L 174 296.5 L 170 295.5 L 178 294.5 L 172 293.5 L 176 292.5 L 172 291.5 L 180 290.5 L 176 289.5 L 178 288.5 L 176 287.5 L 182 286.5 L 178 285.5 L 180 284.5 L 178 283.5 L 186 282.5 L 182 281.5 L 184 280.5 L 182 279.5 L 186 278.5 L 184 277.5 L 186 276.5 L 184.5 275 Z " /></svg>