<svg width="512" height="512" version="1.1" xmlns="http://www.w3.org/2000/svg" desc="Created with imagetracer.js version 1.2.6" ><path fill="rgb(0,0,0)" stroke="rgb(0,0,0)" stroke-width="1" opacity="0" d="M 0 0 L 248 0.5 Q 224.6 4.6 213 20.5 Q 204.2 30.4 202 46 Q 151.3 61.5 120 97.5 Q 89.6 129.6 77 179.5 L 74 196.5 L 74 206.5 L 73 207.5 L 73 348.5 Q 70.3 350.3 72 356.5 L 66 380.5 L 37 451.5 L 36 457.5 L 40 468.5 L 43.5 472 L 54.5 476 L 193.5 476 L 196 478.5 L 208.5 494 Q 222.6 507.9 247 511.5 L 0 512 L 0 0 Z " /><path fill="rgb(0,0,0)" stroke="rgb(0,0,0)" stroke-width="1" opacity="0" d="M 264.5 0 L 512 0 L 512 512 L 265 511.5 L 274.5 510 L 289.5 504 L 309 488.5 L 318.5 476 L 457.5 476 L 468.5 472 L 472 468.5 Q 476.8 463.3 475 451.5 L 446 380.5 L 440 356.5 Q 441.8 350.3 439 348.5 L 439 207.5 L 438 206.5 L 438 196.5 L 434 175.5 Q 418.1 118.9 379.5 85 Q 351.5 58.3 310 46 Q 306.2 22.7 289.5 11 L 277.5 4 L 268.5 1 L 264.5 1 L 264.5 0 Z " /><path fill="rgb(0,0,0)" stroke="rgb(0,0,0)" stroke-width="1" opacity="0" d="M 248.5 73 L 263.5 73 L 264.5 74 L 274.5 74 L 275.5 75 L 286.5 76 L 314.5 85 Q 343.7 98.3 364 120.5 Q 388.7 146.8 399 187.5 L 401 197.5 L 401 205.5 L 402 206.5 L 402 346.5 L 403 347.5 L 403 357.5 L 408 382.5 L 430 438.5 L 82 439 L 100 394.5 L 106 374.5 L 109 357.5 L 109 347.5 L 110 346.5 L 110 205.5 L 111 204.5 L 111 197.5 L 113 187.5 Q 125.1 139.1 157.5 111 Q 176.7 93.7 202.5 83 L 225.5 76 L 230.5 76 L 237.5 74 L 247.5 74 L 248.5 73 Z " /><path fill="rgb(0,0,0)" stroke="rgb(0,0,0)" stroke-width="1" opacity="0.792156862745098" d="M 248.5 0 L 254 0.5 L 248.5 1 L 248.5 0 Z " /><path fill="rgb(0,0,0)" stroke="rgb(0,0,0)" stroke-width="1" opacity="0.792156862745098" d="M 258.5 0 L 264 0.5 L 258.5 1 L 258.5 0 Z " /><path fill="rgb(0,0,0)" stroke="rgb(0,0,0)" stroke-width="1" opacity="0.792156862745098" d="M 228.5 7 L 227.5 9 L 228.5 7 Z " /><path fill="rgb(0,0,0)" stroke="rgb(0,0,0)" stroke-width="1" opacity="0.792156862745098" d="M 283.5 7 L 284.5 9 L 283.5 7 Z " /><path fill="rgb(0,0,0)" stroke="rgb(0,0,0)" stroke-width="1" opacity="0.792156862745098" d="M 286.5 9 L 287.5 11 L 286.5 9 Z " /><path fill="rgb(0,0,0)" stroke="rgb(0,0,0)" stroke-width="1" opacity="0.792156862745098" d="M 222.5 11 L 218.5 16 L 222.5 11 Z " /><path fill="rgb(0,0,0)" stroke="rgb(0,0,0)" stroke-width="1" opacity="0.792156862745098" d="M 289.5 11 L 293.5 16 L 289.5 11 Z " /><path fill="rgb(0,0,0)" stroke="rgb(0,0,0)" stroke-width="1" opacity="0.792156862745098" d="M 216.5 17 L 213.5 21 L 216.5 17 Z " /><path fill="rgb(0,0,0)" stroke="rgb(0,0,0)" stroke-width="1" opacity="0.792156862745098" d="M 295.5 17 L 298.5 21 L 295.5 17 Z " /><path fill="rgb(0,0,0)" stroke="rgb(0,0,0)" stroke-width="1" opacity="0.792156862745098" d="M 211.5 23 L 210.5 25 L 211.5 23 Z " /><path fill="rgb(0,0,0)" stroke="rgb(0,0,0)" stroke-width="1" opacity="0.792156862745098" d="M 300.5 23 L 301.5 25 L 300.5 23 Z " /><path fill="rgb(0,0,0)" stroke="rgb(0,0,0)" stroke-width="1" opacity="0.792156862745098" d="M 208.5 28 L 207.5 30 L 208.5 28 Z " /><path fill="rgb(0,0,0)" stroke="rgb(0,0,0)" stroke-width="1" opacity="0.792156862745098" d="M 165.5 61 L 164.5 63 L 165.5 61 Z " /><path fill="rgb(0,0,0)" stroke="rgb(0,0,0)" stroke-width="1" opacity="0.792156862745098" d="M 346.5 61 L 347.5 63 L 346.5 61 Z " /><path fill="rgb(0,0,0)" stroke="rgb(0,0,0)" stroke-width="1" opacity="0.792156862745098" d="M 160.5 64 L 159.5 66 L 160.5 64 Z " /><path fill="rgb(0,0,0)" stroke="rgb(0,0,0)" stroke-width="1" opacity="0.792156862745098" d="M 351.5 64 L 352.5 66 L 351.5 64 Z " /><path fill="rgb(0,0,0)" stroke="rgb(0,0,0)" stroke-width="1" opacity="0.792156862745098" d="M 154.5 68 L 153.5 70 L 154.5 68 Z " /><path fill="rgb(0,0,0)" stroke="rgb(0,0,0)" stroke-width="1" opacity="0.792156862745098" d="M 151.5 70 L 150.5 72 L 151.5 70 Z " /><path fill="rgb(0,0,0)" stroke="rgb(0,0,0)" stroke-width="1" opacity="0.792156862745098" d="M 360.5 70 L 361.5 72 L 360.5 70 Z " /><path fill="rgb(0,0,0)" stroke="rgb(0,0,0)" stroke-width="1" opacity="0.792156862745098" d="M 148.5 72 L 147.5 74 L 148.5 72 Z " /><path fill="rgb(0,0,0)" stroke="rgb(0,0,0)" stroke-width="1" opacity="0.792156862745098" d="M 363.5 72 L 364.5 74 L 363.5 72 Z " /><path fill="rgb(0,0,0)" stroke="rgb(0,0,0)" stroke-width="1" opacity="0.792156862745098" d="M 241.5 73 L 248 73.5 L 241.5 74 L 241.5 73 Z " /><path fill="rgb(0,0,0)" stroke="rgb(0,0,0)" stroke-width="1" opacity="0.792156862745098" d="M 264.5 73 L 271 73.5 L 264.5 74 L 264.5 73 Z " /><path fill="rgb(0,0,0)" stroke="rgb(0,0,0)" stroke-width="1" opacity="0.792156862745098" d="M 233.5 74 L 237 74.5 L 233.5 75 L 233.5 74 Z " /><path fill="rgb(0,0,0)" stroke="rgb(0,0,0)" stroke-width="1" opacity="0.792156862745098" d="M 275.5 74 L 279 74.5 L 275.5 75 L 275.5 74 Z " /><path fill="rgb(0,0,0)" stroke="rgb(0,0,0)" stroke-width="1" opacity="0.792156862745098" d="M 144.5 75 L 142.5 78 L 144.5 75 Z " /><path fill="rgb(0,0,0)" stroke="rgb(0,0,0)" stroke-width="1" opacity="0.792156862745098" d="M 228.5 75 L 231 75.5 L 228.5 76 L 228.5 75 Z " /><path fill="rgb(0,0,0)" stroke="rgb(0,0,0)" stroke-width="1" opacity="0.792156862745098" d="M 281.5 75 L 284 75.5 L 281.5 76 L 281.5 75 Z " /><path fill="rgb(0,0,0)" stroke="rgb(0,0,0)" stroke-width="1" opacity="0.792156862745098" d="M 367.5 75 L 369.5 78 L 367.5 75 Z " /><path fill="rgb(0,0,0)" stroke="rgb(0,0,0)" stroke-width="1" opacity="0.792156862745098" d="M 139.5 79 L 136.5 83 L 139.5 79 Z " /><path fill="rgb(0,0,0)" stroke="rgb(0,0,0)" stroke-width="1" opacity="0.792156862745098" d="M 372.5 79 L 375.5 83 L 372.5 79 Z " /><path fill="rgb(0,0,0)" stroke="rgb(0,0,0)" stroke-width="1" opacity="0.792156862745098" d="M 132.5 85 L 120.5 98 L 132.5 85 Z " /><path fill="rgb(0,0,0)" stroke="rgb(0,0,0)" stroke-width="1" opacity="0.792156862745098" d="M 379.5 85 L 391.5 98 L 379.5 85 Z " /><path fill="rgb(0,0,0)" stroke="rgb(0,0,0)" stroke-width="1" opacity="0.792156862745098" d="M 184.5 91 L 183.5 93 L 184.5 91 Z " /><path fill="rgb(0,0,0)" stroke="rgb(0,0,0)" stroke-width="1" opacity="0.792156862745098" d="M 327.5 91 L 328.5 93 L 327.5 91 Z " /><path fill="rgb(0,0,0)" stroke="rgb(0,0,0)" stroke-width="1" opacity="0.792156862745098" d="M 179.5 94 L 178.5 96 L 179.5 94 Z " /><path fill="rgb(0,0,0)" stroke="rgb(0,0,0)" stroke-width="1" opacity="0.792156862745098" d="M 332.5 94 L 333.5 96 L 332.5 94 Z " /><path fill="rgb(0,0,0)" stroke="rgb(0,0,0)" stroke-width="1" opacity="0.792156862745098" d="M 176.5 96 L 175.5 98 L 176.5 96 Z " /><path fill="rgb(0,0,0)" stroke="rgb(0,0,0)" stroke-width="1" opacity="0.792156862745098" d="M 338.5 98 L 339.5 100 L 338.5 98 Z " /><path fill="rgb(0,0,0)" stroke="rgb(0,0,0)" stroke-width="1" opacity="0.792156862745098" d="M 170.5 100 L 169.5 102 L 170.5 100 Z " /><path fill="rgb(0,0,0)" stroke="rgb(0,0,0)" stroke-width="1" opacity="0.792156862745098" d="M 341.5 100 L 342.5 102 L 341.5 100 Z " /><path fill="rgb(0,0,0)" stroke="rgb(0,0,0)" stroke-width="1" opacity="0.792156862745098" d="M 117.5 101 L 114.5 105 L 117.5 101 Z " /><path fill="rgb(0,0,0)" stroke="rgb(0,0,0)" stroke-width="1" opacity="0.792156862745098" d="M 395.5 102 L 397.5 105 L 395.5 102 Z " /><path fill="rgb(0,0,0)" stroke="rgb(0,0,0)" stroke-width="1" opacity="0.792156862745098" d="M 166.5 103 L 164.5 106 L 166.5 103 Z " /><path fill="rgb(0,0,0)" stroke="rgb(0,0,0)" stroke-width="1" opacity="0.792156862745098" d="M 345.5 103 L 346.5 105 L 345.5 103 Z " /><path fill="rgb(0,0,0)" stroke="rgb(0,0,0)" stroke-width="1" opacity="0.792156862745098" d="M 162.5 106 L 158.5 111 L 162.5 106 Z " /><path fill="rgb(0,0,0)" stroke="rgb(0,0,0)" stroke-width="1" opacity="0.792156862745098" d="M 112.5 107 L 110.5 110 L 112.5 107 Z " /><path fill="rgb(0,0,0)" stroke="rgb(0,0,0)" stroke-width="1" opacity="0.792156862745098" d="M 350.5 107 L 353.5 111 L 350.5 107 Z " /><path fill="rgb(0,0,0)" stroke="rgb(0,0,0)" stroke-width="1" opacity="0.792156862745098" d="M 399.5 107 L 401.5 110 L 399.5 107 Z " /><path fill="rgb(0,0,0)" stroke="rgb(0,0,0)" stroke-width="1" opacity="0.792156862745098" d="M 108.5 112 L 107.5 114 L 108.5 112 Z " /><path fill="rgb(0,0,0)" stroke="rgb(0,0,0)" stroke-width="1" opacity="0.792156862745098" d="M 403.5 112 L 404.5 114 L 403.5 112 Z " /><path fill="rgb(0,0,0)" stroke="rgb(0,0,0)" stroke-width="1" opacity="0.792156862745098" d="M 106.5 115 L 105.5 117 L 106.5 115 Z " /><path fill="rgb(0,0,0)" stroke="rgb(0,0,0)" stroke-width="1" opacity="0.792156862745098" d="M 405.5 115 L 406.5 117 L 405.5 115 Z " /><path fill="rgb(0,0,0)" stroke="rgb(0,0,0)" stroke-width="1" opacity="0.792156862745098" d="M 147.5 121 L 143.5 126 L 147.5 121 Z " /><path fill="rgb(0,0,0)" stroke="rgb(0,0,0)" stroke-width="1" opacity="0.792156862745098" d="M 364.5 121 L 368.5 126 L 364.5 121 Z " /><path fill="rgb(0,0,0)" stroke="rgb(0,0,0)" stroke-width="1" opacity="0.792156862745098" d="M 100.5 124 L 99.5 126 L 100.5 124 Z " /><path fill="rgb(0,0,0)" stroke="rgb(0,0,0)" stroke-width="1" opacity="0.792156862745098" d="M 411.5 124 L 412.5 126 L 411.5 124 Z " /><path fill="rgb(0,0,0)" stroke="rgb(0,0,0)" stroke-width="1" opacity="0.792156862745098" d="M 141.5 128 L 139.5 131 L 141.5 128 Z " /><path fill="rgb(0,0,0)" stroke="rgb(0,0,0)" stroke-width="1" opacity="0.792156862745098" d="M 370.5 128 L 372.5 131 L 370.5 128 Z " /><path fill="rgb(0,0,0)" stroke="rgb(0,0,0)" stroke-width="1" opacity="0.792156862745098" d="M 97.5 129 L 96.5 131 L 97.5 129 Z " /><path fill="rgb(0,0,0)" stroke="rgb(0,0,0)" stroke-width="1" opacity="0.792156862745098" d="M 414.5 129 L 415.5 131 L 414.5 129 Z " /><path fill="rgb(0,0,0)" stroke="rgb(0,0,0)" stroke-width="1" opacity="0.792156862745098" d="M 138.5 132 L 137.5 134 L 138.5 132 Z " /><path fill="rgb(0,0,0)" stroke="rgb(0,0,0)" stroke-width="1" opacity="0.792156862745098" d="M 373.5 132 L 374.5 134 L 373.5 132 Z " /><path fill="rgb(0,0,0)" stroke="rgb(0,0,0)" stroke-width="1" opacity="0.792156862745098" d="M 135.5 136 L 134.5 138 L 135.5 136 Z " /><path fill="rgb(0,0,0)" stroke="rgb(0,0,0)" stroke-width="1" opacity="0.792156862745098" d="M 376.5 136 L 377.5 138 L 376.5 136 Z " /><path fill="rgb(0,0,0)" stroke="rgb(0,0,0)" stroke-width="1" opacity="0.792156862745098" d="M 133.5 139 L 132.5 141 L 133.5 139 Z " /><path fill="rgb(0,0,0)" stroke="rgb(0,0,0)" stroke-width="1" opacity="0.792156862745098" d="M 378.5 139 L 379.5 141 L 378.5 139 Z " /><path fill="rgb(0,0,0)" stroke="rgb(0,0,0)" stroke-width="1" opacity="0.792156862745098" d="M 381.5 144 L 382.5 146 L 381.5 144 Z " /><path fill="rgb(0,0,0)" stroke="rgb(0,0,0)" stroke-width="1" opacity="0.792156862745098" d="M 77.5 179 L 78 181.5 L 77 181.5 L 77.5 179 Z " /><path fill="rgb(0,0,0)" stroke="rgb(0,0,0)" stroke-width="1" opacity="0.792156862745098" d="M 76.5 184 L 77 186.5 L 76 186.5 L 76.5 184 Z " /><path fill="rgb(0,0,0)" stroke="rgb(0,0,0)" stroke-width="1" opacity="0.792156862745098" d="M 435.5 184 L 436 186.5 L 435 186.5 L 435.5 184 Z " /><path fill="rgb(0,0,0)" stroke="rgb(0,0,0)" stroke-width="1" opacity="0.792156862745098" d="M 112.5 189 L 113 191.5 L 112 191.5 L 112.5 189 Z " /><path fill="rgb(0,0,0)" stroke="rgb(0,0,0)" stroke-width="1" opacity="0.792156862745098" d="M 399.5 189 L 400 191.5 L 399 191.5 L 399.5 189 Z " /><path fill="rgb(0,0,0)" stroke="rgb(0,0,0)" stroke-width="1" opacity="0.792156862745098" d="M 75.5 190 L 76 192.5 L 75 192.5 L 75.5 190 Z " /><path fill="rgb(0,0,0)" stroke="rgb(0,0,0)" stroke-width="1" opacity="0.792156862745098" d="M 436.5 190 L 437 192.5 L 436 192.5 L 436.5 190 Z " /><path fill="rgb(0,0,0)" stroke="rgb(0,0,0)" stroke-width="1" opacity="0.792156862745098" d="M 111.5 194 L 112 196.5 L 111 196.5 L 111.5 194 Z " /><path fill="rgb(0,0,0)" stroke="rgb(0,0,0)" stroke-width="1" opacity="0.792156862745098" d="M 400.5 194 L 401 196.5 L 400 196.5 L 400.5 194 Z " /><path fill="rgb(0,0,0)" stroke="rgb(0,0,0)" stroke-width="1" opacity="0.792156862745098" d="M 74.5 196 L 75 200.5 L 74 200.5 L 74.5 196 Z " /><path fill="rgb(0,0,0)" stroke="rgb(0,0,0)" stroke-width="1" opacity="0.792156862745098" d="M 437.5 196 L 438 200.5 L 437 200.5 L 437.5 196 Z " /><path fill="rgb(0,0,0)" stroke="rgb(0,0,0)" stroke-width="1" opacity="0.792156862745098" d="M 110.5 201 L 111 204.5 L 110 204.5 L 110.5 201 Z " /><path fill="rgb(0,0,0)" stroke="rgb(0,0,0)" stroke-width="1" opacity="0.792156862745098" d="M 401.5 201 L 402 205.5 L 401 205.5 L 401.5 201 Z " /><path fill="rgb(0,0,0)" stroke="rgb(0,0,0)" stroke-width="1" opacity="0.792156862745098" d="M 73.5 207 L 74 338.5 L 73 338.5 L 73.5 207 Z " /><path fill="rgb(0,0,0)" stroke="rgb(0,0,0)" stroke-width="1" opacity="0.792156862745098" d="M 438.5 207 L 439 338.5 L 438 338.5 L 438.5 207 Z " /><path fill="rgb(0,0,0)" stroke="rgb(0,0,0)" stroke-width="1" opacity="0.792156862745098" d="M 109.5 212 L 110 346.5 L 109 346.5 L 109.5 212 Z " /><path fill="rgb(0,0,0)" stroke="rgb(0,0,0)" stroke-width="1" opacity="0.792156862745098" d="M 402.5 213 L 403 346.5 L 402 346.5 L 402.5 213 Z " /><path fill="rgb(0,0,0)" stroke="rgb(0,0,0)" stroke-width="1" opacity="0.792156862745098" d="M 72.5 349 L 73 353.5 L 72 353.5 L 72.5 349 Z " /><path fill="rgb(0,0,0)" stroke="rgb(0,0,0)" stroke-width="1" opacity="0.792156862745098" d="M 439.5 349 L 440 353.5 L 439 353.5 L 439.5 349 Z " /><path fill="rgb(0,0,0)" stroke="rgb(0,0,0)" stroke-width="1" opacity="0.792156862745098" d="M 108.5 354 L 109 357.5 L 108 357.5 L 108.5 354 Z " /><path fill="rgb(0,0,0)" stroke="rgb(0,0,0)" stroke-width="1" opacity="0.792156862745098" d="M 403.5 354 L 404 357.5 L 403 357.5 L 403.5 354 Z " /><path fill="rgb(0,0,0)" stroke="rgb(0,0,0)" stroke-width="1" opacity="0.792156862745098" d="M 71.5 357 L 72 359.5 L 71 359.5 L 71.5 357 Z " /><path fill="rgb(0,0,0)" stroke="rgb(0,0,0)" stroke-width="1" opacity="0.792156862745098" d="M 440.5 357 L 441 359.5 L 440 359.5 L 440.5 357 Z " /><path fill="rgb(0,0,0)" stroke="rgb(0,0,0)" stroke-width="1" opacity="0.792156862745098" d="M 107.5 362 L 108 364.5 L 107 364.5 L 107.5 362 Z " /><path fill="rgb(0,0,0)" stroke="rgb(0,0,0)" stroke-width="1" opacity="0.792156862745098" d="M 404.5 362 L 405 364.5 L 404 364.5 L 404.5 362 Z " /><path fill="rgb(0,0,0)" stroke="rgb(0,0,0)" stroke-width="1" opacity="0.792156862745098" d="M 40.5 468 L 43.5 472 L 40.5 468 Z " /><path fill="rgb(0,0,0)" stroke="rgb(0,0,0)" stroke-width="1" opacity="0.792156862745098" d="M 471.5 468 L 468.5 472 L 471.5 468 Z " /><path fill="rgb(0,0,0)" stroke="rgb(0,0,0)" stroke-width="1" opacity="0.792156862745098" d="M 54.5 475 L 193.5 475 L 196 477.5 L 193.5 476 L 54.5 476 L 54.5 475 Z " /><path fill="rgb(0,0,0)" stroke="rgb(0,0,0)" stroke-width="1" opacity="0.792156862745098" d="M 318.5 475 L 458 475.5 L 318.5 476 L 316.5 478 L 318.5 475 Z " /><path fill="rgb(0,0,0)" stroke="rgb(0,0,0)" stroke-width="1" opacity="0.792156862745098" d="M 196.5 479 L 197.5 481 L 196.5 479 Z " /><path fill="rgb(0,0,0)" stroke="rgb(0,0,0)" stroke-width="1" opacity="0.792156862745098" d="M 315.5 479 L 314.5 481 L 315.5 479 Z " /><path fill="rgb(0,0,0)" stroke="rgb(0,0,0)" stroke-width="1" opacity="0.792156862745098" d="M 198.5 482 L 200.5 485 L 198.5 482 Z " /><path fill="rgb(0,0,0)" stroke="rgb(0,0,0)" stroke-width="1" opacity="0.792156862745098" d="M 313.5 482 L 311.5 485 L 313.5 482 Z " /><path fill="rgb(0,0,0)" stroke="rgb(0,0,0)" stroke-width="1" opacity="0.792156862745098" d="M 203.5 488 L 208.5 494 L 203.5 488 Z " /><path fill="rgb(0,0,0)" stroke="rgb(0,0,0)" stroke-width="1" opacity="0.792156862745098" d="M 308.5 488 L 303.5 494 L 308.5 488 Z " /><path fill="rgb(0,0,0)" stroke="rgb(0,0,0)" stroke-width="1" opacity="0.792156862745098" d="M 211.5 495 L 213.5 498 L 211.5 495 Z " /><path fill="rgb(0,0,0)" stroke="rgb(0,0,0)" stroke-width="1" opacity="0.792156862745098" d="M 300.5 495 L 298.5 498 L 300.5 495 Z " /><path fill="rgb(0,0,0)" stroke="rgb(0,0,0)" stroke-width="1" opacity="0.792156862745098" d="M 290.5 502 L 289.5 504 L 284.5 506 L 284.5 505 L 290.5 502 Z " /><path fill="rgb(0,0,0)" stroke="rgb(0,0,0)" stroke-width="1" opacity="0.792156862745098" d="M 223.5 503 L 226 504.5 L 224.5 505 L 223.5 503 Z " /><path fill="rgb(0,0,0)" stroke="rgb(0,0,0)" stroke-width="1" opacity="0.792156862745098" d="M 241.5 510 L 244 510.5 L 241.5 511 L 241.5 510 Z " /><path fill="rgb(0,0,0)" stroke="rgb(0,0,0)" stroke-width="1" opacity="0.792156862745098" d="M 268.5 510 L 271 510.5 L 268.5 511 L 268.5 510 Z " /><path fill="rgb(0,0,0)" stroke="rgb(0,0,0)" stroke-width="1" opacity="0.792156862745098" d="M 247.5 511 L 253 511.5 L 247.5 512 L 247.5 511 Z " /><path fill="rgb(0,0,0)" stroke="rgb(0,0,0)" stroke-width="1" opacity="0.792156862745098" d="M 259.5 511 L 265 511.5 L 259.5 512 L 259.5 511 Z " /><path fill="rgb(0,0,0)" stroke="rgb(0,0,0)" stroke-width="1" opacity="1" d="M 254.5 0 L 266.5 1 L 276.5 4 L 295 16 L 304 28.5 L 309 41.5 L 309 44.5 L 311.5 47 L 329.5 53 L 355.5 67 Q 377.8 81.8 395 101.5 Q 422 132 434 177.5 L 437 193.5 L 437 200.5 L 438 201.5 L 438 338.5 L 439 339.5 L 439 353.5 L 443 372.5 L 447 384.5 L 473 447.5 Q 475.9 452.1 475 460.5 Q 473.1 468.1 467.5 472 L 460.5 475 L 318.5 475 L 316 477.5 Q 310.6 488.1 301.5 495 Q 284.8 510.8 253.5 512 L 252.5 511 L 239.5 510 L 218.5 501 L 201 485.5 L 193.5 475 L 51.5 475 Q 43.9 473.1 40 467.5 Q 36 463 37 453.5 L 65 384.5 L 69 372.5 L 73 353.5 L 73 339.5 L 74 338.5 L 74 201.5 L 79 173.5 Q 95.6 116.6 135.5 83 L 166.5 61 L 189.5 50 L 200.5 47 L 203 44.5 L 206 32.5 L 217 16 L 224.5 10 L 235.5 4 L 245.5 1 L 253.5 1 L 254.5 0 Z M 242 73 L 216 78 L 197 85 Q 178 94 163 106 Q 125 136 112 190 L 111 201 L 110 202 L 110 212 L 109 213 L 109 354 L 108 355 L 106 373 L 101 391 L 82 437 L 83 439 L 430 439 L 411 391 L 406 373 L 404 355 L 403 354 L 403 214 L 402 213 L 401 195 L 397 178 L 392 164 Q 383 142 369 126 Q 345 97 309 82 L 279 74 Q 272 76 271 73 L 242 73 Z " /></svg>